<?xml version="1.0" encoding="utf-8"?>
<!-- Generator: Adobe Illustrator 15.0.1, SVG Export Plug-In . SVG Version: 6.00 Build 0)  -->
<!DOCTYPE svg PUBLIC "-//W3C//DTD SVG 1.1//EN" "http://www.w3.org/Graphics/SVG/1.1/DTD/svg11.dtd">
<svg version="1.1" id="Layer_1" xmlns="http://www.w3.org/2000/svg" xmlns:xlink="http://www.w3.org/1999/xlink" x="0px" y="0px"
	 width="141.73px" height="141.73px" viewBox="0 0 141.73 141.73" enable-background="new 0 0 141.73 141.73" xml:space="preserve">
<path fill="#1A1A1A" d="M70.865,9.281c-34.012,0-61.584,27.572-61.584,61.584s27.572,61.584,61.584,61.584
	s61.584-27.572,61.584-61.584S104.877,9.281,70.865,9.281z M35.596,43.296c1.163-1.161,2.695-1.724,4.219-1.7
	c-0.228,1.441,0.076,2.969,0.978,4.262c1.059,1.515,10.867,20.473,18.956,36.184c-0.062,0.068-0.132,0.131-0.19,0.202
	c-0.232,0.132-0.457,0.282-0.674,0.446C50.194,67.609,39.62,49.592,38.11,48.532c-1.28-0.898-2.794-1.205-4.228-0.99
	C33.855,46.007,34.424,44.465,35.596,43.296z M29.992,49.957c0.944-1.345,2.354-2.164,3.859-2.406
	c0.027,1.458,0.591,2.907,1.702,4.021c1.3,1.303,12.69,18.225,22.145,32.36c-0.11,0.157-0.22,0.315-0.314,0.479
	c-0.118,0.098-0.227,0.21-0.338,0.317c-9.948-13.425-22.002-29.278-23.669-30.058c-1.416-0.663-2.961-0.703-4.336-0.242
	C28.751,52.926,29.043,51.311,29.992,49.957z M25.631,57.491c0.697-1.489,1.942-2.54,3.382-3.04
	c0.282,1.428,1.088,2.756,2.374,3.658c1.498,1.053,14.105,15.619,24.626,27.961c-0.152,0.278-0.288,0.562-0.394,0.855
	c-0.069,0.082-0.129,0.174-0.194,0.26c-10.874-11.551-23.878-25.17-25.644-25.644c-1.51-0.407-3.038-0.179-4.312,0.515
	C24.924,60.627,24.932,58.987,25.631,57.491z M22.644,65.669c0.428-1.589,1.473-2.843,2.805-3.585
	c0.524,1.355,1.548,2.521,2.97,3.188c1.646,0.77,14.947,13.011,26.189,23.392c-0.125,0.344-0.228,0.691-0.289,1.041
	c-0.004,0.007-0.005,0.016-0.009,0.023c-11.455-9.508-25.098-20.54-26.902-20.695c-1.551-0.134-2.96,0.36-4.063,1.262
	C22.51,68.963,22.203,67.305,22.644,65.669z M21.106,74.357c0.249-1.635,1.063-3.059,2.227-4.027
	c0.758,1.189,1.938,2.115,3.407,2.511c1.744,0.47,15.322,10.034,26.956,18.378c-0.122,0.486-0.178,0.973-0.176,1.452
	c-0.177,0.476-0.302,0.98-0.348,1.511c-0.048,0.529-0.015,1.047,0.076,1.547c-0.017,0.092-0.029,0.184-0.042,0.277
	c-7.829-3.373-16.134-6.942-19.995-8.582C22.586,82.912,20.403,78.981,21.106,74.357z M61.612,102.822
	c-1.519,0.361-2.978,0.951-4.338,1.715c-0.345,0.193-0.885,0.736-1.195,0.447c-0.241-0.224-0.464-0.468-0.664-0.73
	c-0.47-0.613-0.812-1.318-1.004-2.068c-0.192-0.753-0.604-1.414-0.77-2.186c-0.09-0.42-0.13-0.852-0.127-1.281
	c-0.118-0.321-0.212-0.652-0.274-0.988c-0.103-0.555-0.025-1.102-0.006-1.643c6.47,2.786,12.604,5.432,15.641,6.742
	C66.518,102.206,63.877,102.281,61.612,102.822z M116.154,57.6c0.697,1.501,0.701,3.146,0.146,4.576
	c1.342,0.744,2.395,2.008,2.82,3.607c0.433,1.619,0.137,3.258-0.68,4.579c1.141,0.968,1.936,2.38,2.182,3.995
	c0.704,4.624-1.479,8.555-12.105,13.066c-3.854,1.636-12.137,5.197-19.956,8.564c-0.001,0.158-0.001,0.317,0.009,0.477
	c0.041,0.783-0.09,1.562-0.361,2.297c0.002,0.783-0.143,1.559-0.451,2.28c-0.305,0.712-0.477,1.462-0.805,2.165
	c-0.319,0.683-0.77,1.302-1.324,1.813c-0.311,0.288-0.845-0.254-1.188-0.448c-0.325-0.183-0.656-0.356-0.99-0.52
	c-1.266-0.615-2.607-1.076-3.988-1.349c-2.107-0.416-4.512-0.426-6.678,0.153c3.02-1.302,9.213-3.974,15.738-6.784
	c-0.014-0.101-0.027-0.202-0.045-0.301c0.092-0.499,0.126-1.017,0.081-1.548c-0.046-0.53-0.169-1.035-0.345-1.512
	c0.002-0.486-0.053-0.98-0.178-1.473c11.598-8.287,25.168-17.832,26.906-18.295c1.504-0.4,2.709-1.355,3.467-2.582
	c-1.115-0.946-2.561-1.468-4.151-1.33c-1.813,0.156-15.353,11.103-26.835,20.637c0,0-0.011,0.006-0.016,0.008
	c-0.066-0.365-0.175-0.728-0.313-1.086c11.161-10.266,24.563-22.464,26.187-23.219c1.43-0.665,2.461-1.834,2.988-3.195
	c-1.279-0.707-2.819-0.945-4.341-0.539c-1.743,0.465-14.888,14.025-25.697,25.461c-0.036-0.045-0.065-0.094-0.103-0.137
	c-0.104-0.293-0.24-0.578-0.393-0.858c10.461-12.229,23.112-26.866,24.596-27.901c1.291-0.902,2.103-2.231,2.385-3.665
	c-1.38-0.475-2.938-0.44-4.367,0.224c-1.648,0.767-13.771,16.666-23.672,29.973c-0.102-0.098-0.199-0.2-0.307-0.289
	c-0.109-0.194-0.235-0.381-0.368-0.564c9.452-14.081,20.88-30.93,22.177-32.225c1.115-1.113,1.685-2.564,1.714-4.025
	c-1.442-0.227-2.971,0.077-4.263,0.979c-1.508,1.053-12.143,19.016-20.838,34.048c-0.191-0.141-0.388-0.271-0.59-0.387
	c-0.069-0.084-0.15-0.158-0.224-0.238c8.104-15.682,17.915-34.593,18.976-36.105c0.906-1.289,1.214-2.816,0.988-4.26
	c-1.46,0.026-2.912,0.591-4.027,1.703c-1.307,1.305-10.12,21.116-17.297,37.573c-0.303-0.171-0.611-0.323-0.929-0.437
	c-0.013-0.012-0.028-0.02-0.042-0.031c6.477-16.971,14.383-37.607,15.166-39.281c0.668-1.428,0.707-2.984,0.234-4.367
	c-1.434,0.279-2.766,1.087-3.671,2.377c-1.064,1.517-7.761,22.771-13.198,40.378c-0.337-0.141-0.68-0.245-1.026-0.319
	C81.81,61.274,87.463,39.392,87.945,37.6c0.41-1.521,0.178-3.062-0.527-4.341c-1.363,0.523-2.535,1.551-3.202,2.978
	c-0.786,1.681-5.157,23.99-8.671,42.387c-0.021-0.007-0.041-0.017-0.062-0.022c-0.334-0.089-0.668-0.135-1-0.162
	c2.684-18.655,5.911-41.333,6.076-43.187c0.139-1.569-0.359-3.047-1.275-4.184c-1.25,0.753-2.227,1.969-2.637,3.488
	c-0.483,1.797-2.365,24.698-3.85,43.562c-0.122-0.019-0.24-0.048-0.363-0.059c-0.242-0.021-0.48-0.022-0.716-0.012
	c0.62-18.927,1.314-41.975,1.155-43.825c-0.135-1.569-0.882-2.938-1.98-3.898c-1.102,0.959-1.852,2.324-1.991,3.895
	c-0.163,1.85,0.502,24.899,1.096,43.828c-0.218-0.008-0.437-0.011-0.66,0.009c-0.139,0.012-0.271,0.043-0.407,0.065
	c-1.457-18.866-3.323-41.78-3.802-43.577c-0.406-1.522-1.379-2.74-2.629-3.496c-0.918,1.136-1.419,2.612-1.284,4.181
	c0.16,1.854,3.371,24.544,6.027,43.203c-0.317,0.028-0.636,0.073-0.954,0.158c-0.003,0.001-0.006,0.002-0.009,0.003
	c-3.489-18.412-7.942-40.705-8.725-42.388c-0.664-1.428-1.833-2.459-3.195-2.986c-0.707,1.277-0.943,2.817-0.539,4.342
	c0.479,1.795,6.219,23.666,10.854,41.674c-0.393,0.079-0.782,0.195-1.164,0.359c-5.416-17.633-12.061-38.915-13.124-40.438
	c-0.902-1.292-2.232-2.104-3.665-2.387c-0.476,1.381-0.441,2.939,0.223,4.369c0.783,1.685,8.62,22.326,15.092,39.363
	c-0.323,0.118-0.636,0.273-0.942,0.449c-7.162-16.493-15.949-36.336-17.255-37.645c-1.11-1.113-2.56-1.681-4.016-1.712
	c0.009,0,0.017-0.002,0.024-0.002c0.239-1.516,1.067-2.937,2.424-3.884c1.358-0.949,2.977-1.236,4.482-0.94
	c0.499-1.451,1.561-2.706,3.062-3.403c1.501-0.698,3.146-0.701,4.577-0.147c0.743-1.343,2.007-2.395,3.606-2.821
	s3.22-0.143,4.532,0.65c0.966-1.193,2.393-2.01,4.042-2.152c1.65-0.142,3.196,0.419,4.352,1.428
	c1.158-1.006,2.705-1.562,4.354-1.417c1.649,0.147,3.074,0.967,4.037,2.161c1.314-0.791,2.936-1.07,4.533-0.639
	c1.6,0.43,2.86,1.484,3.601,2.829c1.433-0.55,3.077-0.543,4.576,0.158c1.501,0.701,2.56,1.959,3.055,3.411
	c1.507-0.293,3.124-0.001,4.479,0.951c1.355,0.951,2.18,2.373,2.416,3.889c1.534-0.026,3.076,0.542,4.246,1.714
	c1.17,1.173,1.734,2.716,1.703,4.25c1.516,0.24,2.937,1.067,3.885,2.425s1.236,2.977,0.939,4.482
	C114.201,55.037,115.456,56.098,116.154,57.6z"/>
</svg>
