<?xml version="1.0" encoding="utf-8"?>
<!-- Generator: Adobe Illustrator 15.0.1, SVG Export Plug-In . SVG Version: 6.00 Build 0)  -->
<!DOCTYPE svg PUBLIC "-//W3C//DTD SVG 1.1//EN" "http://www.w3.org/Graphics/SVG/1.1/DTD/svg11.dtd">
<svg version="1.1" id="Layer_1" xmlns="http://www.w3.org/2000/svg" xmlns:xlink="http://www.w3.org/1999/xlink" x="0px" y="0px"
	 width="425.2px" height="141.73px" viewBox="0 0 425.2 141.73" enable-background="new 0 0 425.2 141.73" xml:space="preserve">
<path fill="#EB4535" d="M24.549,36.689c-2.18,0-3.949,1.768-3.949,3.949c0,2.181,3.949,6.46,3.949,6.46s3.949-4.279,3.949-6.46
	C28.498,38.458,26.73,36.689,24.549,36.689z M24.549,43.15c-1.372,0-2.485-1.113-2.485-2.485c0-1.373,1.113-2.485,2.485-2.485
	c1.373,0,2.485,1.113,2.485,2.485C27.034,42.037,25.921,43.15,24.549,43.15z"/>
<g>
	<path fill="#22211E" d="M387.439,66.731c-0.198-0.522-0.297-0.899-0.297-1.132c0-0.377,0.057-0.72,0.169-1.027
		c0.135-0.278,0.389-0.418,0.763-0.418h0.211c0.071-0.049,0.106-0.083,0.106-0.101v-0.037l-0.063-0.079
		c-0.568,0-0.949,0.139-1.144,0.418c-0.169,0.353-0.254,0.755-0.254,1.207c0.015,0.113,0.021,0.205,0.021,0.275
		c0.127,0.589,0.254,0.953,0.381,1.09c0.188,0.268,0.47,0.545,0.847,0.831c0.479,0.512,0.72,1.034,0.72,1.566
		c0,0.406-0.063,0.736-0.19,0.99c0,0.194-0.232,0.379-0.698,0.556c-0.155,0.014-0.233,0.041-0.233,0.079v0.058
		c0.025,0.053,0.074,0.08,0.148,0.08s0.173-0.034,0.296-0.101c0.346-0.127,0.558-0.279,0.636-0.455
		c0.169-0.374,0.254-0.757,0.254-1.148c0-0.494-0.177-0.995-0.529-1.502C387.891,67.255,387.51,66.872,387.439,66.731z"/>
	<path fill="#22211E" d="M391.032,64.609c-0.141-0.405-0.312-0.654-0.513-0.746h-0.021c-0.138,0-0.24,0.164-0.307,0.492
		c-0.162,1.132-0.247,2.207-0.254,3.223c0,0.198,0.007,0.394,0.021,0.587c0,0.303-0.055,1.199-0.164,2.688
		c0,0.155,0.062,0.233,0.186,0.233c0.063-0.039,0.096-0.07,0.096-0.095c0-0.042-0.017-0.088-0.048-0.138l0.143-1.963v-0.82
		c0-0.085,0.381-0.162,1.144-0.233l0.164,0.021c0.108,0.826,0.18,1.293,0.211,1.402c0.113,1.013,0.198,1.574,0.254,1.683
		c0.078,0,0.126-0.023,0.144-0.068c0-0.462-0.062-1-0.186-1.614C391.714,67.373,391.424,65.823,391.032,64.609z M391.456,67.604
		c-0.413,0-0.842,0.062-1.286,0.185v-0.068c0-0.342,0.007-0.514,0.021-0.514c0-1.252,0.103-2.273,0.307-3.063
		c0.067,0.028,0.151,0.153,0.254,0.375c0.47,1.609,0.704,2.628,0.704,3.059V67.604z"/>
	<path fill="#22211E" d="M393.71,63.889c-0.057,0.036-0.085,0.063-0.085,0.085c0.043,0.265,0.063,0.561,0.063,0.889v0.593
		c-0.084,0.924-0.127,2.611-0.127,5.059c0,0.381,0.028,0.571,0.085,0.571h0.085c0.039,0,0.066-0.049,0.085-0.148
		c-0.028-0.113-0.043-0.184-0.043-0.212V69.35c0-0.434,0.007-1.019,0.021-1.757c-0.015-0.056-0.021-0.113-0.021-0.169
		c0.085-1.15,0.127-1.863,0.127-2.138v-0.275c0-0.748-0.049-1.122-0.147-1.122H393.71z"/>
	<path fill="#22211E" d="M397.336,65.705c0-0.402,0.02-1.004,0.058-1.805l-0.121-0.063c-0.067,0-0.106,0.041-0.116,0.122v1.503
		c0,0.166-0.015,0.388-0.043,0.667c0,0.124,0.002,0.206,0.006,0.249c-0.019,0.367-0.027,0.582-0.027,0.646
		c0,0.212,0.041,1.175,0.122,2.889v0.18h-0.058c-0.604-1.831-0.946-2.974-1.027-3.429c-0.561-1.922-0.88-2.884-0.957-2.884
		c-0.067,0-0.108,0.041-0.122,0.122v3.667c0,0.974,0.04,2.076,0.122,3.308c0,0.078,0.038,0.116,0.116,0.116h0.121
		c-0.119-1.023-0.18-2.325-0.18-3.905c0-0.314,0.015-0.862,0.042-1.646l-0.005-0.18c0-0.169-0.013-0.402-0.037-0.698l0.006-0.117
		l0.042,0.069l0.556,1.91c0.921,3.126,1.422,4.688,1.503,4.688l0.116-0.058c-0.078-1.94-0.116-3.524-0.116-4.752V65.705z"/>
	<path fill="#22211E" d="M399.706,64.233h-0.867c-0.109,0-0.3,0.012-0.572,0.037c-0.014,0-0.07-0.013-0.169-0.037
		c-0.057,0.028-0.085,0.053-0.085,0.074c0,0.063,0.021,0.118,0.063,0.164l0.678-0.058h0.063l0.042,0.021
		c0.028,0.367,0.043,0.774,0.043,1.222c0.127,2.745,0.19,4.269,0.19,4.572c-0.015,0.109-0.021,0.177-0.021,0.201
		c0.042,0.049,0.07,0.074,0.085,0.074h0.084c0.021,0,0.043-0.025,0.063-0.074l-0.021-0.127c0-0.014,0.007-0.032,0.021-0.053
		c0-0.014-0.007-0.034-0.021-0.058c0-0.924-0.063-2.454-0.19-4.588c0-0.011,0.007-0.06,0.021-0.148l-0.042-0.968
		c0.021-0.049,0.042-0.074,0.063-0.074h0.593c0.395,0,0.593-0.03,0.593-0.09v-0.053l-0.063-0.074
		C400.069,64.221,399.887,64.233,399.706,64.233z"/>
	<path fill="#22211E" d="M404.502,67.848h-0.063c-0.043,0.021-0.063,0.042-0.063,0.063v0.021l0.021,0.106
		c0,0.042,0.282,0.084,0.847,0.127c0-0.014,0.007-0.021,0.021-0.021l0.021,0.105v1.037c-0.092,0.847-0.163,1.27-0.212,1.27
		c0,0.163-0.127,0.268-0.381,0.318h-0.085c-0.243-0.099-0.405-0.233-0.486-0.402c-0.255-0.575-0.382-1.408-0.382-2.498
		c0-2.311,0.212-3.517,0.636-3.62h0.084c0.106,0,0.205,0.021,0.297,0.063c0.155,0.099,0.247,0.148,0.275,0.148
		c0.056-0.036,0.084-0.063,0.084-0.085v-0.042c-0.155-0.197-0.367-0.296-0.635-0.296h-0.042l-0.212,0.021
		c-0.466,0.201-0.698,1.464-0.698,3.789c0,1.231,0.155,2.142,0.465,2.73c0.181,0.215,0.385,0.35,0.614,0.402h0.085
		c0.211-0.042,0.317-0.078,0.317-0.106c0.229,0,0.392-0.557,0.486-1.672c0-0.014-0.007-0.035-0.021-0.063
		c0.014-0.145,0.021-0.258,0.021-0.339v-0.529c0-0.211-0.028-0.346-0.084-0.402C404.851,67.925,404.548,67.883,404.502,67.848z"/>
	<path fill="#22211E" d="M408.667,66.048c0-0.074,0.007-0.194,0.021-0.36c-0.015,0-0.021-0.007-0.021-0.021l0.021-0.127v-0.678
		c0-0.099-0.008-0.254-0.021-0.465c0.014,0,0.021-0.014,0.021-0.042c-0.025-0.395-0.067-0.593-0.127-0.593h-0.063l-0.085,0.063
		c0.028,0.205,0.049,0.402,0.063,0.593l-0.021,0.042l0.021,0.127v0.508c0,0.381-0.007,0.776-0.021,1.186
		c0.113,2.24,0.17,3.637,0.17,4.191c0,0.19-0.092,0.325-0.275,0.402c-0.258,0-0.448-0.473-0.571-1.418
		c-0.184-1.4-0.339-3.249-0.466-5.545v-0.106c0-0.078-0.035-0.134-0.106-0.169h-0.042l-0.085,0.063
		c0.142,2.364,0.29,4.149,0.445,5.355c0.127,1.354,0.381,2.032,0.762,2.032c0.328,0,0.512-0.205,0.55-0.614
		c0-0.438-0.056-1.884-0.169-4.339V66.048z"/>
	<path fill="#22211E" d="M410.487,63.889c-0.057,0.036-0.085,0.063-0.085,0.085c0.043,0.265,0.063,0.561,0.063,0.889v0.593
		c-0.084,0.924-0.127,2.611-0.127,5.059c0,0.381,0.028,0.571,0.085,0.571h0.085c0.039,0,0.066-0.049,0.085-0.148
		c-0.028-0.113-0.043-0.184-0.043-0.212V69.35c0-0.434,0.007-1.019,0.021-1.757c-0.015-0.056-0.021-0.113-0.021-0.169
		c0.085-1.15,0.127-1.863,0.127-2.138v-0.275c0-0.748-0.049-1.122-0.147-1.122H410.487z"/>
	<path fill="#22211E" d="M412.34,70.875v-1.842c0-0.603-0.021-1.076-0.064-1.418c0-1.059-0.049-2.356-0.147-3.895l-0.021-0.042
		c0.028,0,0.042-0.035,0.042-0.106c-0.035-0.056-0.063-0.084-0.084-0.084h-0.021c-0.077,0-0.127,0.035-0.148,0.106l0.063,0.698
		c0.057,1.231,0.113,2.776,0.17,4.635v1.545l0.021,0.254c-0.014,0-0.021,0.049-0.021,0.148v0.127
		c0.035,0.056,0.063,0.084,0.084,0.084h0.974c0.24,0,0.36-0.028,0.36-0.084v-0.063c-0.021-0.042-0.042-0.063-0.063-0.063H412.34z"/>
	<path fill="#22211E" d="M416.15,67.218c0-0.024-0.015-0.06-0.043-0.106l-0.042-2.201c0.028-0.367,0.042-0.882,0.042-1.545
		c0-0.042-0.028-0.078-0.085-0.106h-0.042l-0.085,0.063c0,0.367-0.007,0.889-0.021,1.566l-0.021,0.042
		c0.014,0.025,0.021,0.053,0.021,0.085v0.974c0,0.222,0.007,0.589,0.021,1.101c-0.655,0.014-1.029,0.035-1.121,0.063l-0.021-0.042
		v-0.381c0.042-1.855,0.063-2.914,0.063-3.175c0-0.071-0.035-0.127-0.105-0.169h-0.043l-0.084,0.063
		c0,0.042,0.007,0.092,0.021,0.148c0,0.431-0.021,1.433-0.063,3.006c0,0.268,0.021,0.748,0.063,1.439v0.317
		c0,0.501-0.007,0.924-0.021,1.27c0.014,0.201,0.021,0.589,0.021,1.164v0.19c0.035,0.057,0.063,0.084,0.085,0.084
		c0.039,0,0.081-0.014,0.127-0.042c0-0.691-0.007-1.157-0.021-1.397c0.015-0.427,0.021-0.921,0.021-1.482
		c0-0.261-0.014-0.522-0.042-0.783c0.084-0.028,0.458-0.049,1.121-0.063c0.028,0.385,0.05,1.542,0.063,3.472
		c-0.014,0.088-0.021,0.208-0.021,0.36l0.084,0.063h0.064l0.063-0.042c0-0.208,0.007-0.349,0.021-0.423
		c-0.014-1.641-0.035-2.791-0.063-3.45C416.122,67.281,416.136,67.26,416.15,67.218z"/>
	<path fill="#22211E" d="M417.934,70.837c0-0.014-0.007-0.021-0.021-0.021c-0.1-1.305-0.148-2.455-0.148-3.45v-0.084
		c0.134,0,0.296-0.007,0.486-0.021c0.286,0.028,0.49,0.042,0.614,0.042c0.057,0,0.085-0.021,0.085-0.063v-0.063l-0.063-0.084
		c-0.148,0-0.382-0.014-0.699-0.042c-0.066,0.014-0.158,0.021-0.274,0.021h-0.148c-0.071-1.633-0.106-2.565-0.106-2.794
		l-0.021-0.254c0.243-0.014,0.384-0.021,0.423-0.021l0.614,0.063c0.046,0,0.081-0.035,0.105-0.106v-0.021
		c0-0.057-0.226-0.106-0.677-0.148c0,0.014-0.008,0.021-0.021,0.021l-0.042-0.021c-0.146,0.014-0.258,0.021-0.339,0.021h-0.233
		l-0.084,0.063c0,0.014,0.021,0.127,0.063,0.338c0,0.438,0.035,1.277,0.105,2.519v0.677c0,0.896,0.05,2.018,0.148,3.366
		c0,0.183,0.084,0.275,0.254,0.275c0.112-0.014,0.438-0.028,0.974-0.042c0.057-0.035,0.085-0.063,0.085-0.084v-0.021
		c-0.025-0.053-0.067-0.088-0.127-0.106C418.784,70.795,418.467,70.809,417.934,70.837z"/>
	<path fill="#22211E" d="M422.315,67.387c0-0.872,0.02-1.938,0.059-3.202l-0.005-0.211l-0.054-0.101h-0.063
		c-0.698,2.028-1.047,3.119-1.047,3.27h-0.059c-0.822-2.233-1.275-3.363-1.36-3.392l-0.121,0.063
		c0.123,0.991,0.247,3.332,0.37,7.022c0,0.084,0.04,0.127,0.122,0.127l0.121-0.063l-0.307-6.102v-0.063h0.063
		c0.656,1.842,1.046,2.766,1.17,2.773c0.063-0.049,0.351-0.87,0.862-2.46h0.063v2.587c0.081,2.3,0.162,3.45,0.243,3.45l0.127-0.063
		C422.378,68.934,422.315,67.722,422.315,67.387z"/>
	<path fill="#22211E" d="M345.828,64.325h-0.867c-0.109,0-0.3,0.012-0.572,0.037c-0.014,0-0.07-0.013-0.169-0.037
		c-0.057,0.028-0.085,0.053-0.085,0.074c0,0.063,0.021,0.118,0.063,0.164l0.678-0.058h0.063l0.042,0.021
		c0.028,0.367,0.043,0.774,0.043,1.222c0.127,2.745,0.19,4.269,0.19,4.572c-0.015,0.109-0.021,0.177-0.021,0.201
		c0.042,0.049,0.07,0.074,0.085,0.074h0.084c0.021,0,0.043-0.025,0.063-0.074l-0.021-0.127c0-0.014,0.007-0.032,0.021-0.053
		c0-0.014-0.007-0.034-0.021-0.058c0-0.924-0.063-2.454-0.19-4.588c0-0.011,0.007-0.06,0.021-0.148l-0.042-0.968
		c0.021-0.049,0.042-0.074,0.063-0.074h0.593c0.395,0,0.593-0.03,0.593-0.09v-0.053l-0.063-0.074
		C346.191,64.313,346.009,64.325,345.828,64.325z"/>
	<path fill="#22211E" d="M348.136,63.917c-0.109,0-0.229,0.05-0.359,0.148c-0.494,0.766-0.741,2.141-0.741,4.127l0.063,0.868
		c0.127,1.189,0.444,1.845,0.953,1.969h0.147c0.053,0,0.152-0.028,0.297-0.085c0.409-0.346,0.613-1.263,0.613-2.751
		c0-0.011-0.007-0.053-0.021-0.127c0.014-0.018,0.021-0.067,0.021-0.148v-0.021c0-0.081-0.007-0.13-0.021-0.148
		c0.014-0.077,0.021-0.141,0.021-0.19v-0.084c0-0.286-0.007-0.519-0.021-0.699C348.853,64.87,348.534,63.917,348.136,63.917z
		 M348.898,67.876c0,1.199-0.078,1.982-0.233,2.349c-0.081,0.396-0.265,0.593-0.55,0.593h-0.021c-0.155,0-0.332-0.197-0.529-0.593
		c-0.212-0.6-0.317-1.298-0.317-2.095c0-1.676,0.197-2.932,0.593-3.768c0.031-0.092,0.13-0.169,0.296-0.233
		c0.106,0.074,0.212,0.229,0.317,0.466c0.297,1.076,0.445,2.028,0.445,2.857V67.876z"/>
	<path fill="#22211E" d="M351.951,66.14c0-0.074,0.007-0.194,0.021-0.36c-0.015,0-0.021-0.007-0.021-0.021l0.021-0.127v-0.678
		c0-0.099-0.008-0.254-0.021-0.465c0.014,0,0.021-0.014,0.021-0.042c-0.025-0.395-0.067-0.593-0.127-0.593h-0.063l-0.085,0.063
		c0.028,0.205,0.049,0.402,0.063,0.593l-0.021,0.042l0.021,0.127v0.508c0,0.381-0.007,0.776-0.021,1.186
		c0.113,2.24,0.17,3.637,0.17,4.191c0,0.19-0.092,0.325-0.275,0.402c-0.258,0-0.448-0.473-0.571-1.418
		c-0.184-1.4-0.339-3.249-0.466-5.545v-0.106c0-0.078-0.035-0.134-0.106-0.169h-0.042l-0.085,0.063
		c0.142,2.364,0.29,4.149,0.445,5.355c0.127,1.354,0.381,2.032,0.762,2.032c0.328,0,0.512-0.205,0.55-0.614
		c0-0.438-0.056-1.884-0.169-4.339V66.14z"/>
	<path fill="#22211E" d="M353.815,70.966v-1.842c0-0.603-0.021-1.076-0.064-1.418c0-1.059-0.049-2.356-0.147-3.895l-0.021-0.042
		c0.028,0,0.042-0.035,0.042-0.106c-0.035-0.056-0.063-0.084-0.084-0.084h-0.021c-0.077,0-0.127,0.035-0.148,0.106l0.063,0.698
		c0.057,1.231,0.113,2.776,0.17,4.635v1.545l0.021,0.254c-0.014,0-0.021,0.049-0.021,0.148v0.127
		c0.035,0.056,0.063,0.084,0.084,0.084h0.974c0.24,0,0.36-0.028,0.36-0.084V71.03c-0.021-0.042-0.042-0.063-0.063-0.063H353.815z"/>
	<path fill="#22211E" d="M356.863,63.917c-0.109,0-0.229,0.05-0.359,0.148c-0.494,0.766-0.741,2.141-0.741,4.127l0.063,0.868
		c0.127,1.189,0.444,1.845,0.953,1.969h0.147c0.053,0,0.152-0.028,0.297-0.085c0.409-0.346,0.613-1.263,0.613-2.751
		c0-0.011-0.007-0.053-0.021-0.127c0.014-0.018,0.021-0.067,0.021-0.148v-0.021c0-0.081-0.007-0.13-0.021-0.148
		c0.014-0.077,0.021-0.141,0.021-0.19v-0.084c0-0.286-0.007-0.519-0.021-0.699C357.58,64.87,357.262,63.917,356.863,63.917z
		 M357.626,67.876c0,1.199-0.078,1.982-0.233,2.349c-0.081,0.396-0.265,0.593-0.55,0.593h-0.021c-0.155,0-0.332-0.197-0.529-0.593
		c-0.212-0.6-0.317-1.298-0.317-2.095c0-1.676,0.197-2.932,0.593-3.768c0.031-0.092,0.13-0.169,0.296-0.233
		c0.106,0.074,0.212,0.229,0.317,0.466c0.297,1.076,0.445,2.028,0.445,2.857V67.876z"/>
	<path fill="#22211E" d="M360.679,66.14c0-0.074,0.007-0.194,0.021-0.36c-0.015,0-0.021-0.007-0.021-0.021l0.021-0.127v-0.678
		c0-0.099-0.008-0.254-0.021-0.465c0.014,0,0.021-0.014,0.021-0.042c-0.025-0.395-0.067-0.593-0.127-0.593h-0.063l-0.085,0.063
		c0.028,0.205,0.049,0.402,0.063,0.593l-0.021,0.042l0.021,0.127v0.508c0,0.381-0.007,0.776-0.021,1.186
		c0.113,2.24,0.17,3.637,0.17,4.191c0,0.19-0.092,0.325-0.275,0.402c-0.258,0-0.448-0.473-0.571-1.418
		c-0.184-1.4-0.339-3.249-0.466-5.545v-0.106c0-0.078-0.035-0.134-0.106-0.169h-0.042l-0.085,0.063
		c0.142,2.364,0.29,4.149,0.445,5.355c0.127,1.354,0.381,2.032,0.762,2.032c0.328,0,0.512-0.205,0.55-0.614
		c0-0.438-0.056-1.884-0.169-4.339V66.14z"/>
	<path fill="#22211E" d="M362.314,66.823c-0.198-0.522-0.297-0.899-0.297-1.132c0-0.377,0.057-0.72,0.169-1.027
		c0.135-0.278,0.389-0.418,0.763-0.418h0.211c0.071-0.049,0.106-0.083,0.106-0.101v-0.037l-0.063-0.079
		c-0.568,0-0.949,0.139-1.144,0.418c-0.169,0.353-0.254,0.755-0.254,1.207c0.015,0.113,0.021,0.205,0.021,0.275
		c0.127,0.589,0.254,0.953,0.381,1.09c0.188,0.268,0.47,0.545,0.847,0.831c0.479,0.512,0.72,1.034,0.72,1.566
		c0,0.406-0.063,0.736-0.19,0.99c0,0.194-0.232,0.379-0.698,0.556c-0.155,0.014-0.233,0.041-0.233,0.079v0.058
		c0.025,0.053,0.074,0.08,0.148,0.08s0.173-0.034,0.296-0.101c0.346-0.127,0.558-0.279,0.636-0.455
		c0.169-0.374,0.254-0.757,0.254-1.148c0-0.494-0.177-0.995-0.529-1.502C362.766,67.347,362.385,66.964,362.314,66.823z"/>
	<path fill="#22211E" d="M365.399,70.929c0-0.014-0.007-0.021-0.021-0.021c-0.1-1.305-0.148-2.455-0.148-3.45v-0.084
		c0.134,0,0.296-0.007,0.486-0.021c0.286,0.028,0.49,0.042,0.614,0.042c0.057,0,0.085-0.021,0.085-0.063v-0.063l-0.063-0.084
		c-0.148,0-0.382-0.014-0.699-0.042c-0.066,0.014-0.158,0.021-0.274,0.021h-0.148c-0.071-1.633-0.106-2.565-0.106-2.794
		l-0.021-0.254c0.243-0.014,0.384-0.021,0.423-0.021l0.614,0.063c0.046,0,0.081-0.035,0.105-0.106v-0.021
		c0-0.057-0.226-0.106-0.677-0.148c0,0.014-0.008,0.021-0.021,0.021l-0.042-0.021c-0.146,0.014-0.258,0.021-0.339,0.021h-0.233
		l-0.084,0.063c0,0.014,0.021,0.127,0.063,0.338c0,0.438,0.035,1.277,0.105,2.519V67.5c0,0.896,0.05,2.018,0.148,3.366
		c0,0.183,0.084,0.275,0.254,0.275c0.112-0.014,0.438-0.028,0.974-0.042c0.057-0.035,0.085-0.063,0.085-0.084v-0.021
		c-0.025-0.053-0.067-0.088-0.127-0.106C366.25,70.887,365.933,70.901,365.399,70.929z"/>
	<path fill="#22211E" d="M270.214,60.11c-0.109,0-0.229,0.05-0.359,0.148c-0.494,0.766-0.741,2.141-0.741,4.127l0.063,0.868
		c0.127,1.189,0.444,1.845,0.953,1.969h0.147c0.053,0,0.152-0.028,0.297-0.085c0.409-0.346,0.613-1.263,0.613-2.751
		c0-0.011-0.007-0.053-0.021-0.127c0.014-0.018,0.021-0.067,0.021-0.148V64.09c0-0.081-0.007-0.13-0.021-0.148
		c0.014-0.077,0.021-0.141,0.021-0.19v-0.084c0-0.286-0.007-0.519-0.021-0.699C270.931,61.063,270.612,60.11,270.214,60.11z
		 M270.977,64.069c0,1.199-0.078,1.982-0.233,2.349c-0.081,0.396-0.265,0.593-0.55,0.593h-0.021c-0.155,0-0.332-0.197-0.529-0.593
		c-0.212-0.6-0.317-1.298-0.317-2.095c0-1.676,0.197-2.932,0.593-3.768c0.031-0.092,0.13-0.169,0.296-0.233
		c0.106,0.074,0.212,0.229,0.317,0.466c0.297,1.076,0.445,2.028,0.445,2.857V64.069z"/>
	<path fill="#22211E" d="M272.405,63.016c-0.198-0.522-0.297-0.899-0.297-1.132c0-0.377,0.057-0.72,0.169-1.027
		c0.135-0.278,0.389-0.418,0.763-0.418h0.211c0.071-0.049,0.106-0.083,0.106-0.101v-0.037l-0.063-0.079
		c-0.568,0-0.949,0.139-1.144,0.418c-0.169,0.353-0.254,0.755-0.254,1.207c0.015,0.113,0.021,0.205,0.021,0.275
		c0.127,0.589,0.254,0.953,0.381,1.09c0.188,0.268,0.47,0.545,0.847,0.831c0.479,0.512,0.72,1.034,0.72,1.566
		c0,0.406-0.063,0.736-0.19,0.99c0,0.194-0.232,0.379-0.698,0.556c-0.155,0.014-0.233,0.041-0.233,0.079v0.058
		c0.025,0.053,0.074,0.08,0.148,0.08s0.173-0.034,0.296-0.101c0.346-0.127,0.558-0.279,0.636-0.455
		c0.169-0.374,0.254-0.757,0.254-1.148c0-0.494-0.177-0.995-0.529-1.502C272.856,63.54,272.476,63.157,272.405,63.016z"/>
	<path fill="#22211E" d="M276.199,60.518h-0.867c-0.109,0-0.3,0.012-0.572,0.037c-0.014,0-0.07-0.013-0.169-0.037
		c-0.057,0.028-0.085,0.053-0.085,0.074c0,0.063,0.021,0.118,0.063,0.164l0.678-0.058h0.063l0.042,0.021
		c0.028,0.367,0.043,0.774,0.043,1.222c0.127,2.745,0.19,4.269,0.19,4.572c-0.015,0.109-0.021,0.177-0.021,0.201
		c0.042,0.049,0.07,0.074,0.085,0.074h0.084c0.021,0,0.043-0.025,0.063-0.074l-0.021-0.127c0-0.014,0.007-0.032,0.021-0.053
		c0-0.014-0.007-0.034-0.021-0.058c0-0.924-0.063-2.454-0.19-4.588c0-0.011,0.007-0.06,0.021-0.148l-0.042-0.968
		c0.021-0.049,0.042-0.074,0.063-0.074h0.593c0.395,0,0.593-0.03,0.593-0.09v-0.053l-0.063-0.074
		C276.562,60.506,276.38,60.518,276.199,60.518z"/>
	<path fill="#22211E" d="M279.692,65.545c-0.187-1.887-0.477-3.438-0.868-4.651c-0.141-0.405-0.312-0.654-0.513-0.746h-0.021
		c-0.138,0-0.24,0.164-0.307,0.492c-0.162,1.132-0.247,2.207-0.254,3.223c0,0.198,0.007,0.394,0.021,0.587
		c0,0.303-0.055,1.199-0.164,2.688c0,0.155,0.062,0.233,0.186,0.233c0.063-0.039,0.096-0.07,0.096-0.095
		c0-0.042-0.017-0.088-0.048-0.138l0.143-1.963v-0.82c0-0.085,0.381-0.162,1.144-0.233l0.164,0.021
		c0.108,0.826,0.18,1.293,0.211,1.402c0.113,1.013,0.198,1.574,0.254,1.683c0.078,0,0.126-0.023,0.144-0.068
		C279.878,66.697,279.815,66.159,279.692,65.545z M279.248,63.889c-0.413,0-0.842,0.062-1.286,0.185v-0.068
		c0-0.342,0.007-0.514,0.021-0.514c0-1.252,0.103-2.273,0.307-3.063c0.067,0.028,0.151,0.153,0.254,0.375
		c0.47,1.609,0.704,2.628,0.704,3.059V63.889z"/>
	<path fill="#22211E" d="M282.387,63.814c-0.18-0.303-0.413-0.508-0.698-0.614V63.18c0.074-0.095,0.116-0.145,0.127-0.148
		c0.381-0.564,0.606-1.093,0.677-1.587v-0.402c-0.099-0.917-0.366-1.376-0.804-1.376c-0.229,0-0.462,0.099-0.698,0.296
		c0.056,0.338,0.099,0.698,0.127,1.08c0,1.309,0.084,3.178,0.254,5.609c0,0.48,0.099,0.72,0.296,0.72h0.042
		c0.194-0.046,0.392-0.18,0.593-0.402c0.311-0.508,0.466-1.129,0.466-1.862C282.701,64.524,282.573,64.093,282.387,63.814z
		 M281.688,67.159l-0.085-0.085c-0.085-1.496-0.155-2.575-0.212-3.238c0-1.633-0.056-2.889-0.169-3.768
		c0.134-0.127,0.289-0.19,0.466-0.19c0.324,0,0.521,0.423,0.593,1.27v0.339c-0.138,0.631-0.435,1.203-0.89,1.714v0.063
		c0.05,0.085,0.135,0.127,0.254,0.127c0.328,0.191,0.54,0.423,0.636,0.699c0.07,0,0.162,0.339,0.274,1.016
		c0,0.473-0.084,0.945-0.254,1.418C282.186,66.827,281.981,67.039,281.688,67.159z"/>
	<path fill="#22211E" d="M285.038,60.894c-0.141-0.405-0.312-0.654-0.513-0.746h-0.021c-0.138,0-0.24,0.164-0.307,0.492
		c-0.162,1.132-0.247,2.207-0.254,3.223c0,0.198,0.007,0.394,0.021,0.587c0,0.303-0.055,1.199-0.164,2.688
		c0,0.155,0.062,0.233,0.186,0.233c0.063-0.039,0.096-0.07,0.096-0.095c0-0.042-0.017-0.088-0.048-0.138l0.143-1.963v-0.82
		c0-0.085,0.381-0.162,1.144-0.233l0.164,0.021c0.108,0.826,0.18,1.293,0.211,1.402c0.113,1.013,0.198,1.574,0.254,1.683
		c0.078,0,0.126-0.023,0.144-0.068c0-0.462-0.062-1-0.186-1.614C285.72,63.658,285.43,62.107,285.038,60.894z M285.462,63.889
		c-0.413,0-0.842,0.062-1.286,0.185v-0.068c0-0.342,0.007-0.514,0.021-0.514c0-1.252,0.103-2.273,0.307-3.063
		c0.067,0.028,0.151,0.153,0.254,0.375c0.47,1.609,0.704,2.628,0.704,3.059V63.889z"/>
	<path fill="#22211E" d="M287.261,59.793h-0.021l0.106,4.127c-0.015,0.458-0.021,0.967-0.021,1.524v0.021l0.021,0.042h-0.021
		c0.015,0.593,0.043,1.051,0.085,1.376l-0.021,0.042c0.018,0.226,0.046,0.338,0.085,0.338c0.042,0,0.127-0.021,0.254-0.063
		c1.002-0.875,1.503-2.003,1.503-3.387v-0.105c0-0.97-0.226-1.916-0.678-2.836C288.252,60.336,287.822,59.977,287.261,59.793z
		 M289.018,63.878c0,0.632-0.162,1.309-0.486,2.032c-0.279,0.452-0.582,0.818-0.91,1.101c-0.057-0.593-0.085-1.157-0.085-1.693
		v-0.254c0-0.398,0.007-0.787,0.021-1.164c-0.043-0.917-0.071-2.173-0.085-3.768V60.11c0.278,0.092,0.575,0.374,0.889,0.847
		c0.438,0.921,0.656,1.824,0.656,2.709V63.878z"/>
	<path fill="#22211E" d="M306.881,91.074c-0.109,0-0.229,0.049-0.359,0.147c-0.494,0.766-0.741,2.142-0.741,4.128l0.063,0.868
		c0.127,1.188,0.444,1.845,0.953,1.968h0.147c0.053,0,0.152-0.028,0.297-0.084c0.409-0.346,0.613-1.264,0.613-2.752
		c0-0.011-0.007-0.053-0.021-0.127c0.014-0.018,0.021-0.067,0.021-0.148v-0.021c0-0.081-0.007-0.13-0.021-0.147
		c0.014-0.078,0.021-0.142,0.021-0.19V94.63c0-0.286-0.007-0.519-0.021-0.698C307.598,92.026,307.279,91.074,306.881,91.074z
		 M307.644,95.032c0,1.199-0.078,1.982-0.233,2.35c-0.081,0.395-0.265,0.593-0.55,0.593h-0.021c-0.155,0-0.332-0.198-0.529-0.593
		c-0.212-0.6-0.317-1.299-0.317-2.096c0-1.676,0.197-2.932,0.593-3.768c0.031-0.092,0.13-0.17,0.296-0.233
		c0.106,0.074,0.212,0.229,0.317,0.466c0.297,1.076,0.445,2.028,0.445,2.857V95.032z"/>
	<path fill="#22211E" d="M309.3,98.122v-1.841c0-0.604-0.021-1.076-0.064-1.419c0-1.058-0.049-2.356-0.147-3.895l-0.021-0.042
		c0.028,0,0.042-0.035,0.042-0.105c-0.035-0.057-0.063-0.085-0.084-0.085h-0.021c-0.077,0-0.127,0.035-0.148,0.105l0.063,0.699
		c0.057,1.23,0.113,2.776,0.17,4.635v1.545l0.021,0.255c-0.014,0-0.021,0.049-0.021,0.147v0.127
		c0.035,0.057,0.063,0.085,0.084,0.085h0.974c0.24,0,0.36-0.028,0.36-0.085v-0.063c-0.021-0.042-0.042-0.063-0.063-0.063H309.3z"/>
	<path fill="#22211E" d="M312.348,91.074c-0.109,0-0.229,0.049-0.359,0.147c-0.494,0.766-0.741,2.142-0.741,4.128l0.063,0.868
		c0.127,1.188,0.444,1.845,0.953,1.968h0.147c0.053,0,0.152-0.028,0.297-0.084c0.409-0.346,0.613-1.264,0.613-2.752
		c0-0.011-0.007-0.053-0.021-0.127c0.014-0.018,0.021-0.067,0.021-0.148v-0.021c0-0.081-0.007-0.13-0.021-0.147
		c0.014-0.078,0.021-0.142,0.021-0.19V94.63c0-0.286-0.007-0.519-0.021-0.698C313.064,92.026,312.746,91.074,312.348,91.074z
		 M313.11,95.032c0,1.199-0.078,1.982-0.233,2.35c-0.081,0.395-0.265,0.593-0.55,0.593h-0.021c-0.155,0-0.332-0.198-0.529-0.593
		c-0.212-0.6-0.317-1.299-0.317-2.096c0-1.676,0.197-2.932,0.593-3.768c0.031-0.092,0.13-0.17,0.296-0.233
		c0.106,0.074,0.212,0.229,0.317,0.466c0.297,1.076,0.445,2.028,0.445,2.857V95.032z"/>
	<path fill="#22211E" d="M316.048,96.958c-0.099-1.319-0.459-2.053-1.08-2.201c0.536-0.416,0.805-1.087,0.805-2.011v-0.212
		c0-0.278-0.12-0.709-0.359-1.291c-0.17-0.286-0.389-0.483-0.656-0.593c-0.216-0.035-0.343-0.077-0.381-0.127h-0.043l-0.085,0.063
		c0.113,0.871,0.205,2.275,0.275,4.212c-0.042,0-0.077,0.028-0.105,0.085v0.063c0.024,0.057,0.066,0.085,0.127,0.085v1.27
		c0,0.194,0.014,0.59,0.042,1.186l-0.021,0.148c0.049,0.057,0.084,0.084,0.105,0.084c0.057,0,0.099-0.027,0.127-0.084v-0.043
		c0-0.091-0.014-0.486-0.042-1.185v-0.805c0-0.148-0.008-0.374-0.021-0.678h0.021c0.169,0,0.366,0.106,0.593,0.318
		c0.324,0.557,0.486,1.101,0.486,1.629v0.763c0,0.141,0.007,0.353,0.021,0.635l0.084,0.063h0.063l0.063-0.042
		c-0.014-0.233-0.021-0.409-0.021-0.529V96.958z M314.735,94.651c-0.07-1.524-0.148-2.802-0.232-3.831h0.063
		c0.119,0,0.296,0.105,0.528,0.317c0.311,0.575,0.466,1.048,0.466,1.418v0.296C315.561,93.678,315.286,94.277,314.735,94.651z"/>
	<path fill="#22211E" d="M317.921,91.074c-0.109,0-0.229,0.049-0.359,0.147c-0.494,0.766-0.741,2.142-0.741,4.128l0.063,0.868
		c0.127,1.188,0.444,1.845,0.953,1.968h0.147c0.053,0,0.152-0.028,0.297-0.084c0.409-0.346,0.613-1.264,0.613-2.752
		c0-0.011-0.007-0.053-0.021-0.127c0.014-0.018,0.021-0.067,0.021-0.148v-0.021c0-0.081-0.007-0.13-0.021-0.147
		c0.014-0.078,0.021-0.142,0.021-0.19V94.63c0-0.286-0.007-0.519-0.021-0.698C318.638,92.026,318.319,91.074,317.921,91.074z
		 M318.684,95.032c0,1.199-0.078,1.982-0.233,2.35c-0.081,0.395-0.265,0.593-0.55,0.593h-0.021c-0.155,0-0.332-0.198-0.529-0.593
		c-0.212-0.6-0.317-1.299-0.317-2.096c0-1.676,0.197-2.932,0.593-3.768c0.031-0.092,0.13-0.17,0.296-0.233
		c0.106,0.074,0.212,0.229,0.317,0.466c0.297,1.076,0.445,2.028,0.445,2.857V95.032z"/>
	<path fill="#22211E" d="M322.112,92.952c0-0.402,0.02-1.003,0.058-1.804l-0.121-0.063c-0.067,0-0.106,0.04-0.116,0.121v1.503
		c0,0.166-0.015,0.388-0.043,0.667c0,0.123,0.002,0.206,0.006,0.248c-0.019,0.367-0.027,0.582-0.027,0.646
		c0,0.211,0.041,1.174,0.122,2.889v0.18h-0.058c-0.604-1.831-0.946-2.974-1.027-3.429c-0.561-1.923-0.88-2.884-0.957-2.884
		c-0.067,0-0.108,0.04-0.122,0.122v3.667c0,0.974,0.04,2.076,0.122,3.307c0,0.078,0.038,0.116,0.116,0.116h0.121
		c-0.119-1.022-0.18-2.324-0.18-3.904c0-0.314,0.015-0.863,0.042-1.646l-0.005-0.18c0-0.169-0.013-0.402-0.037-0.698l0.006-0.116
		l0.042,0.068l0.556,1.91c0.921,3.126,1.422,4.688,1.503,4.688l0.116-0.059c-0.078-1.939-0.116-3.523-0.116-4.751V92.952z"/>
	<path fill="#22211E" d="M291.431,126.413c0-1.958-0.021-3.2-0.063-3.726c0.014-0.177,0.021-0.269,0.021-0.275
		c-0.046-0.028-0.089-0.042-0.128-0.042c-0.07,0.053-0.105,0.088-0.105,0.105v0.148c0,0.219,0.014,0.423,0.042,0.613
		c0.015,1.238,0.021,2.248,0.021,3.027v0.254c0,0.148,0.015,0.593,0.042,1.333v0.106c-0.056,0.804-0.204,1.206-0.444,1.206h-0.021
		c-0.067,0-0.138-0.021-0.212-0.063c-0.212,0-0.317-0.331-0.317-0.994c0-0.078-0.035-0.128-0.106-0.148
		c-0.024,0-0.06,0.021-0.105,0.063c0.014,0.624,0.057,0.956,0.127,0.995c0,0.145,0.19,0.264,0.571,0.359h0.085
		c0.37,0,0.582-0.487,0.635-1.461c-0.028-0.765-0.042-1.217-0.042-1.354V126.413z"/>
	<path fill="#22211E" d="M293.828,122.899c-0.141-0.406-0.312-0.654-0.513-0.746h-0.021c-0.138,0-0.24,0.164-0.307,0.492
		c-0.162,1.132-0.247,2.206-0.254,3.222c0,0.198,0.007,0.394,0.021,0.588c0,0.304-0.055,1.199-0.164,2.688
		c0,0.155,0.062,0.232,0.186,0.232c0.063-0.039,0.096-0.07,0.096-0.096c0-0.042-0.017-0.088-0.048-0.137l0.143-1.964v-0.82
		c0-0.084,0.381-0.162,1.144-0.232l0.164,0.021c0.108,0.825,0.18,1.293,0.211,1.402c0.113,1.012,0.198,1.573,0.254,1.683
		c0.078,0,0.126-0.023,0.144-0.069c0-0.462-0.062-1-0.186-1.613C294.51,125.663,294.22,124.112,293.828,122.899z M294.252,125.895
		c-0.413,0-0.842,0.062-1.286,0.185v-0.068c0-0.343,0.007-0.514,0.021-0.514c0-1.252,0.103-2.273,0.307-3.063
		c0.067,0.028,0.151,0.153,0.254,0.376c0.47,1.608,0.704,2.628,0.704,3.058V125.895z"/>
	<path fill="#22211E" d="M298.205,128.698c-0.244,0.311-0.47,0.466-0.678,0.466c-0.162-0.007-0.353-0.105-0.571-0.296
		c-0.18-0.229-0.321-0.667-0.424-1.312c-0.169-0.882-0.254-1.637-0.254-2.265v-0.36c0-0.931,0.142-1.665,0.424-2.201
		c0-0.102,0.176-0.215,0.529-0.339c0.105,0,0.204,0.057,0.296,0.17h0.085c0.056-0.035,0.084-0.063,0.084-0.085
		c0-0.138-0.127-0.229-0.381-0.275h-0.148c-0.06,0-0.193,0.05-0.401,0.148c-0.441,0.335-0.674,1.217-0.699,2.646v0.127
		c0,0.699,0.035,1.2,0.106,1.503c0.187,1.411,0.405,2.216,0.656,2.413c0.229,0.201,0.447,0.314,0.656,0.339h0.021
		c0.109,0,0.229-0.028,0.36-0.085c0.311-0.197,0.466-0.359,0.466-0.486v-0.043c-0.021-0.042-0.043-0.063-0.063-0.063H298.205z"/>
	<path fill="#22211E" d="M300.236,122.899c-0.141-0.406-0.312-0.654-0.513-0.746h-0.021c-0.138,0-0.24,0.164-0.307,0.492
		c-0.162,1.132-0.247,2.206-0.254,3.222c0,0.198,0.007,0.394,0.021,0.588c0,0.304-0.055,1.199-0.164,2.688
		c0,0.155,0.062,0.232,0.186,0.232c0.063-0.039,0.096-0.07,0.096-0.096c0-0.042-0.017-0.088-0.048-0.137l0.143-1.964v-0.82
		c0-0.084,0.381-0.162,1.144-0.232l0.164,0.021c0.108,0.825,0.18,1.293,0.211,1.402c0.113,1.012,0.198,1.573,0.254,1.683
		c0.078,0,0.126-0.023,0.144-0.069c0-0.462-0.062-1-0.186-1.613C300.918,125.663,300.628,124.112,300.236,122.899z M300.66,125.895
		c-0.413,0-0.842,0.062-1.286,0.185v-0.068c0-0.343,0.007-0.514,0.021-0.514c0-1.252,0.103-2.273,0.307-3.063
		c0.067,0.028,0.151,0.153,0.254,0.376c0.47,1.608,0.704,2.628,0.704,3.058V125.895z"/>
	<path fill="#22211E" d="M235.687,114.98c-0.057,0.035-0.084,0.063-0.084,0.085v0.063c0,0.028,0.014,0.042,0.042,0.042l-0.105,3.853
		c0,0.078,0.014,0.304,0.042,0.678c-0.042,0-0.07,0.028-0.085,0.084c0,0.043,0.028,0.078,0.085,0.106
		c0,0.066,0.007,0.229,0.021,0.486c0,0.071-0.008,0.177-0.021,0.317l0.063,0.89c-0.015,0-0.021,0.007-0.021,0.021
		c0.018,0.229,0.039,0.413,0.063,0.551c-0.014,0-0.021,0.007-0.021,0.021v0.147c0.035,0.057,0.063,0.085,0.084,0.085h0.043
		c0.042-0.018,0.084-0.081,0.127-0.19v-0.063c0-0.105-0.021-0.162-0.063-0.169c0-0.12-0.021-0.579-0.063-1.376
		c0-0.018,0.007-0.089,0.021-0.212c-0.014-0.123-0.021-0.278-0.021-0.466v-0.021c0-0.031,0.084-0.053,0.254-0.063
		c0.265-0.13,0.469-0.32,0.613-0.571c0.311-1.051,0.466-2.018,0.466-2.899c-0.014-0.188-0.042-0.35-0.085-0.487
		C236.798,115.284,236.347,114.98,235.687,114.98z M236.894,116.801c-0.152,1.581-0.35,2.448-0.593,2.604
		c-0.162,0.17-0.325,0.254-0.487,0.254l-0.042-0.021c0-0.113-0.007-0.317-0.021-0.614l0.106-3.831
		c0.158,0.028,0.3,0.063,0.423,0.105c0.424,0.297,0.635,0.628,0.635,0.995C236.914,116.374,236.907,116.544,236.894,116.801z"/>
	<path fill="#22211E" d="M239.386,122.41c0.328,0,0.512-0.204,0.55-0.614c0-0.437-0.056-1.884-0.169-4.339v-0.085
		c0-0.073,0.007-0.193,0.021-0.359c-0.015,0-0.021-0.007-0.021-0.021l0.021-0.127v-0.677c0-0.099-0.008-0.254-0.021-0.466
		c0.014,0,0.021-0.015,0.021-0.042c-0.025-0.396-0.067-0.593-0.127-0.593h-0.063l-0.085,0.063c0.028,0.204,0.049,0.401,0.063,0.593
		l-0.021,0.042l0.021,0.127v0.508c0,0.381-0.007,0.776-0.021,1.186c0.113,2.24,0.17,3.637,0.17,4.19
		c0,0.191-0.092,0.325-0.275,0.402c-0.258,0-0.448-0.473-0.571-1.418c-0.184-1.4-0.339-3.249-0.466-5.546v-0.105
		c0-0.077-0.035-0.134-0.106-0.169h-0.042l-0.085,0.063c0.142,2.363,0.29,4.148,0.445,5.354
		C238.751,121.732,239.005,122.41,239.386,122.41z"/>
	<path fill="#22211E" d="M241.879,122.161c0-0.014-0.007-0.021-0.021-0.021c-0.1-1.306-0.148-2.456-0.148-3.45v-0.085
		c0.134,0,0.296-0.007,0.486-0.021c0.286,0.028,0.49,0.043,0.614,0.043c0.057,0,0.085-0.021,0.085-0.063V118.5l-0.063-0.085
		c-0.148,0-0.382-0.014-0.699-0.042c-0.066,0.014-0.158,0.021-0.274,0.021h-0.148c-0.071-1.633-0.106-2.564-0.106-2.794
		l-0.021-0.254c0.243-0.014,0.384-0.021,0.423-0.021l0.614,0.064c0.046,0,0.081-0.036,0.105-0.106v-0.021
		c0-0.056-0.226-0.105-0.677-0.147c0,0.014-0.008,0.021-0.021,0.021l-0.042-0.021c-0.146,0.014-0.258,0.021-0.339,0.021h-0.233
		l-0.084,0.063c0,0.015,0.021,0.127,0.063,0.339c0,0.438,0.035,1.277,0.105,2.519v0.678c0,0.896,0.05,2.018,0.148,3.365
		c0,0.184,0.084,0.275,0.254,0.275c0.112-0.014,0.438-0.028,0.974-0.042c0.057-0.035,0.085-0.063,0.085-0.085v-0.021
		c-0.025-0.053-0.067-0.088-0.127-0.105C242.729,122.119,242.412,122.133,241.879,122.161z"/>
	<path fill="#22211E" d="M246.013,117.028c0-0.402,0.02-1.003,0.058-1.804l-0.121-0.063c-0.067,0-0.106,0.04-0.116,0.121v1.503
		c0,0.166-0.015,0.388-0.043,0.667c0,0.123,0.002,0.206,0.006,0.248c-0.019,0.367-0.027,0.582-0.027,0.646
		c0,0.211,0.041,1.174,0.122,2.889v0.18h-0.058c-0.604-1.831-0.946-2.974-1.027-3.429c-0.561-1.923-0.88-2.884-0.957-2.884
		c-0.067,0-0.108,0.04-0.122,0.122v3.667c0,0.974,0.04,2.076,0.122,3.307c0,0.078,0.038,0.116,0.116,0.116h0.121
		c-0.119-1.022-0.18-2.324-0.18-3.904c0-0.314,0.015-0.863,0.042-1.646l-0.005-0.18c0-0.169-0.013-0.402-0.037-0.698l0.006-0.116
		l0.042,0.068l0.556,1.91c0.921,3.126,1.422,4.688,1.503,4.688l0.116-0.059c-0.078-1.939-0.116-3.523-0.116-4.751V117.028z"/>
	<path fill="#22211E" d="M248.383,115.558h-0.867c-0.109,0-0.3,0.013-0.572,0.037c-0.014,0-0.07-0.013-0.169-0.037
		c-0.057,0.028-0.085,0.053-0.085,0.074c0,0.063,0.021,0.118,0.063,0.164l0.678-0.059h0.063l0.042,0.021
		c0.028,0.367,0.043,0.774,0.043,1.223c0.127,2.744,0.19,4.269,0.19,4.571c-0.015,0.109-0.021,0.177-0.021,0.201
		c0.042,0.05,0.07,0.074,0.085,0.074h0.084c0.021,0,0.043-0.024,0.063-0.074l-0.021-0.127c0-0.014,0.007-0.031,0.021-0.053
		c0-0.015-0.007-0.033-0.021-0.059c0-0.924-0.063-2.453-0.19-4.588c0-0.011,0.007-0.06,0.021-0.147l-0.042-0.969
		c0.021-0.05,0.042-0.074,0.063-0.074h0.593c0.395,0,0.593-0.03,0.593-0.09v-0.053l-0.063-0.074
		C248.746,115.545,248.563,115.558,248.383,115.558z"/>
	<path fill="#22211E" d="M251.58,122.246v-0.021c-0.025-0.053-0.067-0.088-0.127-0.105c-0.103,0-0.42,0.014-0.953,0.042
		c0-0.014-0.007-0.021-0.021-0.021c-0.1-1.306-0.148-2.456-0.148-3.45v-0.085c0.134,0,0.296-0.007,0.486-0.021
		c0.286,0.028,0.49,0.043,0.614,0.043c0.057,0,0.085-0.021,0.085-0.063V118.5l-0.063-0.085c-0.148,0-0.382-0.014-0.699-0.042
		c-0.066,0.014-0.158,0.021-0.274,0.021h-0.148c-0.071-1.633-0.106-2.564-0.106-2.794l-0.021-0.254
		c0.243-0.014,0.384-0.021,0.423-0.021l0.614,0.064c0.046,0,0.081-0.036,0.105-0.106v-0.021c0-0.056-0.226-0.105-0.677-0.147
		c0,0.014-0.008,0.021-0.021,0.021l-0.042-0.021c-0.146,0.014-0.258,0.021-0.339,0.021h-0.233l-0.084,0.063
		c0,0.015,0.021,0.127,0.063,0.339c0,0.438,0.035,1.277,0.105,2.519v0.678c0,0.896,0.05,2.018,0.148,3.365
		c0,0.184,0.084,0.275,0.254,0.275c0.112-0.014,0.438-0.028,0.974-0.042C251.552,122.296,251.58,122.268,251.58,122.246z"/>
	<path fill="#22211E" d="M235.867,133.035v-1.841c0-0.604-0.021-1.076-0.064-1.419c0-1.058-0.049-2.356-0.147-3.895l-0.021-0.042
		c0.028,0,0.042-0.035,0.042-0.105c-0.035-0.057-0.063-0.085-0.084-0.085h-0.021c-0.077,0-0.127,0.035-0.148,0.105l0.063,0.699
		c0.057,1.23,0.113,2.776,0.17,4.635v1.545l0.021,0.255c-0.014,0-0.021,0.049-0.021,0.147v0.127
		c0.035,0.057,0.063,0.085,0.084,0.085h0.974c0.24,0,0.36-0.028,0.36-0.085v-0.063c-0.021-0.042-0.042-0.063-0.063-0.063H235.867z"
		/>
	<path fill="#22211E" d="M239.232,126.771c-0.141-0.406-0.312-0.654-0.513-0.746h-0.021c-0.138,0-0.24,0.164-0.307,0.492
		c-0.162,1.132-0.247,2.206-0.254,3.222c0,0.198,0.007,0.394,0.021,0.588c0,0.304-0.055,1.199-0.164,2.688
		c0,0.155,0.062,0.232,0.186,0.232c0.063-0.039,0.096-0.07,0.096-0.096c0-0.042-0.017-0.088-0.048-0.137l0.143-1.964v-0.82
		c0-0.084,0.381-0.162,1.144-0.232l0.164,0.021c0.108,0.825,0.18,1.293,0.211,1.402c0.113,1.012,0.198,1.573,0.254,1.683
		c0.078,0,0.126-0.023,0.144-0.069c0-0.462-0.062-1-0.186-1.613C239.914,129.534,239.624,127.983,239.232,126.771z M239.656,129.766
		c-0.413,0-0.842,0.062-1.286,0.185v-0.068c0-0.343,0.007-0.514,0.021-0.514c0-1.252,0.103-2.273,0.307-3.063
		c0.067,0.028,0.151,0.153,0.254,0.376c0.47,1.608,0.704,2.628,0.704,3.058V129.766z"/>
	<path fill="#22211E" d="M245.488,131.871c-0.099-1.319-0.459-2.053-1.08-2.201c0.536-0.416,0.805-1.087,0.805-2.011v-0.212
		c0-0.278-0.12-0.709-0.359-1.291c-0.17-0.286-0.389-0.483-0.656-0.593c-0.216-0.035-0.343-0.077-0.381-0.127h-0.043l-0.085,0.063
		c0.113,0.871,0.205,2.275,0.275,4.212c-0.042,0-0.077,0.028-0.105,0.085v0.063c0.024,0.057,0.066,0.085,0.127,0.085v1.27
		c0,0.194,0.014,0.59,0.042,1.186l-0.021,0.148c0.049,0.057,0.084,0.084,0.105,0.084c0.057,0,0.099-0.027,0.127-0.084v-0.043
		c0-0.091-0.014-0.486-0.042-1.185v-0.805c0-0.148-0.008-0.374-0.021-0.678h0.021c0.169,0,0.366,0.106,0.593,0.318
		c0.324,0.557,0.486,1.101,0.486,1.629v0.763c0,0.141,0.007,0.353,0.021,0.635l0.084,0.063h0.063l0.063-0.042
		c-0.014-0.233-0.021-0.409-0.021-0.529V131.871z M244.176,129.564c-0.07-1.524-0.148-2.802-0.232-3.831h0.063
		c0.119,0,0.296,0.105,0.528,0.317c0.311,0.575,0.466,1.048,0.466,1.418v0.296C245.001,128.591,244.727,129.19,244.176,129.564z"/>
	<path fill="#22211E" d="M247.171,132.998c0-0.014-0.007-0.021-0.021-0.021c-0.1-1.306-0.148-2.456-0.148-3.45v-0.085
		c0.134,0,0.296-0.007,0.486-0.021c0.286,0.028,0.49,0.043,0.614,0.043c0.057,0,0.085-0.021,0.085-0.063v-0.063l-0.063-0.085
		c-0.148,0-0.382-0.014-0.699-0.042c-0.066,0.014-0.158,0.021-0.274,0.021h-0.148c-0.071-1.633-0.106-2.564-0.106-2.794
		l-0.021-0.254c0.243-0.014,0.384-0.021,0.423-0.021l0.614,0.064c0.046,0,0.081-0.036,0.105-0.106v-0.021
		c0-0.056-0.226-0.105-0.677-0.147c0,0.014-0.008,0.021-0.021,0.021l-0.042-0.021c-0.146,0.014-0.258,0.021-0.339,0.021h-0.233
		l-0.084,0.063c0,0.015,0.021,0.127,0.063,0.339c0,0.438,0.035,1.277,0.105,2.519v0.678c0,0.896,0.05,2.018,0.148,3.365
		c0,0.184,0.084,0.275,0.254,0.275c0.112-0.014,0.438-0.028,0.974-0.042c0.057-0.035,0.085-0.063,0.085-0.085v-0.021
		c-0.025-0.053-0.067-0.088-0.127-0.105C248.021,132.956,247.704,132.97,247.171,132.998z"/>
	<path fill="#22211E" d="M249.489,126.051c-0.057,0.035-0.085,0.063-0.085,0.084c0.043,0.265,0.063,0.562,0.063,0.89v0.593
		c-0.084,0.924-0.127,2.61-0.127,5.059c0,0.381,0.028,0.571,0.085,0.571h0.085c0.039,0,0.066-0.05,0.085-0.148
		c-0.028-0.112-0.043-0.184-0.043-0.211v-1.376c0-0.435,0.007-1.02,0.021-1.757c-0.015-0.057-0.021-0.113-0.021-0.17
		c0.085-1.149,0.127-1.862,0.127-2.138v-0.275c0-0.747-0.049-1.121-0.147-1.121H249.489z"/>
	<path fill="#22211E" d="M253.115,127.865c0-0.402,0.02-1.003,0.058-1.804l-0.121-0.063c-0.067,0-0.106,0.04-0.116,0.121v1.503
		c0,0.166-0.015,0.388-0.043,0.667c0,0.123,0.002,0.206,0.006,0.248c-0.019,0.367-0.027,0.582-0.027,0.646
		c0,0.211,0.041,1.174,0.122,2.889v0.18h-0.058c-0.604-1.831-0.946-2.974-1.027-3.429c-0.561-1.923-0.88-2.884-0.957-2.884
		c-0.067,0-0.108,0.04-0.122,0.122v3.667c0,0.974,0.04,2.076,0.122,3.307c0,0.078,0.038,0.116,0.116,0.116h0.121
		c-0.119-1.022-0.18-2.324-0.18-3.904c0-0.314,0.015-0.863,0.042-1.646l-0.005-0.18c0-0.169-0.013-0.402-0.037-0.698l0.006-0.116
		l0.042,0.068l0.556,1.91c0.921,3.126,1.422,4.688,1.503,4.688l0.116-0.059c-0.078-1.939-0.116-3.523-0.116-4.751V127.865z"/>
	<path fill="#22211E" d="M255.284,126.771c-0.141-0.406-0.312-0.654-0.513-0.746h-0.021c-0.138,0-0.24,0.164-0.307,0.492
		c-0.162,1.132-0.247,2.206-0.254,3.222c0,0.198,0.007,0.394,0.021,0.588c0,0.304-0.055,1.199-0.164,2.688
		c0,0.155,0.062,0.232,0.186,0.232c0.063-0.039,0.096-0.07,0.096-0.096c0-0.042-0.017-0.088-0.048-0.137l0.143-1.964v-0.82
		c0-0.084,0.381-0.162,1.144-0.232l0.164,0.021c0.108,0.825,0.18,1.293,0.211,1.402c0.113,1.012,0.198,1.573,0.254,1.683
		c0.078,0,0.126-0.023,0.144-0.069c0-0.462-0.062-1-0.186-1.613C255.966,129.534,255.676,127.983,255.284,126.771z M255.708,129.766
		c-0.413,0-0.842,0.062-1.286,0.185v-0.068c0-0.343,0.007-0.514,0.021-0.514c0-1.252,0.103-2.273,0.307-3.063
		c0.067,0.028,0.151,0.153,0.254,0.376c0.47,1.608,0.704,2.628,0.704,3.058V129.766z"/>
	<path fill="#22211E" d="M262.725,99.295c-0.057,0.035-0.084,0.063-0.084,0.085v0.063c0,0.028,0.014,0.042,0.042,0.042l-0.105,3.853
		c0,0.078,0.014,0.304,0.042,0.678c-0.042,0-0.07,0.028-0.085,0.084c0,0.043,0.028,0.078,0.085,0.106
		c0,0.066,0.007,0.229,0.021,0.486c0,0.071-0.008,0.177-0.021,0.317l0.063,0.89c-0.015,0-0.021,0.007-0.021,0.021
		c0.018,0.229,0.039,0.413,0.063,0.551c-0.014,0-0.021,0.007-0.021,0.021v0.147c0.035,0.057,0.063,0.085,0.084,0.085h0.043
		c0.042-0.018,0.084-0.081,0.127-0.19v-0.063c0-0.105-0.021-0.162-0.063-0.169c0-0.12-0.021-0.579-0.063-1.376
		c0-0.018,0.007-0.089,0.021-0.212c-0.014-0.123-0.021-0.278-0.021-0.466v-0.021c0-0.031,0.084-0.053,0.254-0.063
		c0.265-0.13,0.469-0.32,0.613-0.571c0.311-1.051,0.466-2.018,0.466-2.899c-0.014-0.188-0.042-0.35-0.085-0.487
		C263.836,99.599,263.385,99.295,262.725,99.295z M263.932,101.115c-0.152,1.581-0.35,2.448-0.593,2.604
		c-0.162,0.17-0.325,0.254-0.487,0.254l-0.042-0.021c0-0.113-0.007-0.317-0.021-0.614l0.106-3.831
		c0.158,0.028,0.3,0.063,0.423,0.105c0.424,0.297,0.635,0.628,0.635,0.995C263.952,100.688,263.945,100.858,263.932,101.115z"/>
	<path fill="#22211E" d="M266.164,100.248c-0.141-0.406-0.312-0.654-0.513-0.746h-0.021c-0.138,0-0.24,0.164-0.307,0.492
		c-0.162,1.132-0.247,2.206-0.254,3.222c0,0.198,0.007,0.394,0.021,0.588c0,0.304-0.055,1.199-0.164,2.688
		c0,0.155,0.062,0.232,0.186,0.232c0.063-0.039,0.096-0.07,0.096-0.096c0-0.042-0.017-0.088-0.048-0.137l0.143-1.964v-0.82
		c0-0.084,0.381-0.162,1.144-0.232l0.164,0.021c0.108,0.825,0.18,1.293,0.211,1.402c0.113,1.012,0.198,1.573,0.254,1.683
		c0.078,0,0.126-0.023,0.144-0.069c0-0.462-0.062-1-0.186-1.613C266.846,103.012,266.556,101.461,266.164,100.248z M266.588,103.243
		c-0.413,0-0.842,0.062-1.286,0.185v-0.068c0-0.343,0.007-0.514,0.021-0.514c0-1.252,0.103-2.273,0.307-3.063
		c0.067,0.028,0.151,0.153,0.254,0.376c0.47,1.608,0.704,2.628,0.704,3.058V103.243z"/>
	<path fill="#22211E" d="M270.965,99.824l-0.005-0.212l-0.054-0.101h-0.063c-0.698,2.029-1.047,3.119-1.047,3.271h-0.059
		c-0.822-2.233-1.275-3.363-1.36-3.392l-0.121,0.063c0.123,0.991,0.247,3.332,0.37,7.021c0,0.085,0.04,0.127,0.122,0.127
		l0.121-0.063l-0.307-6.101v-0.063h0.063c0.656,1.841,1.046,2.766,1.17,2.772c0.063-0.05,0.351-0.869,0.862-2.461h0.063v2.588
		c0.081,2.3,0.162,3.45,0.243,3.45l0.127-0.063c-0.123-2.089-0.186-3.3-0.186-3.636C270.906,102.154,270.926,101.087,270.965,99.824
		z"/>
	<path fill="#22211E" d="M272.107,99.295c-0.057,0.035-0.084,0.063-0.084,0.085v0.063c0,0.028,0.014,0.042,0.042,0.042l-0.105,3.853
		c0,0.078,0.014,0.304,0.042,0.678c-0.042,0-0.07,0.028-0.085,0.084c0,0.043,0.028,0.078,0.085,0.106
		c0,0.066,0.007,0.229,0.021,0.486c0,0.071-0.008,0.177-0.021,0.317l0.063,0.89c-0.015,0-0.021,0.007-0.021,0.021
		c0.018,0.229,0.039,0.413,0.063,0.551c-0.014,0-0.021,0.007-0.021,0.021v0.147c0.035,0.057,0.063,0.085,0.084,0.085h0.043
		c0.042-0.018,0.084-0.081,0.127-0.19v-0.063c0-0.105-0.021-0.162-0.063-0.169c0-0.12-0.021-0.579-0.063-1.376
		c0-0.018,0.007-0.089,0.021-0.212c-0.014-0.123-0.021-0.278-0.021-0.466v-0.021c0-0.031,0.084-0.053,0.254-0.063
		c0.265-0.13,0.469-0.32,0.613-0.571c0.311-1.051,0.466-2.018,0.466-2.899c-0.014-0.188-0.042-0.35-0.085-0.487
		C273.219,99.599,272.768,99.295,272.107,99.295z M273.314,101.115c-0.152,1.581-0.35,2.448-0.593,2.604
		c-0.162,0.17-0.325,0.254-0.487,0.254l-0.042-0.021c0-0.113-0.007-0.317-0.021-0.614l0.106-3.831
		c0.158,0.028,0.3,0.063,0.423,0.105c0.424,0.297,0.635,0.628,0.635,0.995C273.335,100.688,273.328,100.858,273.314,101.115z"/>
	<path fill="#22211E" d="M275.04,106.476c0-0.014-0.007-0.021-0.021-0.021c-0.1-1.306-0.148-2.456-0.148-3.45v-0.085
		c0.134,0,0.296-0.007,0.486-0.021c0.286,0.028,0.49,0.043,0.614,0.043c0.057,0,0.085-0.021,0.085-0.063v-0.063l-0.063-0.085
		c-0.148,0-0.382-0.014-0.699-0.042c-0.066,0.014-0.158,0.021-0.274,0.021h-0.148c-0.071-1.633-0.106-2.564-0.106-2.794
		l-0.021-0.254c0.243-0.014,0.384-0.021,0.423-0.021l0.614,0.064c0.046,0,0.081-0.036,0.105-0.106v-0.021
		c0-0.056-0.226-0.105-0.677-0.147c0,0.014-0.008,0.021-0.021,0.021l-0.042-0.021c-0.146,0.014-0.258,0.021-0.339,0.021h-0.233
		l-0.084,0.063c0,0.015,0.021,0.127,0.063,0.339c0,0.438,0.035,1.277,0.105,2.519v0.678c0,0.896,0.05,2.018,0.148,3.365
		c0,0.184,0.084,0.275,0.254,0.275c0.112-0.014,0.438-0.028,0.974-0.042c0.057-0.035,0.085-0.063,0.085-0.085v-0.021
		c-0.025-0.053-0.067-0.088-0.127-0.105C275.891,106.434,275.573,106.447,275.04,106.476z"/>
	<path fill="#22211E" d="M277.401,106.513v-1.841c0-0.604-0.021-1.076-0.064-1.419c0-1.058-0.049-2.356-0.147-3.895l-0.021-0.042
		c0.028,0,0.042-0.035,0.042-0.105c-0.035-0.057-0.063-0.085-0.084-0.085h-0.021c-0.077,0-0.127,0.035-0.148,0.105l0.063,0.699
		c0.057,1.23,0.113,2.776,0.17,4.635v1.545l0.021,0.255c-0.014,0-0.021,0.049-0.021,0.147v0.127
		c0.035,0.057,0.063,0.085,0.084,0.085h0.974c0.24,0,0.36-0.028,0.36-0.085v-0.063c-0.021-0.042-0.042-0.063-0.063-0.063H277.401z"
		/>
	<path fill="#22211E" d="M281.407,101.687c0-0.073,0.007-0.193,0.021-0.359c-0.015,0-0.021-0.007-0.021-0.021l0.021-0.127v-0.677
		c0-0.099-0.008-0.254-0.021-0.466c0.014,0,0.021-0.015,0.021-0.042c-0.025-0.396-0.067-0.593-0.127-0.593h-0.063l-0.085,0.063
		c0.028,0.204,0.049,0.401,0.063,0.593l-0.021,0.042l0.021,0.127v0.508c0,0.381-0.007,0.776-0.021,1.186
		c0.113,2.24,0.17,3.637,0.17,4.19c0,0.191-0.092,0.325-0.275,0.402c-0.258,0-0.448-0.473-0.571-1.418
		c-0.184-1.4-0.339-3.249-0.466-5.546v-0.105c0-0.077-0.035-0.134-0.106-0.169h-0.042l-0.085,0.063
		c0.142,2.363,0.29,4.148,0.445,5.354c0.127,1.354,0.381,2.032,0.762,2.032c0.328,0,0.512-0.204,0.55-0.614
		c0-0.437-0.056-1.884-0.169-4.339V101.687z"/>
	<path fill="#22211E" d="M285.043,101.343c0-0.402,0.02-1.003,0.058-1.804l-0.121-0.063c-0.067,0-0.106,0.04-0.116,0.121v1.503
		c0,0.166-0.015,0.388-0.043,0.667c0,0.123,0.002,0.206,0.006,0.248c-0.019,0.367-0.027,0.582-0.027,0.646
		c0,0.211,0.041,1.174,0.122,2.889v0.18h-0.058c-0.604-1.831-0.946-2.974-1.027-3.429c-0.561-1.923-0.88-2.884-0.957-2.884
		c-0.067,0-0.108,0.04-0.122,0.122v3.667c0,0.974,0.04,2.076,0.122,3.307c0,0.078,0.038,0.116,0.116,0.116h0.121
		c-0.119-1.022-0.18-2.324-0.18-3.904c0-0.314,0.015-0.863,0.042-1.646l-0.005-0.18c0-0.169-0.013-0.402-0.037-0.698l0.006-0.116
		l0.042,0.068l0.556,1.91c0.921,3.126,1.422,4.688,1.503,4.688l0.116-0.059c-0.078-1.939-0.116-3.523-0.116-4.751V101.343z"/>
	<path fill="#22211E" d="M286.704,106.476c0-0.014-0.007-0.021-0.021-0.021c-0.1-1.306-0.148-2.456-0.148-3.45v-0.085
		c0.134,0,0.296-0.007,0.486-0.021c0.286,0.028,0.49,0.043,0.614,0.043c0.057,0,0.085-0.021,0.085-0.063v-0.063l-0.063-0.085
		c-0.148,0-0.382-0.014-0.699-0.042c-0.066,0.014-0.158,0.021-0.274,0.021h-0.148c-0.071-1.633-0.106-2.564-0.106-2.794
		l-0.021-0.254c0.243-0.014,0.384-0.021,0.423-0.021l0.614,0.064c0.046,0,0.081-0.036,0.105-0.106v-0.021
		c0-0.056-0.226-0.105-0.677-0.147c0,0.014-0.008,0.021-0.021,0.021l-0.042-0.021c-0.146,0.014-0.258,0.021-0.339,0.021h-0.233
		l-0.084,0.063c0,0.015,0.021,0.127,0.063,0.339c0,0.438,0.035,1.277,0.105,2.519v0.678c0,0.896,0.05,2.018,0.148,3.365
		c0,0.184,0.084,0.275,0.254,0.275c0.112-0.014,0.438-0.028,0.974-0.042c0.057-0.035,0.085-0.063,0.085-0.085v-0.021
		c-0.025-0.053-0.067-0.088-0.127-0.105C287.555,106.434,287.237,106.447,286.704,106.476z"/>
	<path fill="#22211E" d="M206.515,98.989v-1.841c0-0.604-0.021-1.076-0.063-1.419c0-1.058-0.049-2.356-0.148-3.895l-0.021-0.042
		c0.028,0,0.042-0.035,0.042-0.105c-0.035-0.057-0.063-0.085-0.085-0.085h-0.021c-0.078,0-0.127,0.035-0.148,0.105l0.063,0.699
		c0.056,1.23,0.113,2.776,0.169,4.635v1.545l0.021,0.255c-0.014,0-0.021,0.049-0.021,0.147v0.127
		c0.035,0.057,0.063,0.085,0.084,0.085h0.974c0.24,0,0.36-0.028,0.36-0.085v-0.063c-0.021-0.042-0.042-0.063-0.063-0.063H206.515z"
		/>
	<path fill="#22211E" d="M209.563,91.941c-0.11,0-0.229,0.049-0.36,0.147c-0.494,0.766-0.741,2.142-0.741,4.128l0.063,0.868
		c0.127,1.188,0.445,1.845,0.953,1.968h0.148c0.053,0,0.151-0.028,0.296-0.084c0.409-0.346,0.614-1.264,0.614-2.752
		c0-0.011-0.007-0.053-0.021-0.127c0.014-0.018,0.021-0.067,0.021-0.148V95.92c0-0.081-0.007-0.13-0.021-0.147
		c0.014-0.078,0.021-0.142,0.021-0.19v-0.085c0-0.286-0.007-0.519-0.021-0.698C210.279,92.894,209.962,91.941,209.563,91.941z
		 M210.325,95.899c0,1.199-0.078,1.982-0.233,2.35c-0.081,0.395-0.265,0.593-0.55,0.593h-0.021c-0.155,0-0.332-0.198-0.529-0.593
		c-0.211-0.6-0.317-1.299-0.317-2.096c0-1.676,0.197-2.932,0.593-3.768c0.032-0.092,0.13-0.17,0.296-0.233
		c0.105,0.074,0.211,0.229,0.317,0.466c0.296,1.076,0.444,2.028,0.444,2.857V95.899z"/>
	<path fill="#22211E" d="M212.654,95.963h-0.063c-0.042,0.021-0.063,0.042-0.063,0.063v0.021l0.021,0.105
		c0,0.042,0.282,0.085,0.847,0.127c0-0.014,0.007-0.021,0.021-0.021l0.021,0.106v1.037c-0.092,0.847-0.162,1.27-0.211,1.27
		c0,0.162-0.127,0.269-0.381,0.317h-0.084c-0.243-0.099-0.406-0.232-0.487-0.402c-0.254-0.574-0.381-1.407-0.381-2.497
		c0-2.311,0.211-3.518,0.635-3.619h0.085c0.105,0,0.205,0.021,0.296,0.063c0.155,0.099,0.247,0.147,0.275,0.147
		c0.057-0.035,0.084-0.063,0.084-0.084v-0.043c-0.155-0.197-0.367-0.296-0.635-0.296h-0.042l-0.211,0.021
		c-0.466,0.201-0.699,1.465-0.699,3.789c0,1.231,0.155,2.142,0.466,2.73c0.18,0.216,0.384,0.35,0.614,0.402h0.084
		c0.212-0.042,0.318-0.077,0.318-0.105c0.229,0,0.392-0.558,0.487-1.673c0-0.014-0.007-0.035-0.021-0.063
		c0.014-0.145,0.021-0.257,0.021-0.338v-0.529c0-0.212-0.028-0.346-0.085-0.402C213.003,96.04,212.7,95.998,212.654,95.963z"/>
	<path fill="#22211E" d="M216.702,97.825c-0.099-1.319-0.459-2.053-1.08-2.201c0.536-0.416,0.805-1.087,0.805-2.011v-0.212
		c0-0.278-0.12-0.709-0.359-1.291c-0.17-0.286-0.389-0.483-0.656-0.593c-0.216-0.035-0.343-0.077-0.381-0.127h-0.043l-0.085,0.063
		c0.113,0.871,0.205,2.275,0.275,4.212c-0.042,0-0.077,0.028-0.105,0.085v0.063c0.024,0.057,0.066,0.085,0.127,0.085v1.27
		c0,0.194,0.014,0.59,0.042,1.186l-0.021,0.148c0.049,0.057,0.084,0.084,0.105,0.084c0.057,0,0.099-0.027,0.127-0.084V98.46
		c0-0.091-0.014-0.486-0.042-1.185v-0.805c0-0.148-0.008-0.374-0.021-0.678h0.021c0.169,0,0.366,0.106,0.593,0.318
		c0.324,0.557,0.486,1.101,0.486,1.629v0.763c0,0.141,0.007,0.353,0.021,0.635l0.084,0.063h0.063l0.063-0.042
		c-0.014-0.233-0.021-0.409-0.021-0.529V97.825z M215.39,95.519c-0.07-1.524-0.148-2.802-0.232-3.831h0.063
		c0.119,0,0.296,0.105,0.528,0.317c0.311,0.575,0.466,1.048,0.466,1.418v0.296C216.215,94.545,215.94,95.145,215.39,95.519z"/>
	<path fill="#22211E" d="M218.575,91.941c-0.109,0-0.229,0.049-0.359,0.147c-0.494,0.766-0.741,2.142-0.741,4.128l0.063,0.868
		c0.127,1.188,0.444,1.845,0.953,1.968h0.147c0.053,0,0.152-0.028,0.297-0.084c0.409-0.346,0.613-1.264,0.613-2.752
		c0-0.011-0.007-0.053-0.021-0.127c0.014-0.018,0.021-0.067,0.021-0.148V95.92c0-0.081-0.007-0.13-0.021-0.147
		c0.014-0.078,0.021-0.142,0.021-0.19v-0.085c0-0.286-0.007-0.519-0.021-0.698C219.292,92.894,218.974,91.941,218.575,91.941z
		 M219.338,95.899c0,1.199-0.078,1.982-0.233,2.35c-0.081,0.395-0.265,0.593-0.55,0.593h-0.021c-0.155,0-0.332-0.198-0.529-0.593
		c-0.212-0.6-0.317-1.299-0.317-2.096c0-1.676,0.197-2.932,0.593-3.768c0.031-0.092,0.13-0.17,0.296-0.233
		c0.106,0.074,0.212,0.229,0.317,0.466c0.297,1.076,0.445,2.028,0.445,2.857V95.899z"/>
	<path fill="#22211E" d="M222.768,93.819c0-0.402,0.02-1.003,0.058-1.804l-0.121-0.063c-0.067,0-0.106,0.04-0.116,0.121v1.503
		c0,0.166-0.015,0.388-0.043,0.667c0,0.123,0.002,0.206,0.006,0.248c-0.019,0.367-0.027,0.582-0.027,0.646
		c0,0.211,0.041,1.174,0.122,2.889v0.18h-0.058c-0.604-1.831-0.946-2.974-1.027-3.429c-0.561-1.923-0.88-2.884-0.957-2.884
		c-0.067,0-0.108,0.04-0.122,0.122v3.667c0,0.974,0.04,2.076,0.122,3.307c0,0.078,0.038,0.116,0.116,0.116h0.121
		c-0.119-1.022-0.18-2.324-0.18-3.904c0-0.314,0.015-0.863,0.042-1.646l-0.005-0.18c0-0.169-0.013-0.402-0.037-0.698l0.006-0.116
		l0.042,0.068l0.556,1.91c0.921,3.126,1.422,4.688,1.503,4.688l0.116-0.059c-0.078-1.939-0.116-3.523-0.116-4.751V93.819z"/>
	<path fill="#22211E" d="M224.619,91.941c-0.109,0-0.229,0.049-0.359,0.147c-0.494,0.766-0.741,2.142-0.741,4.128l0.063,0.868
		c0.127,1.188,0.444,1.845,0.953,1.968h0.147c0.053,0,0.152-0.028,0.297-0.084c0.409-0.346,0.613-1.264,0.613-2.752
		c0-0.011-0.007-0.053-0.021-0.127c0.014-0.018,0.021-0.067,0.021-0.148V95.92c0-0.081-0.007-0.13-0.021-0.147
		c0.014-0.078,0.021-0.142,0.021-0.19v-0.085c0-0.286-0.007-0.519-0.021-0.698C225.336,92.894,225.018,91.941,224.619,91.941z
		 M225.382,95.899c0,1.199-0.078,1.982-0.233,2.35c-0.081,0.395-0.265,0.593-0.55,0.593h-0.021c-0.155,0-0.332-0.198-0.529-0.593
		c-0.212-0.6-0.317-1.299-0.317-2.096c0-1.676,0.197-2.932,0.593-3.768c0.031-0.092,0.13-0.17,0.296-0.233
		c0.106,0.074,0.212,0.229,0.317,0.466c0.297,1.076,0.445,2.028,0.445,2.857V95.899z"/>
	<path fill="#22211E" d="M169.057,115.649v-0.021c0.074-0.095,0.116-0.145,0.127-0.147c0.381-0.564,0.606-1.094,0.677-1.588v-0.402
		c-0.099-0.917-0.367-1.375-0.804-1.375c-0.229,0-0.462,0.099-0.699,0.296c0.057,0.339,0.099,0.698,0.127,1.079
		c0,1.31,0.085,3.179,0.254,5.609c0,0.479,0.099,0.72,0.296,0.72h0.042c0.194-0.046,0.392-0.18,0.593-0.402
		c0.31-0.508,0.465-1.129,0.465-1.862c-0.067-0.582-0.194-1.013-0.381-1.291C169.576,115.96,169.343,115.756,169.057,115.649z
		 M169.671,118.973c-0.117,0.304-0.321,0.515-0.614,0.635l-0.085-0.084c-0.084-1.496-0.155-2.575-0.211-3.239
		c0-1.633-0.057-2.889-0.169-3.768c0.134-0.127,0.289-0.19,0.466-0.19c0.324,0,0.522,0.424,0.592,1.271v0.339
		c-0.137,0.631-0.434,1.202-0.889,1.714v0.063c0.049,0.085,0.134,0.127,0.254,0.127c0.328,0.19,0.54,0.424,0.635,0.698
		c0.071,0,0.163,0.339,0.275,1.017C169.925,118.027,169.84,118.5,169.671,118.973z"/>
	<path fill="#22211E" d="M173.047,114.781c0-0.073,0.007-0.193,0.021-0.359c-0.014,0-0.021-0.007-0.021-0.021l0.021-0.127v-0.677
		c0-0.099-0.007-0.254-0.021-0.466c0.014,0,0.021-0.015,0.021-0.042c-0.024-0.396-0.067-0.593-0.127-0.593h-0.063l-0.084,0.063
		c0.028,0.204,0.049,0.401,0.063,0.593l-0.021,0.042l0.021,0.127v0.508c0,0.381-0.007,0.776-0.021,1.186
		c0.113,2.24,0.169,3.637,0.169,4.19c0,0.191-0.092,0.325-0.275,0.402c-0.258,0-0.448-0.473-0.572-1.418
		c-0.183-1.4-0.338-3.249-0.465-5.546v-0.105c0-0.077-0.036-0.134-0.106-0.169h-0.042l-0.084,0.063
		c0.141,2.363,0.289,4.148,0.444,5.354c0.127,1.354,0.381,2.032,0.762,2.032c0.328,0,0.511-0.204,0.55-0.614
		c0-0.437-0.057-1.884-0.169-4.339V114.781z"/>
	<path fill="#22211E" d="M176.191,118.443c-0.099-1.319-0.459-2.053-1.08-2.201c0.536-0.416,0.804-1.087,0.804-2.011v-0.212
		c0-0.278-0.12-0.709-0.36-1.291c-0.169-0.286-0.388-0.483-0.656-0.593c-0.215-0.035-0.342-0.077-0.381-0.127h-0.042l-0.084,0.063
		c0.113,0.871,0.205,2.275,0.275,4.212c-0.042,0-0.078,0.028-0.106,0.085v0.063c0.024,0.057,0.067,0.085,0.127,0.085v1.27
		c0,0.194,0.014,0.59,0.042,1.186l-0.021,0.148c0.049,0.057,0.085,0.084,0.106,0.084c0.056,0,0.099-0.027,0.127-0.084v-0.043
		c0-0.091-0.014-0.486-0.042-1.185v-0.805c0-0.148-0.007-0.374-0.021-0.678h0.021c0.169,0,0.367,0.106,0.593,0.318
		c0.325,0.557,0.487,1.101,0.487,1.629v0.763c0,0.141,0.007,0.353,0.021,0.635l0.085,0.063h0.063l0.063-0.042
		c-0.014-0.233-0.021-0.409-0.021-0.529V118.443z M174.878,116.137c-0.071-1.524-0.148-2.802-0.233-3.831h0.063
		c0.12,0,0.296,0.105,0.529,0.317c0.311,0.575,0.466,1.048,0.466,1.418v0.296C175.704,115.163,175.429,115.763,174.878,116.137z"/>
	<path fill="#22211E" d="M178.297,116.581h-0.063c-0.042,0.021-0.063,0.042-0.063,0.063v0.021l0.021,0.105
		c0,0.042,0.282,0.085,0.847,0.127c0-0.014,0.007-0.021,0.021-0.021l0.021,0.106v1.037c-0.092,0.847-0.162,1.27-0.211,1.27
		c0,0.162-0.127,0.269-0.381,0.317h-0.084c-0.243-0.099-0.406-0.232-0.487-0.402c-0.254-0.574-0.381-1.407-0.381-2.497
		c0-2.311,0.211-3.518,0.635-3.619h0.085c0.105,0,0.205,0.021,0.296,0.063c0.155,0.099,0.247,0.147,0.275,0.147
		c0.057-0.035,0.084-0.063,0.084-0.084v-0.043c-0.155-0.197-0.367-0.296-0.635-0.296h-0.042l-0.211,0.021
		c-0.466,0.201-0.699,1.465-0.699,3.789c0,1.231,0.155,2.142,0.466,2.73c0.18,0.216,0.384,0.35,0.614,0.402h0.084
		c0.212-0.042,0.318-0.077,0.318-0.105c0.229,0,0.392-0.558,0.487-1.673c0-0.014-0.007-0.035-0.021-0.063
		c0.014-0.145,0.021-0.257,0.021-0.338v-0.529c0-0.212-0.028-0.346-0.085-0.402C178.647,116.658,178.343,116.616,178.297,116.581z"
		/>
	<path fill="#22211E" d="M181.505,112.56c-0.11,0-0.229,0.049-0.36,0.147c-0.494,0.766-0.741,2.142-0.741,4.128l0.063,0.868
		c0.127,1.188,0.445,1.845,0.953,1.968h0.148c0.053,0,0.151-0.028,0.296-0.084c0.409-0.346,0.614-1.264,0.614-2.752
		c0-0.011-0.007-0.053-0.021-0.127c0.014-0.018,0.021-0.067,0.021-0.148v-0.021c0-0.081-0.007-0.13-0.021-0.147
		c0.014-0.078,0.021-0.142,0.021-0.19v-0.085c0-0.286-0.007-0.519-0.021-0.698C182.221,113.512,181.903,112.56,181.505,112.56z
		 M182.267,116.518c0,1.199-0.078,1.982-0.233,2.35c-0.081,0.395-0.265,0.593-0.55,0.593h-0.021c-0.155,0-0.332-0.198-0.529-0.593
		c-0.211-0.6-0.317-1.299-0.317-2.096c0-1.676,0.197-2.932,0.593-3.768c0.032-0.092,0.13-0.17,0.296-0.233
		c0.105,0.074,0.211,0.229,0.317,0.466c0.296,1.076,0.444,2.028,0.444,2.857V116.518z"/>
	<path fill="#22211E" d="M183.696,115.464c-0.198-0.521-0.296-0.899-0.296-1.132c0-0.378,0.057-0.72,0.169-1.026
		c0.134-0.279,0.388-0.418,0.762-0.418h0.212c0.07-0.05,0.106-0.083,0.106-0.101v-0.037l-0.063-0.08
		c-0.568,0-0.949,0.14-1.143,0.419c-0.169,0.353-0.254,0.755-0.254,1.206c0.014,0.113,0.021,0.205,0.021,0.275
		c0.127,0.589,0.254,0.952,0.381,1.09c0.187,0.269,0.469,0.545,0.847,0.831c0.48,0.512,0.72,1.033,0.72,1.566
		c0,0.405-0.063,0.735-0.19,0.989c0,0.194-0.233,0.379-0.699,0.556c-0.155,0.014-0.232,0.04-0.232,0.079v0.059
		c0.024,0.053,0.074,0.079,0.148,0.079s0.173-0.033,0.296-0.101c0.346-0.127,0.557-0.278,0.635-0.455
		c0.169-0.374,0.254-0.757,0.254-1.148c0-0.493-0.177-0.994-0.529-1.503C184.147,115.988,183.766,115.605,183.696,115.464z"/>
	<path fill="#22211E" d="M132.168,82.022v-1.841c0-0.604-0.021-1.076-0.063-1.419c0-1.058-0.049-2.356-0.148-3.895l-0.021-0.042
		c0.028,0,0.042-0.035,0.042-0.105c-0.035-0.057-0.063-0.085-0.085-0.085h-0.021c-0.078,0-0.127,0.035-0.148,0.105l0.063,0.699
		c0.056,1.23,0.113,2.776,0.169,4.635v1.545l0.021,0.255c-0.014,0-0.021,0.049-0.021,0.147v0.127
		c0.035,0.057,0.063,0.085,0.084,0.085h0.974c0.24,0,0.36-0.028,0.36-0.085v-0.063c-0.021-0.042-0.042-0.063-0.063-0.063H132.168z"
		/>
	<path fill="#22211E" d="M135.026,81.985c0-0.014-0.007-0.021-0.021-0.021c-0.099-1.306-0.148-2.456-0.148-3.45V78.43
		c0.134,0,0.296-0.007,0.487-0.021c0.286,0.028,0.49,0.043,0.614,0.043c0.056,0,0.084-0.021,0.084-0.063v-0.063l-0.063-0.085
		c-0.148,0-0.381-0.014-0.698-0.042c-0.067,0.014-0.159,0.021-0.275,0.021h-0.148c-0.071-1.633-0.106-2.564-0.106-2.794
		l-0.021-0.254c0.244-0.014,0.385-0.021,0.423-0.021l0.614,0.064c0.045,0,0.081-0.036,0.105-0.106v-0.021
		c0-0.056-0.226-0.105-0.677-0.147c0,0.014-0.007,0.021-0.021,0.021l-0.042-0.021c-0.145,0.014-0.257,0.021-0.338,0.021h-0.233
		l-0.085,0.063c0,0.015,0.021,0.127,0.063,0.339c0,0.438,0.035,1.277,0.106,2.519v0.678c0,0.896,0.049,2.018,0.148,3.365
		c0,0.184,0.084,0.275,0.254,0.275c0.113-0.014,0.437-0.028,0.974-0.042c0.056-0.035,0.084-0.063,0.084-0.085v-0.021
		c-0.024-0.053-0.067-0.088-0.127-0.105C135.876,81.943,135.559,81.957,135.026,81.985z"/>
	<path fill="#22211E" d="M137.826,74.975c-0.11,0-0.229,0.049-0.36,0.147c-0.494,0.766-0.741,2.142-0.741,4.128l0.063,0.868
		c0.127,1.188,0.445,1.845,0.953,1.968h0.148c0.053,0,0.151-0.028,0.296-0.084c0.409-0.346,0.614-1.264,0.614-2.752
		c0-0.011-0.007-0.053-0.021-0.127c0.014-0.018,0.021-0.067,0.021-0.148v-0.021c0-0.081-0.007-0.13-0.021-0.147
		c0.014-0.078,0.021-0.142,0.021-0.19V78.53c0-0.286-0.007-0.519-0.021-0.698C138.542,75.927,138.225,74.975,137.826,74.975z
		 M138.588,78.933c0,1.199-0.078,1.982-0.233,2.35c-0.081,0.395-0.265,0.593-0.55,0.593h-0.021c-0.155,0-0.332-0.198-0.529-0.593
		c-0.211-0.6-0.317-1.299-0.317-2.096c0-1.676,0.197-2.932,0.593-3.768c0.032-0.092,0.13-0.17,0.296-0.233
		c0.105,0.074,0.211,0.229,0.317,0.466c0.296,1.076,0.444,2.028,0.444,2.857V78.933z"/>
	<path fill="#22211E" d="M142.017,76.853c0-0.402,0.02-1.003,0.059-1.804l-0.122-0.063c-0.067,0-0.105,0.04-0.116,0.121v1.503
		c0,0.166-0.014,0.388-0.042,0.667c0,0.123,0.002,0.206,0.005,0.248c-0.018,0.367-0.026,0.582-0.026,0.646
		c0,0.211,0.041,1.174,0.122,2.889v0.18h-0.058c-0.603-1.831-0.945-2.974-1.026-3.429c-0.561-1.923-0.88-2.884-0.958-2.884
		c-0.067,0-0.107,0.04-0.122,0.122v3.667c0,0.974,0.041,2.076,0.122,3.307c0,0.078,0.039,0.116,0.116,0.116h0.122
		c-0.12-1.022-0.18-2.324-0.18-3.904c0-0.314,0.014-0.863,0.042-1.646l-0.005-0.18c0-0.169-0.012-0.402-0.037-0.698l0.005-0.116
		l0.042,0.068l0.556,1.91c0.92,3.126,1.421,4.688,1.502,4.688l0.117-0.059c-0.078-1.939-0.117-3.523-0.117-4.751V76.853z"/>
	<path fill="#22211E" d="M96.459,97.117c-0.141-0.406-0.312-0.654-0.513-0.746h-0.021c-0.138,0-0.24,0.164-0.307,0.492
		c-0.163,1.132-0.247,2.206-0.254,3.222c0,0.198,0.007,0.394,0.021,0.588c0,0.304-0.055,1.199-0.164,2.688
		c0,0.155,0.062,0.232,0.185,0.232c0.063-0.039,0.095-0.07,0.095-0.096c0-0.042-0.016-0.088-0.047-0.137l0.143-1.964v-0.82
		c0-0.084,0.381-0.162,1.143-0.232l0.164,0.021c0.109,0.825,0.18,1.293,0.212,1.402c0.113,1.012,0.197,1.573,0.254,1.683
		c0.078,0,0.125-0.023,0.143-0.069c0-0.462-0.062-1-0.185-1.613C97.14,99.881,96.851,98.33,96.459,97.117z M96.883,100.112
		c-0.413,0-0.841,0.062-1.286,0.185v-0.068c0-0.343,0.007-0.514,0.021-0.514c0-1.252,0.102-2.273,0.307-3.063
		c0.067,0.028,0.152,0.153,0.254,0.376c0.469,1.608,0.704,2.628,0.704,3.058V100.112z"/>
	<path fill="#22211E" d="M98.952,99.238c-0.198-0.521-0.296-0.899-0.296-1.132c0-0.378,0.057-0.72,0.169-1.026
		c0.134-0.279,0.388-0.418,0.762-0.418h0.212c0.07-0.05,0.106-0.083,0.106-0.101v-0.037l-0.063-0.08
		c-0.568,0-0.949,0.14-1.143,0.419c-0.169,0.353-0.254,0.755-0.254,1.206c0.014,0.113,0.021,0.205,0.021,0.275
		c0.127,0.589,0.254,0.952,0.381,1.09c0.187,0.269,0.469,0.545,0.847,0.831c0.48,0.512,0.72,1.033,0.72,1.566
		c0,0.405-0.063,0.735-0.19,0.989c0,0.194-0.233,0.379-0.699,0.556c-0.155,0.014-0.232,0.04-0.232,0.079v0.059
		c0.024,0.053,0.074,0.079,0.148,0.079s0.173-0.033,0.296-0.101c0.346-0.127,0.557-0.278,0.635-0.455
		c0.169-0.374,0.254-0.757,0.254-1.148c0-0.493-0.177-0.994-0.529-1.503C99.404,99.763,99.022,99.38,98.952,99.238z"/>
	<path fill="#22211E" d="M102.747,96.741h-0.868c-0.109,0-0.3,0.013-0.571,0.037c-0.014,0-0.071-0.013-0.169-0.037
		c-0.057,0.028-0.084,0.053-0.084,0.074c0,0.063,0.021,0.118,0.063,0.164l0.677-0.059h0.063l0.042,0.021
		c0.028,0.367,0.042,0.774,0.042,1.223c0.127,2.744,0.19,4.269,0.19,4.571c-0.014,0.109-0.021,0.177-0.021,0.201
		c0.042,0.05,0.071,0.074,0.084,0.074h0.085c0.021,0,0.042-0.024,0.063-0.074l-0.021-0.127c0-0.014,0.007-0.031,0.021-0.053
		c0-0.015-0.007-0.033-0.021-0.059c0-0.924-0.063-2.453-0.191-4.588c0-0.011,0.007-0.06,0.021-0.147l-0.042-0.969
		c0.021-0.05,0.042-0.074,0.063-0.074h0.593c0.395,0,0.593-0.03,0.593-0.09v-0.053l-0.063-0.074
		C103.11,96.729,102.927,96.741,102.747,96.741z"/>
	<path fill="#22211E" d="M105.054,96.334c-0.11,0-0.229,0.049-0.36,0.147c-0.494,0.766-0.741,2.142-0.741,4.128l0.063,0.868
		c0.127,1.188,0.445,1.845,0.953,1.968h0.148c0.053,0,0.151-0.028,0.296-0.084c0.409-0.346,0.614-1.264,0.614-2.752
		c0-0.011-0.007-0.053-0.021-0.127c0.014-0.018,0.021-0.067,0.021-0.148v-0.021c0-0.081-0.007-0.13-0.021-0.147
		c0.014-0.078,0.021-0.142,0.021-0.19V99.89c0-0.286-0.007-0.519-0.021-0.698C105.77,97.286,105.453,96.334,105.054,96.334z
		 M105.816,100.292c0,1.199-0.078,1.982-0.233,2.35c-0.081,0.395-0.265,0.593-0.55,0.593h-0.021c-0.155,0-0.332-0.198-0.529-0.593
		c-0.211-0.6-0.317-1.299-0.317-2.096c0-1.676,0.197-2.932,0.593-3.768c0.032-0.092,0.13-0.17,0.296-0.233
		c0.105,0.074,0.211,0.229,0.317,0.466c0.296,1.076,0.444,2.028,0.444,2.857V100.292z"/>
	<path fill="#22211E" d="M108.753,102.218c-0.099-1.319-0.459-2.053-1.08-2.201c0.536-0.416,0.804-1.087,0.804-2.011v-0.212
		c0-0.278-0.12-0.709-0.36-1.291c-0.169-0.286-0.388-0.483-0.656-0.593c-0.215-0.035-0.342-0.077-0.381-0.127h-0.042l-0.084,0.063
		c0.113,0.871,0.205,2.275,0.275,4.212c-0.042,0-0.078,0.028-0.106,0.085v0.063c0.024,0.057,0.067,0.085,0.127,0.085v1.27
		c0,0.194,0.014,0.59,0.042,1.186l-0.021,0.148c0.049,0.057,0.085,0.084,0.106,0.084c0.056,0,0.099-0.027,0.127-0.084v-0.043
		c0-0.091-0.014-0.486-0.042-1.185v-0.805c0-0.148-0.007-0.374-0.021-0.678h0.021c0.169,0,0.367,0.106,0.593,0.318
		c0.325,0.557,0.487,1.101,0.487,1.629v0.763c0,0.141,0.007,0.353,0.021,0.635l0.085,0.063h0.063l0.063-0.042
		c-0.014-0.233-0.021-0.409-0.021-0.529V102.218z M107.441,99.911c-0.071-1.524-0.148-2.802-0.233-3.831h0.063
		c0.12,0,0.296,0.105,0.529,0.317c0.311,0.575,0.466,1.048,0.466,1.418v0.296C108.267,98.938,107.991,99.537,107.441,99.911z"/>
	<path fill="#22211E" d="M110.86,100.355h-0.063c-0.042,0.021-0.063,0.042-0.063,0.063v0.021l0.021,0.105
		c0,0.042,0.282,0.085,0.847,0.127c0-0.014,0.007-0.021,0.021-0.021l0.021,0.106v1.037c-0.092,0.847-0.162,1.27-0.211,1.27
		c0,0.162-0.127,0.269-0.381,0.317h-0.084c-0.243-0.099-0.406-0.232-0.487-0.402c-0.254-0.574-0.381-1.407-0.381-2.497
		c0-2.311,0.211-3.518,0.635-3.619h0.085c0.105,0,0.205,0.021,0.296,0.063c0.155,0.099,0.247,0.147,0.275,0.147
		c0.057-0.035,0.084-0.063,0.084-0.084v-0.043c-0.155-0.197-0.367-0.296-0.635-0.296h-0.042l-0.211,0.021
		c-0.466,0.201-0.699,1.465-0.699,3.789c0,1.231,0.155,2.142,0.466,2.73c0.18,0.216,0.384,0.35,0.614,0.402h0.084
		c0.212-0.042,0.318-0.077,0.318-0.105c0.229,0,0.392-0.558,0.487-1.673c0-0.014-0.007-0.035-0.021-0.063
		c0.014-0.145,0.021-0.257,0.021-0.338v-0.529c0-0.212-0.028-0.346-0.085-0.402C111.209,100.433,110.906,100.391,110.86,100.355z"/>
	<path fill="#22211E" d="M114.385,97.117c-0.141-0.406-0.312-0.654-0.513-0.746h-0.021c-0.138,0-0.24,0.164-0.307,0.492
		c-0.163,1.132-0.247,2.206-0.254,3.222c0,0.198,0.007,0.394,0.021,0.588c0,0.304-0.055,1.199-0.164,2.688
		c0,0.155,0.062,0.232,0.185,0.232c0.063-0.039,0.095-0.07,0.095-0.096c0-0.042-0.016-0.088-0.047-0.137l0.143-1.964v-0.82
		c0-0.084,0.381-0.162,1.143-0.232l0.164,0.021c0.109,0.825,0.18,1.293,0.212,1.402c0.113,1.012,0.197,1.573,0.254,1.683
		c0.078,0,0.125-0.023,0.143-0.069c0-0.462-0.062-1-0.185-1.613C115.065,99.881,114.776,98.33,114.385,97.117z M114.808,100.112
		c-0.413,0-0.841,0.062-1.286,0.185v-0.068c0-0.343,0.007-0.514,0.021-0.514c0-1.252,0.102-2.273,0.307-3.063
		c0.067,0.028,0.152,0.153,0.254,0.376c0.469,1.608,0.704,2.628,0.704,3.058V100.112z"/>
	<path fill="#22211E" d="M83.38,62.054c-0.057,0.035-0.085,0.063-0.085,0.084v0.063c0,0.028,0.014,0.042,0.042,0.042l-0.106,3.852
		c0,0.078,0.014,0.304,0.042,0.677c-0.042,0-0.071,0.028-0.085,0.085c0,0.042,0.028,0.078,0.085,0.105
		c0,0.067,0.007,0.229,0.021,0.487c0,0.07-0.007,0.176-0.021,0.317l0.063,0.889c-0.014,0-0.021,0.007-0.021,0.021
		c0.018,0.229,0.039,0.413,0.063,0.55c-0.014,0-0.021,0.007-0.021,0.021v0.148c0.035,0.056,0.063,0.084,0.085,0.084h0.042
		c0.042-0.018,0.085-0.081,0.127-0.19v-0.063c0-0.106-0.021-0.162-0.063-0.169c0-0.12-0.021-0.579-0.063-1.376
		c0-0.018,0.007-0.088,0.021-0.211c-0.014-0.124-0.021-0.279-0.021-0.466v-0.021c0-0.032,0.085-0.053,0.254-0.063
		c0.265-0.13,0.469-0.321,0.614-0.572c0.31-1.051,0.465-2.018,0.465-2.899c-0.014-0.187-0.042-0.35-0.084-0.487
		C84.491,62.357,84.04,62.054,83.38,62.054z M84.586,63.875c-0.151,1.58-0.349,2.448-0.592,2.603
		c-0.163,0.169-0.325,0.254-0.487,0.254l-0.042-0.021c0-0.113-0.007-0.317-0.021-0.614l0.105-3.831
		c0.159,0.028,0.3,0.063,0.423,0.106c0.423,0.296,0.635,0.628,0.635,0.995C84.608,63.447,84.601,63.617,84.586,63.875z"/>
	<path fill="#22211E" d="M86.503,62.223c-0.11,0-0.229,0.05-0.36,0.148c-0.494,0.766-0.741,2.141-0.741,4.127l0.063,0.868
		c0.127,1.189,0.445,1.845,0.953,1.969h0.148c0.053,0,0.151-0.028,0.296-0.085c0.409-0.346,0.614-1.263,0.614-2.751
		c0-0.011-0.007-0.053-0.021-0.127c0.014-0.018,0.021-0.067,0.021-0.148v-0.021c0-0.081-0.007-0.13-0.021-0.148
		c0.014-0.077,0.021-0.141,0.021-0.19v-0.084c0-0.286-0.007-0.519-0.021-0.699C87.219,63.176,86.901,62.223,86.503,62.223z
		 M87.265,66.182c0,1.199-0.078,1.982-0.233,2.349c-0.081,0.396-0.265,0.593-0.55,0.593H86.46c-0.155,0-0.332-0.197-0.529-0.593
		c-0.211-0.6-0.317-1.298-0.317-2.095c0-1.676,0.197-2.932,0.593-3.768c0.032-0.092,0.13-0.169,0.296-0.233
		c0.105,0.074,0.211,0.229,0.317,0.466c0.296,1.076,0.444,2.028,0.444,2.857V66.182z"/>
	<path fill="#22211E" d="M90.694,64.102c0-0.402,0.02-1.004,0.059-1.805l-0.122-0.063c-0.067,0-0.105,0.041-0.116,0.122v1.503
		c0,0.166-0.014,0.388-0.042,0.667c0,0.124,0.002,0.206,0.005,0.249c-0.018,0.367-0.026,0.582-0.026,0.646
		c0,0.212,0.041,1.175,0.122,2.889v0.18h-0.058c-0.603-1.831-0.945-2.974-1.026-3.429c-0.561-1.922-0.88-2.884-0.958-2.884
		c-0.067,0-0.107,0.041-0.122,0.122v3.667c0,0.974,0.041,2.076,0.122,3.308c0,0.078,0.039,0.116,0.116,0.116h0.122
		c-0.12-1.023-0.18-2.325-0.18-3.905c0-0.314,0.014-0.862,0.042-1.646l-0.005-0.18c0-0.169-0.012-0.402-0.037-0.698l0.005-0.117
		l0.042,0.069l0.556,1.91c0.92,3.126,1.421,4.688,1.502,4.688l0.117-0.058c-0.078-1.94-0.117-3.524-0.117-4.752V64.102z"/>
	<path fill="#22211E" d="M93.187,65.414h-0.55c-0.205,0-0.417,0.014-0.635,0.042l-0.021-0.254v-0.021l-0.106-2.646
		c0.441,0,0.843,0.007,1.207,0.021c0.084,0,0.127-0.049,0.127-0.148l-0.042-0.063c-0.268,0-0.691-0.014-1.27-0.042
		c-0.099,0-0.177,0.021-0.233,0.063c0,0.515,0.028,1.327,0.084,2.434l0.021,0.042h-0.021c0.032,0,0.074,1.481,0.127,4.445
		c0.035,0.057,0.063,0.084,0.085,0.084h0.063c0.042-0.021,0.063-0.042,0.063-0.063v-0.232l-0.021-0.212
		c0.014,0,0.021-0.007,0.021-0.021l-0.021-0.127v-0.233c-0.028-1.489-0.042-2.335-0.042-2.54V65.71c0-0.056,0.176-0.084,0.529-0.084
		h0.593l0.106-0.085C93.236,65.457,93.215,65.414,93.187,65.414z"/>
	<path fill="#22211E" d="M95.971,69.319v-0.021c-0.024-0.053-0.067-0.088-0.127-0.106c-0.103,0-0.42,0.014-0.953,0.042
		c0-0.014-0.007-0.021-0.021-0.021c-0.099-1.305-0.148-2.455-0.148-3.45v-0.084c0.134,0,0.296-0.007,0.487-0.021
		c0.286,0.028,0.49,0.042,0.614,0.042c0.056,0,0.084-0.021,0.084-0.063v-0.063l-0.063-0.084c-0.148,0-0.381-0.014-0.698-0.042
		c-0.067,0.014-0.159,0.021-0.275,0.021h-0.148c-0.071-1.633-0.106-2.565-0.106-2.794l-0.021-0.254
		c0.244-0.014,0.385-0.021,0.423-0.021l0.614,0.063c0.045,0,0.081-0.035,0.105-0.106v-0.021c0-0.057-0.226-0.106-0.677-0.148
		c0,0.014-0.007,0.021-0.021,0.021l-0.042-0.021c-0.145,0.014-0.257,0.021-0.338,0.021h-0.233l-0.085,0.063
		c0,0.014,0.021,0.127,0.063,0.338c0,0.438,0.035,1.277,0.106,2.519v0.677c0,0.896,0.049,2.018,0.148,3.366
		c0,0.183,0.084,0.275,0.254,0.275c0.113-0.014,0.437-0.028,0.974-0.042C95.942,69.369,95.971,69.34,95.971,69.319z"/>
	<path fill="#22211E" d="M98.553,69.441c-0.014-0.233-0.021-0.409-0.021-0.529v-0.805c-0.099-1.319-0.459-2.053-1.08-2.201
		c0.536-0.416,0.804-1.086,0.804-2.011v-0.212c0-0.278-0.12-0.709-0.36-1.291c-0.169-0.286-0.388-0.483-0.656-0.593
		c-0.215-0.035-0.342-0.077-0.381-0.127h-0.042l-0.084,0.063c0.113,0.872,0.205,2.275,0.275,4.212c-0.042,0-0.078,0.028-0.106,0.084
		v0.063c0.024,0.057,0.067,0.085,0.127,0.085v1.27c0,0.194,0.014,0.589,0.042,1.185l-0.021,0.148
		c0.049,0.057,0.085,0.085,0.106,0.085c0.056,0,0.099-0.028,0.127-0.085v-0.042c0-0.092-0.014-0.487-0.042-1.186v-0.804
		c0-0.148-0.007-0.374-0.021-0.677h0.021c0.169,0,0.367,0.106,0.593,0.317c0.325,0.558,0.487,1.101,0.487,1.63v0.762
		c0,0.142,0.007,0.353,0.021,0.635l0.085,0.063h0.063L98.553,69.441z M97.22,65.8c-0.071-1.524-0.148-2.801-0.233-3.831h0.063
		c0.12,0,0.296,0.106,0.529,0.317c0.311,0.575,0.466,1.048,0.466,1.418v0.296C98.045,64.827,97.77,65.427,97.22,65.8z"/>
	<path fill="#22211E" d="M101.057,69.42l0.085,0.063h0.063l0.063-0.042c-0.014-0.233-0.021-0.409-0.021-0.529v-0.805
		c-0.099-1.319-0.459-2.053-1.08-2.201c0.536-0.416,0.804-1.086,0.804-2.011v-0.212c0-0.278-0.12-0.709-0.36-1.291
		c-0.169-0.286-0.388-0.483-0.656-0.593c-0.215-0.035-0.342-0.077-0.381-0.127h-0.042l-0.084,0.063
		c0.113,0.872,0.205,2.275,0.275,4.212c-0.042,0-0.078,0.028-0.106,0.084v0.063c0.024,0.057,0.067,0.085,0.127,0.085v1.27
		c0,0.194,0.014,0.589,0.042,1.185l-0.021,0.148c0.049,0.057,0.085,0.085,0.106,0.085c0.056,0,0.099-0.028,0.127-0.085v-0.042
		c0-0.092-0.014-0.487-0.042-1.186v-0.804c0-0.148-0.007-0.374-0.021-0.677h0.021c0.169,0,0.367,0.106,0.593,0.317
		c0.325,0.558,0.487,1.101,0.487,1.63v0.762C101.036,68.926,101.043,69.138,101.057,69.42z M99.935,65.8
		c-0.071-1.524-0.148-2.801-0.233-3.831h0.063c0.12,0,0.296,0.106,0.529,0.317c0.311,0.575,0.466,1.048,0.466,1.418v0.296
		C100.761,64.827,100.485,65.427,99.935,65.8z"/>
	<path fill="#22211E" d="M104.349,69.34c0.078,0,0.125-0.023,0.143-0.068c0-0.462-0.062-1-0.185-1.614
		c-0.187-1.887-0.476-3.438-0.868-4.651c-0.141-0.405-0.312-0.654-0.513-0.746h-0.021c-0.138,0-0.24,0.164-0.307,0.492
		c-0.163,1.132-0.247,2.207-0.254,3.223c0,0.198,0.007,0.394,0.021,0.587c0,0.303-0.055,1.199-0.164,2.688
		c0,0.155,0.062,0.233,0.185,0.233c0.063-0.039,0.095-0.07,0.095-0.095c0-0.042-0.016-0.088-0.047-0.138l0.143-1.963v-0.82
		c0-0.085,0.381-0.162,1.143-0.233l0.164,0.021c0.109,0.826,0.18,1.293,0.212,1.402C104.208,68.67,104.292,69.231,104.349,69.34z
		 M103.862,66.001c-0.413,0-0.841,0.062-1.286,0.185v-0.068c0-0.342,0.007-0.514,0.021-0.514c0-1.252,0.102-2.273,0.307-3.063
		c0.067,0.028,0.152,0.153,0.254,0.375c0.469,1.609,0.704,2.628,0.704,3.059V66.001z"/>
	<path fill="#22211E" d="M107.63,65.822c0-0.97-0.226-1.916-0.677-2.836c-0.3-0.536-0.73-0.896-1.292-1.08h-0.021l0.106,4.127
		c-0.014,0.458-0.021,0.967-0.021,1.524v0.021l0.021,0.042h-0.021c0.014,0.593,0.042,1.051,0.085,1.376l-0.021,0.042
		c0.018,0.226,0.046,0.338,0.085,0.338c0.042,0,0.127-0.021,0.254-0.063c1.002-0.875,1.503-2.003,1.503-3.387V65.822z
		 M107.418,65.991c0,0.632-0.162,1.309-0.487,2.032c-0.279,0.452-0.582,0.818-0.91,1.101c-0.056-0.593-0.084-1.157-0.084-1.693
		v-0.254c0-0.398,0.007-0.787,0.021-1.164c-0.042-0.917-0.07-2.173-0.084-3.768v-0.021c0.278,0.092,0.575,0.374,0.889,0.847
		c0.438,0.921,0.656,1.824,0.656,2.709V65.991z"/>
	<path fill="#22211E" d="M110.165,66.255c0.109,0.826,0.18,1.293,0.212,1.402c0.113,1.013,0.197,1.574,0.254,1.683
		c0.078,0,0.125-0.023,0.143-0.068c0-0.462-0.062-1-0.185-1.614c-0.187-1.887-0.476-3.438-0.868-4.651
		c-0.141-0.405-0.312-0.654-0.513-0.746h-0.021c-0.138,0-0.24,0.164-0.307,0.492c-0.163,1.132-0.247,2.207-0.254,3.223
		c0,0.198,0.007,0.394,0.021,0.587c0,0.303-0.055,1.199-0.164,2.688c0,0.155,0.062,0.233,0.185,0.233
		c0.063-0.039,0.095-0.07,0.095-0.095c0-0.042-0.016-0.088-0.047-0.138l0.143-1.963v-0.82c0-0.085,0.381-0.162,1.143-0.233
		L110.165,66.255z M108.857,66.118c0-0.342,0.007-0.514,0.021-0.514c0-1.252,0.102-2.273,0.307-3.063
		c0.067,0.028,0.152,0.153,0.254,0.375c0.469,1.609,0.704,2.628,0.704,3.059v0.026c-0.413,0-0.841,0.062-1.286,0.185V66.118z"/>
	<path fill="#22211E" d="M6.896,13.31c0.48,0.512,0.72,1.034,0.72,1.566c0,0.406-0.063,0.736-0.19,0.99
		c0,0.194-0.233,0.379-0.699,0.556c-0.155,0.014-0.232,0.041-0.232,0.079v0.058c0.024,0.053,0.074,0.08,0.148,0.08
		s0.173-0.034,0.296-0.101c0.346-0.127,0.557-0.279,0.635-0.455c0.169-0.374,0.254-0.757,0.254-1.148
		c0-0.494-0.177-0.995-0.529-1.502c-0.691-0.625-1.073-1.007-1.143-1.148c-0.198-0.522-0.296-0.899-0.296-1.132
		c0-0.377,0.057-0.72,0.169-1.027C6.162,9.846,6.416,9.706,6.79,9.706h0.212c0.07-0.049,0.106-0.083,0.106-0.101V9.568L7.044,9.489
		c-0.568,0-0.949,0.139-1.143,0.418c-0.169,0.353-0.254,0.755-0.254,1.207c0.014,0.113,0.021,0.205,0.021,0.275
		c0.127,0.589,0.254,0.953,0.381,1.09C6.236,12.747,6.518,13.024,6.896,13.31z"/>
	<path fill="#22211E" d="M9.749,10.161C9.607,9.756,9.436,9.507,9.235,9.415H9.214c-0.138,0-0.24,0.164-0.307,0.492
		C8.745,11.04,8.66,12.114,8.653,13.13c0,0.198,0.007,0.394,0.021,0.587c0,0.303-0.055,1.199-0.164,2.688
		c0,0.155,0.062,0.233,0.185,0.233c0.063-0.039,0.095-0.07,0.095-0.095c0-0.042-0.016-0.088-0.047-0.138l0.143-1.963v-0.82
		c0-0.085,0.381-0.162,1.143-0.233l0.164,0.021c0.109,0.826,0.18,1.293,0.212,1.402c0.113,1.013,0.197,1.574,0.254,1.683
		c0.078,0,0.125-0.023,0.143-0.068c0-0.462-0.062-1-0.185-1.614C10.429,12.925,10.14,11.375,9.749,10.161z M10.172,13.156
		c-0.413,0-0.841,0.062-1.286,0.185v-0.068c0-0.342,0.007-0.514,0.021-0.514c0-1.252,0.102-2.273,0.307-3.063
		c0.067,0.028,0.152,0.153,0.254,0.375c0.469,1.609,0.704,2.628,0.704,3.059V13.156z"/>
	<path fill="#22211E" d="M12.426,9.441c-0.056,0.036-0.084,0.063-0.084,0.085c0.042,0.265,0.063,0.561,0.063,0.889v0.593
		c-0.084,0.924-0.127,2.611-0.127,5.059c0,0.381,0.028,0.571,0.084,0.571h0.085c0.039,0,0.067-0.049,0.084-0.148
		c-0.028-0.113-0.042-0.184-0.042-0.212v-1.376c0-0.434,0.007-1.019,0.021-1.757c-0.014-0.056-0.021-0.113-0.021-0.169
		c0.085-1.15,0.127-1.863,0.127-2.138v-0.275c0-0.748-0.049-1.122-0.148-1.122H12.426z"/>
	<path fill="#22211E" d="M16.051,11.257c0-0.402,0.02-1.004,0.059-1.805l-0.122-0.063c-0.067,0-0.105,0.041-0.116,0.122v1.503
		c0,0.166-0.014,0.388-0.042,0.667c0,0.124,0.002,0.206,0.005,0.249c-0.018,0.367-0.026,0.582-0.026,0.646
		c0,0.212,0.041,1.175,0.122,2.889v0.18h-0.058c-0.603-1.831-0.945-2.974-1.026-3.429c-0.561-1.922-0.88-2.884-0.958-2.884
		c-0.067,0-0.107,0.041-0.122,0.122v3.667c0,0.974,0.041,2.076,0.122,3.308c0,0.078,0.039,0.116,0.116,0.116h0.122
		c-0.12-1.023-0.18-2.325-0.18-3.905c0-0.314,0.014-0.862,0.042-1.646l-0.005-0.18c0-0.169-0.012-0.402-0.037-0.698l0.005-0.117
		l0.042,0.069l0.556,1.91c0.92,3.126,1.421,4.688,1.502,4.688l0.117-0.058c-0.078-1.94-0.117-3.524-0.117-4.752V11.257z"/>
	<path fill="#22211E" d="M18.423,9.786h-0.868c-0.109,0-0.3,0.012-0.571,0.037c-0.014,0-0.071-0.013-0.169-0.037
		c-0.057,0.028-0.084,0.053-0.084,0.074c0,0.063,0.021,0.118,0.063,0.164l0.677-0.058h0.063l0.042,0.021
		c0.028,0.367,0.042,0.774,0.042,1.222c0.127,2.745,0.19,4.269,0.19,4.572c-0.014,0.109-0.021,0.177-0.021,0.201
		c0.042,0.049,0.071,0.074,0.084,0.074h0.085c0.021,0,0.042-0.025,0.063-0.074L18,15.855c0-0.014,0.007-0.032,0.021-0.053
		c0-0.014-0.007-0.034-0.021-0.058c0-0.924-0.063-2.454-0.191-4.588c0-0.011,0.007-0.06,0.021-0.148l-0.042-0.968
		c0.021-0.049,0.042-0.074,0.063-0.074h0.593c0.395,0,0.593-0.03,0.593-0.09V9.823l-0.063-0.074
		C18.786,9.773,18.603,9.786,18.423,9.786z"/>
	<path fill="#22211E" d="M23.043,13.823v-0.148c0-1.958-0.021-3.2-0.063-3.725C22.993,9.773,23,9.682,23,9.674
		c-0.046-0.028-0.088-0.042-0.127-0.042c-0.071,0.053-0.106,0.088-0.106,0.105v0.148c0,0.219,0.014,0.423,0.042,0.614
		c0.014,1.238,0.021,2.247,0.021,3.027v0.254c0,0.148,0.014,0.593,0.042,1.333v0.106c-0.057,0.804-0.205,1.207-0.444,1.207h-0.021
		c-0.067,0-0.138-0.021-0.211-0.064c-0.212,0-0.317-0.332-0.317-0.995c0-0.078-0.036-0.127-0.106-0.148
		c-0.025,0-0.06,0.021-0.106,0.063c0.014,0.624,0.057,0.956,0.127,0.995c0,0.145,0.19,0.265,0.572,0.36h0.084
		c0.371,0,0.582-0.487,0.635-1.46C23.057,14.412,23.043,13.96,23.043,13.823z"/>
	<path fill="#22211E" d="M25.885,13.41c0.109,0.826,0.18,1.293,0.212,1.402c0.113,1.013,0.197,1.574,0.254,1.683
		c0.078,0,0.125-0.023,0.143-0.068c0-0.462-0.062-1-0.185-1.614c-0.187-1.887-0.476-3.438-0.868-4.651
		c-0.141-0.405-0.312-0.654-0.513-0.746h-0.021c-0.138,0-0.24,0.164-0.307,0.492c-0.163,1.132-0.247,2.207-0.254,3.223
		c0,0.198,0.007,0.394,0.021,0.587c0,0.303-0.055,1.199-0.164,2.688c0,0.155,0.062,0.233,0.185,0.233
		c0.063-0.039,0.095-0.07,0.095-0.095c0-0.042-0.016-0.088-0.047-0.138l0.143-1.963v-0.82c0-0.085,0.381-0.162,1.143-0.233
		L25.885,13.41z M24.578,13.273c0-0.342,0.007-0.514,0.021-0.514c0-1.252,0.102-2.273,0.307-3.063
		c0.067,0.028,0.152,0.153,0.254,0.375c0.469,1.609,0.704,2.628,0.704,3.059v0.026c-0.413,0-0.841,0.062-1.286,0.185V13.273z"/>
	<path fill="#22211E" d="M29.817,15.961c-0.243,0.311-0.469,0.466-0.677,0.466c-0.162-0.007-0.353-0.106-0.572-0.296
		c-0.18-0.229-0.321-0.667-0.423-1.312c-0.169-0.882-0.254-1.637-0.254-2.265v-0.36c0-0.932,0.141-1.665,0.423-2.202
		c0-0.102,0.176-0.215,0.529-0.338c0.106,0,0.205,0.057,0.296,0.169h0.084c0.057-0.035,0.085-0.063,0.085-0.085
		c0-0.137-0.127-0.229-0.381-0.275H28.78c-0.06,0-0.194,0.049-0.402,0.148c-0.441,0.335-0.674,1.217-0.698,2.646v0.127
		c0,0.698,0.035,1.199,0.106,1.503c0.187,1.411,0.405,2.215,0.656,2.413c0.229,0.201,0.448,0.314,0.656,0.339h0.021
		c0.109,0,0.229-0.028,0.359-0.084c0.311-0.198,0.466-0.36,0.466-0.487v-0.042c-0.021-0.042-0.042-0.063-0.063-0.063H29.817z"/>
	<path fill="#22211E" d="M32.627,14.627v-1.08c0-1.33-0.12-2.381-0.36-3.154c-0.145-0.776-0.349-1.164-0.614-1.164
		c-0.088,0-0.25,0.063-0.487,0.19c-0.296,0.236-0.445,0.977-0.445,2.223c0,0.977,0.036,1.795,0.106,2.455
		c0.162,1.354,0.55,2.032,1.164,2.032c0.173,0,0.307-0.099,0.402-0.296h0.042c0.236,0.462,0.405,0.73,0.508,0.804h0.063
		c0.042-0.021,0.063-0.042,0.063-0.063v-0.021c0-0.06-0.19-0.385-0.571-0.974C32.585,15.174,32.627,14.857,32.627,14.627z
		 M32.416,14.712c0,0.085-0.021,0.275-0.063,0.572H32.31c-0.286-0.462-0.462-0.716-0.529-0.762h-0.042
		c-0.056,0.035-0.084,0.063-0.084,0.085v0.021c0,0.035,0.205,0.36,0.614,0.974c-0.074,0.211-0.166,0.317-0.275,0.317
		c-0.211,0-0.36-0.084-0.444-0.254c-0.409-0.353-0.614-1.693-0.614-4.021c0-1.048,0.099-1.704,0.296-1.969
		c0.032-0.067,0.173-0.138,0.423-0.211h0.021c0.092,0.084,0.141,0.127,0.148,0.127c0.395,1.125,0.592,2.402,0.592,3.831V14.712z"/>
	<path fill="#22211E" d="M35.718,11.601c0-0.074,0.007-0.194,0.021-0.36c-0.014,0-0.021-0.007-0.021-0.021l0.021-0.127v-0.678
		c0-0.099-0.007-0.254-0.021-0.465c0.014,0,0.021-0.014,0.021-0.042c-0.024-0.395-0.067-0.593-0.127-0.593h-0.063l-0.084,0.063
		c0.028,0.205,0.049,0.402,0.063,0.593l-0.021,0.042l0.021,0.127v0.508c0,0.381-0.007,0.776-0.021,1.186
		c0.113,2.24,0.169,3.637,0.169,4.191c0,0.19-0.092,0.325-0.275,0.402c-0.258,0-0.448-0.473-0.572-1.418
		c-0.183-1.4-0.338-3.249-0.465-5.545V9.357c0-0.078-0.036-0.134-0.106-0.169h-0.042L34.13,9.251
		c0.141,2.364,0.289,4.149,0.444,5.355c0.127,1.354,0.381,2.032,0.762,2.032c0.328,0,0.511-0.205,0.55-0.614
		c0-0.438-0.057-1.884-0.169-4.339V11.601z"/>
	<path fill="#22211E" d="M38.909,16.474v-0.021c-0.024-0.053-0.067-0.088-0.127-0.106c-0.103,0-0.42,0.014-0.953,0.042
		c0-0.014-0.007-0.021-0.021-0.021c-0.099-1.305-0.148-2.455-0.148-3.45v-0.084c0.134,0,0.296-0.007,0.487-0.021
		c0.286,0.028,0.49,0.042,0.614,0.042c0.056,0,0.084-0.021,0.084-0.063v-0.063l-0.063-0.084c-0.148,0-0.381-0.014-0.698-0.042
		c-0.067,0.014-0.159,0.021-0.275,0.021h-0.148c-0.071-1.633-0.106-2.565-0.106-2.794l-0.021-0.254
		c0.244-0.014,0.385-0.021,0.423-0.021l0.614,0.063c0.045,0,0.081-0.035,0.105-0.106V9.489c0-0.057-0.226-0.106-0.677-0.148
		c0,0.014-0.007,0.021-0.021,0.021l-0.042-0.021c-0.145,0.014-0.257,0.021-0.338,0.021h-0.233l-0.085,0.063
		c0,0.014,0.021,0.127,0.063,0.338c0,0.438,0.035,1.277,0.106,2.519v0.677c0,0.896,0.049,2.018,0.148,3.366
		c0,0.183,0.084,0.275,0.254,0.275c0.113-0.014,0.437-0.028,0.974-0.042C38.881,16.523,38.909,16.495,38.909,16.474z"/>
	<path fill="#22211E" d="M39.962,12.283c-0.198-0.522-0.296-0.899-0.296-1.132c0-0.377,0.057-0.72,0.169-1.027
		c0.134-0.278,0.388-0.418,0.762-0.418h0.212c0.07-0.049,0.106-0.083,0.106-0.101V9.568l-0.063-0.079
		c-0.568,0-0.949,0.139-1.143,0.418c-0.169,0.353-0.254,0.755-0.254,1.207c0.014,0.113,0.021,0.205,0.021,0.275
		c0.127,0.589,0.254,0.953,0.381,1.09c0.187,0.268,0.469,0.545,0.847,0.831c0.48,0.512,0.72,1.034,0.72,1.566
		c0,0.406-0.063,0.736-0.19,0.99c0,0.194-0.233,0.379-0.699,0.556c-0.155,0.014-0.232,0.041-0.232,0.079v0.058
		c0.024,0.053,0.074,0.08,0.148,0.08s0.173-0.034,0.296-0.101c0.346-0.127,0.557-0.279,0.635-0.455
		c0.169-0.374,0.254-0.757,0.254-1.148c0-0.494-0.177-0.995-0.529-1.502C40.414,12.807,40.033,12.424,39.962,12.283z"/>
	<path fill="#22211E" d="M5.885,22.065H5.864l0.106,4.127c-0.014,0.458-0.021,0.967-0.021,1.524v0.021L5.97,27.78H5.948
		c0.014,0.593,0.042,1.051,0.085,1.376l-0.021,0.042c0.018,0.226,0.046,0.338,0.085,0.338c0.042,0,0.127-0.021,0.254-0.063
		c1.002-0.875,1.503-2.003,1.503-3.387v-0.105c0-0.97-0.226-1.916-0.677-2.836C6.876,22.609,6.446,22.249,5.885,22.065z
		 M7.642,26.15c0,0.632-0.162,1.309-0.487,2.032c-0.279,0.452-0.582,0.818-0.91,1.101C6.188,28.69,6.16,28.126,6.16,27.59v-0.254
		c0-0.398,0.007-0.787,0.021-1.164c-0.042-0.917-0.07-2.173-0.084-3.768v-0.021c0.278,0.092,0.575,0.374,0.889,0.847
		c0.438,0.921,0.656,1.824,0.656,2.709V26.15z"/>
	<path fill="#22211E" d="M9.436,29.395c0-0.014-0.007-0.021-0.021-0.021c-0.099-1.305-0.148-2.455-0.148-3.45v-0.084
		c0.134,0,0.296-0.007,0.487-0.021c0.286,0.028,0.49,0.042,0.614,0.042c0.056,0,0.084-0.021,0.084-0.063v-0.063l-0.063-0.084
		c-0.148,0-0.381-0.014-0.698-0.042c-0.067,0.014-0.159,0.021-0.275,0.021H9.267c-0.071-1.633-0.106-2.565-0.106-2.794L9.14,22.579
		c0.244-0.014,0.385-0.021,0.423-0.021l0.614,0.063c0.045,0,0.081-0.035,0.105-0.106v-0.021c0-0.057-0.226-0.106-0.677-0.148
		c0,0.014-0.007,0.021-0.021,0.021l-0.042-0.021c-0.145,0.014-0.257,0.021-0.338,0.021H8.971l-0.085,0.063
		c0,0.014,0.021,0.127,0.063,0.338c0,0.438,0.035,1.277,0.106,2.519v0.677c0,0.896,0.049,2.018,0.148,3.366
		c0,0.183,0.084,0.275,0.254,0.275c0.113-0.014,0.437-0.028,0.974-0.042c0.056-0.035,0.084-0.063,0.084-0.084v-0.021
		c-0.024-0.053-0.067-0.088-0.127-0.106C10.286,29.352,9.969,29.366,9.436,29.395z"/>
	<path fill="#22211E" d="M15.708,28.966c-0.243,0.311-0.469,0.466-0.677,0.466c-0.162-0.007-0.353-0.106-0.572-0.296
		c-0.18-0.229-0.321-0.667-0.423-1.312c-0.169-0.882-0.254-1.637-0.254-2.265v-0.36c0-0.932,0.141-1.665,0.423-2.202
		c0-0.102,0.176-0.215,0.529-0.338c0.106,0,0.205,0.057,0.296,0.169h0.084c0.057-0.035,0.085-0.063,0.085-0.085
		c0-0.137-0.127-0.229-0.381-0.275H14.67c-0.06,0-0.194,0.049-0.402,0.148c-0.441,0.335-0.674,1.217-0.698,2.646v0.127
		c0,0.698,0.035,1.199,0.106,1.503c0.187,1.411,0.405,2.215,0.656,2.413c0.229,0.201,0.448,0.314,0.656,0.339h0.021
		c0.109,0,0.229-0.028,0.359-0.084c0.311-0.198,0.466-0.36,0.466-0.487v-0.042c-0.021-0.042-0.042-0.063-0.063-0.063H15.708z"/>
	<path fill="#22211E" d="M17.422,22.383c-0.11,0-0.229,0.05-0.36,0.148c-0.494,0.766-0.741,2.141-0.741,4.127l0.063,0.868
		c0.127,1.189,0.445,1.845,0.953,1.969h0.148c0.053,0,0.151-0.028,0.296-0.085c0.409-0.346,0.614-1.263,0.614-2.751
		c0-0.011-0.007-0.053-0.021-0.127c0.014-0.018,0.021-0.067,0.021-0.148v-0.021c0-0.081-0.007-0.13-0.021-0.148
		c0.014-0.077,0.021-0.141,0.021-0.19v-0.084c0-0.286-0.007-0.519-0.021-0.699C18.138,23.335,17.821,22.383,17.422,22.383z
		 M18.184,26.341c0,1.199-0.078,1.982-0.233,2.349c-0.081,0.396-0.265,0.593-0.55,0.593H17.38c-0.155,0-0.332-0.197-0.529-0.593
		c-0.211-0.6-0.317-1.298-0.317-2.095c0-1.676,0.197-2.932,0.593-3.768c0.032-0.092,0.13-0.169,0.296-0.233
		c0.105,0.074,0.211,0.229,0.317,0.466c0.296,1.076,0.444,2.028,0.444,2.857V26.341z"/>
	<path fill="#22211E" d="M21.92,22.743l-0.005-0.211l-0.053-0.101h-0.063c-0.699,2.028-1.048,3.119-1.048,3.27h-0.058
		c-0.822-2.233-1.275-3.363-1.36-3.392l-0.122,0.063c0.124,0.991,0.247,3.332,0.371,7.022c0,0.084,0.041,0.127,0.122,0.127
		l0.122-0.063l-0.307-6.102v-0.063h0.063c0.656,1.842,1.046,2.766,1.169,2.773c0.063-0.049,0.351-0.87,0.862-2.46h0.064v2.587
		c0.081,2.3,0.162,3.45,0.243,3.45l0.127-0.063c-0.124-2.088-0.185-3.3-0.185-3.635C21.862,25.073,21.881,24.006,21.92,22.743z"/>
	<path fill="#22211E" d="M23.064,22.214c-0.057,0.035-0.085,0.063-0.085,0.084v0.063c0,0.028,0.014,0.042,0.042,0.042l-0.106,3.852
		c0,0.078,0.014,0.304,0.042,0.677c-0.042,0-0.071,0.028-0.085,0.085c0,0.042,0.028,0.078,0.085,0.105
		c0,0.067,0.007,0.229,0.021,0.487c0,0.07-0.007,0.176-0.021,0.317l0.063,0.889c-0.014,0-0.021,0.007-0.021,0.021
		c0.018,0.229,0.039,0.413,0.063,0.55c-0.014,0-0.021,0.007-0.021,0.021v0.148c0.035,0.056,0.063,0.084,0.085,0.084h0.042
		c0.042-0.018,0.085-0.081,0.127-0.19v-0.063c0-0.106-0.021-0.162-0.063-0.169c0-0.12-0.021-0.579-0.063-1.376
		c0-0.018,0.007-0.088,0.021-0.211c-0.014-0.124-0.021-0.279-0.021-0.466v-0.021c0-0.032,0.085-0.053,0.254-0.063
		c0.265-0.13,0.469-0.321,0.614-0.572c0.31-1.051,0.465-2.018,0.465-2.899c-0.014-0.187-0.042-0.35-0.084-0.487
		C24.175,22.517,23.724,22.214,23.064,22.214z M24.271,24.034c-0.151,1.58-0.349,2.448-0.592,2.603
		c-0.163,0.169-0.325,0.254-0.487,0.254l-0.042-0.021c0-0.113-0.007-0.317-0.021-0.614l0.105-3.831
		c0.159,0.028,0.3,0.063,0.423,0.106c0.423,0.296,0.635,0.628,0.635,0.995C24.292,23.607,24.285,23.776,24.271,24.034z"/>
	<path fill="#22211E" d="M25.52,25.288c-0.198-0.522-0.296-0.899-0.296-1.132c0-0.377,0.057-0.72,0.169-1.027
		c0.134-0.278,0.388-0.418,0.762-0.418h0.212c0.07-0.049,0.106-0.083,0.106-0.101v-0.037l-0.063-0.079
		c-0.568,0-0.949,0.139-1.143,0.418c-0.169,0.353-0.254,0.755-0.254,1.207c0.014,0.113,0.021,0.205,0.021,0.275
		c0.127,0.589,0.254,0.953,0.381,1.09c0.187,0.268,0.469,0.545,0.847,0.831c0.48,0.512,0.72,1.034,0.72,1.566
		c0,0.406-0.063,0.736-0.19,0.99c0,0.194-0.233,0.379-0.699,0.556c-0.155,0.014-0.232,0.041-0.232,0.079v0.058
		c0.024,0.053,0.074,0.08,0.148,0.08s0.173-0.034,0.296-0.101c0.346-0.127,0.557-0.279,0.635-0.455
		c0.169-0.374,0.254-0.757,0.254-1.148c0-0.494-0.177-0.995-0.529-1.502C25.971,25.812,25.59,25.429,25.52,25.288z"/>
	<path fill="#22211E" d="M29.314,22.791h-0.868c-0.109,0-0.3,0.012-0.571,0.037c-0.014,0-0.071-0.013-0.169-0.037
		c-0.057,0.028-0.084,0.053-0.084,0.074c0,0.063,0.021,0.118,0.063,0.164l0.677-0.058h0.063l0.042,0.021
		c0.028,0.367,0.042,0.774,0.042,1.222c0.127,2.745,0.19,4.269,0.19,4.572c-0.014,0.109-0.021,0.177-0.021,0.201
		c0.042,0.049,0.071,0.074,0.084,0.074h0.085c0.021,0,0.042-0.025,0.063-0.074l-0.021-0.127c0-0.014,0.007-0.032,0.021-0.053
		c0-0.014-0.007-0.034-0.021-0.058c0-0.924-0.063-2.454-0.191-4.588c0-0.011,0.007-0.06,0.021-0.148l-0.042-0.968
		c0.021-0.049,0.042-0.074,0.063-0.074h0.593c0.395,0,0.593-0.03,0.593-0.09v-0.053l-0.063-0.074
		C29.678,22.778,29.494,22.791,29.314,22.791z"/>
	<path fill="#22211E" d="M31.431,29.395c0-0.014-0.007-0.021-0.021-0.021c-0.099-1.305-0.148-2.455-0.148-3.45v-0.084
		c0.134,0,0.296-0.007,0.487-0.021c0.286,0.028,0.49,0.042,0.614,0.042c0.056,0,0.084-0.021,0.084-0.063v-0.063l-0.063-0.084
		c-0.148,0-0.381-0.014-0.698-0.042c-0.067,0.014-0.159,0.021-0.275,0.021h-0.148c-0.071-1.633-0.106-2.565-0.106-2.794
		l-0.021-0.254c0.244-0.014,0.385-0.021,0.423-0.021l0.614,0.063c0.045,0,0.081-0.035,0.105-0.106v-0.021
		c0-0.057-0.226-0.106-0.677-0.148c0,0.014-0.007,0.021-0.021,0.021l-0.042-0.021c-0.145,0.014-0.257,0.021-0.338,0.021h-0.233
		l-0.085,0.063c0,0.014,0.021,0.127,0.063,0.338c0,0.438,0.035,1.277,0.106,2.519v0.677c0,0.896,0.049,2.018,0.148,3.366
		c0,0.183,0.084,0.275,0.254,0.275c0.113-0.014,0.437-0.028,0.974-0.042c0.056-0.035,0.084-0.063,0.084-0.084v-0.021
		c-0.024-0.053-0.067-0.088-0.127-0.106C32.281,29.352,31.964,29.366,31.431,29.395z"/>
	<path fill="#22211E" d="M33.792,29.432V27.59c0-0.603-0.021-1.076-0.063-1.418c0-1.059-0.049-2.356-0.148-3.895l-0.021-0.042
		c0.028,0,0.042-0.035,0.042-0.106c-0.035-0.056-0.063-0.084-0.085-0.084h-0.021c-0.078,0-0.127,0.035-0.148,0.106l0.063,0.698
		c0.056,1.231,0.113,2.776,0.169,4.635v1.545l0.021,0.254c-0.014,0-0.021,0.049-0.021,0.148v0.127
		c0.035,0.056,0.063,0.084,0.084,0.084h0.974c0.24,0,0.36-0.028,0.36-0.084v-0.063c-0.021-0.042-0.042-0.063-0.063-0.063H33.792z"/>
	<path fill="#22211E" d="M36.401,29.432V27.59c0-0.603-0.021-1.076-0.063-1.418c0-1.059-0.049-2.356-0.148-3.895l-0.021-0.042
		c0.028,0,0.042-0.035,0.042-0.106c-0.035-0.056-0.063-0.084-0.085-0.084h-0.021c-0.078,0-0.127,0.035-0.148,0.106l0.063,0.698
		c0.056,1.231,0.113,2.776,0.169,4.635v1.545l0.021,0.254c-0.014,0-0.021,0.049-0.021,0.148v0.127
		c0.035,0.056,0.063,0.084,0.084,0.084h0.974c0.24,0,0.36-0.028,0.36-0.084v-0.063c-0.021-0.042-0.042-0.063-0.063-0.063H36.401z"/>
	<path fill="#22211E" d="M39.259,29.395c0-0.014-0.007-0.021-0.021-0.021c-0.099-1.305-0.148-2.455-0.148-3.45v-0.084
		c0.134,0,0.296-0.007,0.487-0.021c0.286,0.028,0.49,0.042,0.614,0.042c0.056,0,0.084-0.021,0.084-0.063v-0.063l-0.063-0.084
		c-0.148,0-0.381-0.014-0.698-0.042c-0.067,0.014-0.159,0.021-0.275,0.021H39.09c-0.071-1.633-0.106-2.565-0.106-2.794l-0.021-0.254
		c0.244-0.014,0.385-0.021,0.423-0.021L40,22.621c0.045,0,0.081-0.035,0.105-0.106v-0.021c0-0.057-0.226-0.106-0.677-0.148
		c0,0.014-0.007,0.021-0.021,0.021l-0.042-0.021c-0.145,0.014-0.257,0.021-0.338,0.021h-0.233l-0.085,0.063
		c0,0.014,0.021,0.127,0.063,0.338c0,0.438,0.035,1.277,0.106,2.519v0.677c0,0.896,0.049,2.018,0.148,3.366
		c0,0.183,0.084,0.275,0.254,0.275c0.113-0.014,0.437-0.028,0.974-0.042c0.056-0.035,0.084-0.063,0.084-0.084v-0.021
		c-0.024-0.053-0.067-0.088-0.127-0.106C40.109,29.352,39.792,29.366,39.259,29.395z"/>
</g>
<path fill="#EA4647" d="M404.512,75.003c-1.872,0-3.396,1.523-3.396,3.396c0,0.097,0.021,0.188,0.028,0.282l-10.867,2.78
	l-14.89-0.338l-6.609,3.635l-5.486-3.228l-4.79-0.786c-0.199-1.684-1.619-2.999-3.357-2.999c-1.335,0-2.48,0.781-3.035,1.904
	l-19.64-3.57l-0.072-0.014l-17.412,2.05l-14.034,12.602c-0.617-0.635-1.478-1.033-2.432-1.033c-1.873,0-3.396,1.523-3.396,3.396
	c0,1.605,1.124,2.947,2.624,3.299l-2.378,15.932c-0.133-0.016-0.262-0.04-0.398-0.04c-1.872,0-3.396,1.523-3.396,3.396
	c0,0.039,0.01,0.075,0.012,0.113l-9.36,0.72l-10.697-3.009l-0.096-0.026l-10.973,1.33l-9.61-9.93l3.277-3.472
	c0.618,0.646,1.484,1.053,2.447,1.053c1.872,0,3.396-1.523,3.396-3.396c0-0.484-0.105-0.942-0.288-1.359l9.694-4.226l9.485-15.716
	c0.047,0.002,0.091,0.014,0.138,0.014c1.872,0,3.396-1.523,3.396-3.396c0-1.872-1.523-3.396-3.396-3.396
	c-1.873,0-3.396,1.524-3.396,3.396c0,1.462,0.934,2.699,2.231,3.178l-9.14,15.144l-9.554,4.164
	c-0.623-0.727-1.536-1.197-2.566-1.197c-1.873,0-3.396,1.523-3.396,3.396c0,0.558,0.147,1.076,0.387,1.541l-3.664,3.845
	l-4.342,1.321c-0.561-1.106-1.696-1.875-3.02-1.875c-1.325,0-2.463,0.77-3.022,1.879l-13.68-4.467l-7.725,5.069
	c-0.567-1.086-1.691-1.837-2.999-1.837c-1.873,0-3.397,1.523-3.397,3.396c0,0.024,0.007,0.048,0.007,0.072l-23.817-2.94
	l-7.988-1.167c-0.167-1.719-1.603-3.071-3.364-3.071c-1.642,0-3.015,1.172-3.328,2.724l-14.966,0.831l-13.302-4.988l-15.766-13.186
	c0.356-0.536,0.566-1.179,0.566-1.869c0-1.873-1.524-3.396-3.397-3.396c-1.542,0-2.833,1.039-3.246,2.449l-4.125-0.59l-9.025,5.683
	l-1.552-0.713c0.131-0.361,0.215-0.745,0.215-1.151c0-1.872-1.524-3.396-3.397-3.396c-1.266,0-2.36,0.705-2.944,1.734l-11.727-5.383
	c0.216-0.446,0.347-0.94,0.347-1.469c0-1.872-1.524-3.396-3.396-3.396c-0.878,0-1.673,0.344-2.277,0.894l-10.599-8.479L64.823,55.27
	l-18.64-8.134L27.975,46.82c-0.174-1.711-1.606-3.057-3.362-3.057c-1.873,0-3.396,1.524-3.396,3.396s1.524,3.396,3.396,3.396
	c1.654,0,3.031-1.19,3.332-2.757l17.936,0.28l18.334,8l9.697,11.703l10.703,8.571c-0.309,0.511-0.497,1.103-0.497,1.742
	c0,1.874,1.524,3.397,3.396,3.397c0.991,0,1.876-0.434,2.498-1.113l11.916,5.479c-0.055,0.241-0.09,0.49-0.09,0.749
	c0,1.873,1.524,3.396,3.396,3.396c1.114,0,2.096-0.546,2.715-1.377l2.092,0.962l9.17-5.772l3.758,0.537
	c0.015,1.859,1.53,3.368,3.394,3.368c0.826,0,1.574-0.309,2.164-0.8l15.866,13.269l13.621,5.138l0.097,0.037l15.082-0.847
	c0.158,1.727,1.598,3.088,3.365,3.088c1.647,0,3.022-1.18,3.33-2.737l7.89,1.16l24.137,2.979c0.457,1.338,1.712,2.309,3.202,2.309
	c1.872,0,3.396-1.523,3.396-3.396c0-0.206-0.025-0.406-0.061-0.602l7.533-4.943l13.22,4.316c-0.033,0.191-0.059,0.384-0.059,0.584
	c0,1.872,1.523,3.396,3.396,3.396c1.872,0,3.396-1.523,3.396-3.396c0-0.201-0.025-0.396-0.06-0.588l4.148-1.263l10.069,10.404
	l11.264-1.365l10.687,3.006l0.085,0.023l9.641-0.742c0.456,1.339,1.711,2.31,3.201,2.31c1.873,0,3.396-1.523,3.396-3.396
	c0-1.389-0.841-2.583-2.039-3.108l2.404-16.104c1.772-0.112,3.184-1.575,3.184-3.374c0-0.562-0.15-1.085-0.394-1.552l13.889-12.471
	l16.955-1.995l19.438,3.533c-0.029,0.18-0.056,0.359-0.056,0.547c0,1.872,1.523,3.396,3.396,3.396c1.675,0,3.061-1.219,3.339-2.813
	l4.389,0.703l5.891,3.464l6.867-3.777l14.693,0.334l0.067,0.002l10.969-2.807c0.498,1.258,1.72,2.152,3.152,2.152
	c1.873,0,3.396-1.523,3.396-3.396S406.385,75.003,404.512,75.003z M276.588,74.365c0-1.329,1.082-2.411,2.412-2.411
	c1.329,0,2.411,1.082,2.411,2.411c0,1.33-1.082,2.412-2.411,2.412C277.67,76.777,276.588,75.695,276.588,74.365z M256.575,96.638
	c1.329,0,2.411,1.082,2.411,2.411c0,1.33-1.082,2.412-2.411,2.412c-1.33,0-2.412-1.082-2.412-2.412
	C254.163,97.72,255.245,96.638,256.575,96.638z M24.612,49.571c-1.33,0-2.411-1.082-2.411-2.411s1.082-2.411,2.411-2.411
	s2.411,1.082,2.411,2.411S25.942,49.571,24.612,49.571z M87.513,80.509c-1.33,0-2.411-1.083-2.411-2.413
	c0-1.329,1.082-2.411,2.411-2.411s2.411,1.082,2.411,2.411C89.924,79.426,88.843,80.509,87.513,80.509z M105.233,89.021
	c-1.33,0-2.411-1.082-2.411-2.412c0-1.329,1.082-2.411,2.411-2.411s2.412,1.082,2.412,2.411
	C107.645,87.938,106.563,89.021,105.233,89.021z M126.363,86.738c-1.33,0-2.411-1.082-2.411-2.411c0-1.33,1.082-2.412,2.411-2.412
	s2.412,1.082,2.412,2.412C128.775,85.656,127.693,86.738,126.363,86.738z M176.556,106.623c-1.329,0-2.411-1.082-2.411-2.411
	c0-1.33,1.082-2.412,2.411-2.412c1.33,0,2.411,1.082,2.411,2.412C178.967,105.541,177.886,106.623,176.556,106.623z
	 M215.114,110.334c-1.33,0-2.412-1.082-2.412-2.412s1.082-2.412,2.412-2.412c1.329,0,2.411,1.082,2.411,2.412
	S216.443,110.334,215.114,110.334z M242.54,109.688c-1.33,0-2.412-1.082-2.412-2.411c0-1.33,1.082-2.412,2.412-2.412
	c1.329,0,2.411,1.082,2.411,2.412C244.951,108.606,243.869,109.688,242.54,109.688z M297.383,115.666
	c0,1.33-1.082,2.412-2.412,2.412c-1.329,0-2.411-1.082-2.411-2.412c0-1.329,1.082-2.411,2.411-2.411
	C296.301,113.255,297.383,114.337,297.383,115.666z M298.52,95.491c-1.33,0-2.412-1.082-2.412-2.411s1.082-2.411,2.412-2.411
	s2.412,1.082,2.412,2.411S299.85,95.491,298.52,95.491z M355.145,83.554c-1.329,0-2.411-1.082-2.411-2.411
	c0-1.33,1.082-2.412,2.411-2.412c1.33,0,2.413,1.082,2.413,2.412C357.558,82.472,356.475,83.554,355.145,83.554z M404.512,80.812
	c-1.329,0-2.411-1.082-2.411-2.412s1.082-2.412,2.411-2.412c1.33,0,2.412,1.082,2.412,2.412S405.842,80.812,404.512,80.812z"/>
</svg>
