<?xml version="1.0" encoding="utf-8"?>
<!-- Generator: Adobe Illustrator 15.0.1, SVG Export Plug-In . SVG Version: 6.00 Build 0)  -->
<!DOCTYPE svg PUBLIC "-//W3C//DTD SVG 1.1//EN" "http://www.w3.org/Graphics/SVG/1.1/DTD/svg11.dtd">
<svg version="1.1" id="Layer_1" xmlns="http://www.w3.org/2000/svg" xmlns:xlink="http://www.w3.org/1999/xlink" x="0px" y="0px"
	 width="1501.124px" height="500.365px" viewBox="-1075.924 0 1501.124 500.365"
	 enable-background="new -1075.924 0 1501.124 500.365" xml:space="preserve">
<path fill="#EB4535" d="M-991.141,113.212c-7.634,0-13.832,6.19-13.832,13.832c0,7.637,13.832,22.625,13.832,22.625
	s13.832-14.988,13.832-22.625C-977.31,119.406-983.504,113.212-991.141,113.212z M-991.141,135.841
	c-4.806,0-8.705-3.899-8.705-8.706c0-4.808,3.899-8.7,8.705-8.7c4.809,0,8.704,3.896,8.704,8.7
	C-982.437,131.941-986.336,135.841-991.141,135.841z"/>
<g>
	<path fill="#22211E" d="M279.823,218.428c-0.692-1.829-1.042-3.149-1.042-3.964c0-1.32,0.203-2.523,0.594-3.598
		c0.47-0.976,1.363-1.464,2.674-1.464h0.738c0.247-0.172,0.37-0.291,0.37-0.353v-0.129l-0.219-0.278
		c-1.991,0-3.324,0.486-4.009,1.464c-0.593,1.235-0.889,2.645-0.889,4.228c0.051,0.394,0.074,0.719,0.074,0.962
		c0.445,2.062,0.89,3.338,1.334,3.816c0.657,0.94,1.645,1.911,2.966,2.911c1.68,1.796,2.52,3.621,2.52,5.485
		c0,1.423-0.219,2.579-0.663,3.469c0,0.676-0.812,1.327-2.445,1.946c-0.543,0.048-0.816,0.144-0.816,0.276v0.202
		c0.088,0.188,0.259,0.279,0.519,0.279c0.262,0,0.605-0.115,1.038-0.352c1.208-0.444,1.952-0.978,2.226-1.594
		c0.592-1.311,0.889-2.65,0.889-4.022c0-1.727-0.619-3.481-1.85-5.26C281.406,220.262,280.071,218.921,279.823,218.428z"/>
	<path fill="#22211E" d="M292.408,210.997c-0.495-1.419-1.095-2.292-1.798-2.613h-0.073c-0.484,0-0.84,0.575-1.077,1.724
		c-0.567,3.964-0.865,7.729-0.89,11.287c0,0.694,0.024,1.382,0.077,2.056c0,1.06-0.195,4.199-0.575,9.416
		c0,0.54,0.215,0.814,0.649,0.814c0.221-0.138,0.338-0.243,0.338-0.332c0-0.147-0.061-0.308-0.171-0.482l0.503-6.874v-2.874
		c0-0.298,1.335-0.567,4.006-0.817l0.575,0.075c0.38,2.894,0.631,4.529,0.737,4.909c0.396,3.549,0.694,5.513,0.89,5.896
		c0.273,0,0.442-0.082,0.506-0.239c0-1.618-0.219-3.503-0.653-5.649C294.797,220.677,293.78,215.248,292.408,210.997z
		 M293.892,221.487c-1.445,0-2.95,0.216-4.505,0.646v-0.235c0-1.2,0.024-1.802,0.073-1.802c0-4.385,0.363-7.96,1.077-10.727
		c0.233,0.097,0.527,0.534,0.89,1.313c1.645,5.634,2.465,9.204,2.465,10.712V221.487z"/>
	<path fill="#22211E" d="M301.787,208.476c-0.201,0.122-0.298,0.219-0.298,0.297c0.15,0.928,0.219,1.964,0.219,3.113v2.075
		c-0.295,3.237-0.444,9.146-0.444,17.721c0,1.335,0.099,1.998,0.298,1.998h0.296c0.139,0,0.235-0.171,0.3-0.518
		c-0.097-0.396-0.151-0.646-0.151-0.741v-4.82c0-1.521,0.024-3.569,0.074-6.155c-0.054-0.195-0.074-0.394-0.074-0.592
		c0.298-4.025,0.444-6.523,0.444-7.487v-0.965c0-2.616-0.171-3.926-0.513-3.926H301.787z"/>
	<path fill="#22211E" d="M314.487,214.835c0-1.406,0.068-3.517,0.201-6.32l-0.425-0.224c-0.235,0-0.368,0.144-0.406,0.428v5.265
		c0,0.581-0.05,1.36-0.15,2.336c0,0.434,0.008,0.721,0.021,0.871c-0.064,1.286-0.091,2.038-0.091,2.265
		c0,0.742,0.143,4.114,0.426,10.117v0.63h-0.205c-2.113-6.41-3.31-10.415-3.594-12.009c-1.968-6.73-3.082-10.101-3.352-10.101
		c-0.237,0-0.38,0.145-0.429,0.429v12.842c0,3.41,0.141,7.272,0.429,11.586c0,0.273,0.133,0.406,0.406,0.406h0.424
		c-0.416-3.581-0.631-8.144-0.631-13.678c0-1.099,0.052-3.017,0.145-5.763l-0.017-0.63c0-0.595-0.044-1.409-0.128-2.446l0.02-0.409
		l0.147,0.242l1.948,6.687c3.226,10.948,4.981,16.421,5.265,16.421l0.404-0.202c-0.275-6.796-0.404-12.344-0.404-16.643v-2.1
		H314.487z"/>
	<path fill="#22211E" d="M322.783,209.679h-3.032c-0.384,0-1.054,0.042-2.005,0.131c-0.049,0-0.247-0.048-0.592-0.131
		c-0.203,0.096-0.299,0.187-0.299,0.261c0,0.219,0.072,0.41,0.221,0.574l2.375-0.204h0.22l0.148,0.075
		c0.099,1.282,0.148,2.709,0.148,4.277c0.444,9.614,0.668,14.95,0.668,16.015c-0.055,0.38-0.074,0.619-0.074,0.703
		c0.146,0.172,0.245,0.257,0.298,0.257h0.293c0.074,0,0.151-0.085,0.224-0.257l-0.076-0.447c0-0.048,0.023-0.109,0.076-0.185
		c0-0.048-0.024-0.12-0.076-0.202c0-3.234-0.22-8.595-0.664-16.068c0-0.041,0.024-0.212,0.072-0.52l-0.146-3.39
		c0.074-0.171,0.146-0.259,0.221-0.259h2.078c1.381,0,2.075-0.106,2.075-0.316v-0.184l-0.22-0.261
		C324.057,209.638,323.419,209.679,322.783,209.679z"/>
	<path fill="#22211E" d="M339.583,222.342h-0.221c-0.151,0.071-0.22,0.146-0.22,0.22v0.075l0.072,0.369
		c0,0.146,0.987,0.294,2.965,0.444c0-0.049,0.027-0.072,0.076-0.072l0.07,0.366v3.632c-0.319,2.966-0.571,4.451-0.742,4.451
		c0,0.566-0.444,0.936-1.333,1.11h-0.298c-0.851-0.345-1.42-0.813-1.703-1.404c-0.893-2.015-1.337-4.933-1.337-8.75
		c0-8.096,0.741-12.32,2.229-12.679h0.296c0.368,0,0.714,0.071,1.038,0.219c0.54,0.349,0.866,0.52,0.961,0.52
		c0.199-0.126,0.293-0.222,0.293-0.297v-0.147c-0.538-0.691-1.28-1.036-2.222-1.036h-0.146l-0.742,0.072
		c-1.633,0.704-2.445,5.126-2.445,13.271c0,4.312,0.543,7.504,1.627,9.562c0.638,0.754,1.352,1.227,2.151,1.407h0.298
		c0.74-0.147,1.112-0.274,1.112-0.37c0.8,0,1.371-1.952,1.699-5.854c0-0.052-0.024-0.124-0.072-0.224
		c0.048-0.506,0.072-0.902,0.072-1.186v-1.855c0-0.737-0.095-1.209-0.294-1.404C340.806,222.608,339.746,222.462,339.583,222.342z"
		/>
	<path fill="#22211E" d="M354.171,216.035c0-0.256,0.024-0.678,0.072-1.259c-0.05,0-0.072-0.023-0.072-0.075l0.072-0.445v-2.373
		c0-0.345-0.028-0.889-0.072-1.628c0.048,0,0.072-0.051,0.072-0.147c-0.089-1.385-0.235-2.075-0.444-2.075h-0.224l-0.295,0.219
		c0.099,0.718,0.173,1.409,0.221,2.075l-0.076,0.148l0.076,0.444v1.781c0,1.334-0.024,2.716-0.076,4.151
		c0.398,7.847,0.595,12.738,0.595,14.682c0,0.662-0.319,1.134-0.959,1.404c-0.904,0-1.57-1.654-2.001-4.966
		c-0.644-4.9-1.188-11.379-1.633-19.42v-0.369c0-0.273-0.122-0.473-0.372-0.592h-0.146l-0.298,0.219
		c0.499,8.28,1.016,14.532,1.559,18.757c0.446,4.739,1.335,7.114,2.669,7.114c1.15,0,1.796-0.719,1.928-2.147
		c0-1.536-0.196-6.602-0.591-15.201v-0.297H354.171z"/>
	<path fill="#22211E" d="M360.544,208.476c-0.199,0.122-0.298,0.219-0.298,0.297c0.15,0.928,0.223,1.964,0.223,3.113v2.075
		c-0.295,3.237-0.446,9.146-0.446,17.721c0,1.335,0.097,1.998,0.298,1.998h0.298c0.137,0,0.229-0.171,0.298-0.518
		c-0.099-0.396-0.151-0.646-0.151-0.741v-4.82c0-1.521,0.024-3.569,0.072-6.155c-0.05-0.195-0.072-0.394-0.072-0.592
		c0.298-4.025,0.444-6.523,0.444-7.487v-0.965c0-2.616-0.171-3.926-0.515-3.926H360.544z"/>
	<path fill="#22211E" d="M367.035,232.941v-6.451c0-2.109-0.076-3.77-0.226-4.966c0-3.708-0.171-8.253-0.515-13.64l-0.074-0.146
		c0.099,0,0.146-0.124,0.146-0.373c-0.122-0.195-0.217-0.295-0.293-0.295h-0.073c-0.269,0-0.446,0.124-0.519,0.369l0.224,2.446
		c0.197,4.312,0.392,9.724,0.593,16.231v5.416l0.072,0.889c-0.048,0-0.072,0.171-0.072,0.516v0.444
		c0.121,0.199,0.22,0.295,0.296,0.295h3.408c0.843,0,1.264-0.096,1.264-0.295v-0.219c-0.077-0.146-0.147-0.222-0.224-0.222H367.035z
		"/>
	<path fill="#22211E" d="M380.378,220.133c0-0.082-0.053-0.209-0.151-0.369l-0.146-7.71c0.099-1.286,0.146-3.088,0.146-5.41
		c0-0.148-0.098-0.273-0.297-0.373h-0.147l-0.297,0.223c0,1.285-0.024,3.112-0.073,5.485l-0.074,0.147
		c0.047,0.086,0.074,0.185,0.074,0.297v3.409c0,0.778,0.024,2.063,0.073,3.856c-2.297,0.051-3.606,0.123-3.926,0.222l-0.072-0.146
		v-1.335c0.146-6.498,0.217-10.206,0.217-11.119c0-0.249-0.122-0.444-0.366-0.591h-0.15l-0.296,0.219
		c0,0.147,0.026,0.321,0.075,0.521c0,1.508-0.075,5.017-0.22,10.526c0,0.937,0.072,2.62,0.22,5.038v1.111
		c0,1.756-0.024,3.235-0.075,4.447c0.051,0.704,0.075,2.062,0.075,4.076v0.668c0.122,0.197,0.219,0.293,0.297,0.293
		c0.137,0,0.284-0.048,0.444-0.146c0-2.422-0.023-4.053-0.072-4.895c0.053-1.495,0.072-3.225,0.072-5.188
		c0-0.913-0.048-1.829-0.146-2.743c0.294-0.099,1.603-0.171,3.928-0.222c0.099,1.35,0.175,5.4,0.219,12.162
		c-0.048,0.308-0.072,0.728-0.072,1.259l0.294,0.223h0.225l0.22-0.148c0-0.728,0.024-1.221,0.074-1.48
		c-0.05-5.75-0.123-9.774-0.222-12.083C380.278,220.355,380.33,220.279,380.378,220.133z"/>
	<path fill="#22211E" d="M386.626,232.807c0-0.047-0.024-0.071-0.076-0.071c-0.349-4.572-0.515-8.599-0.515-12.084v-0.293
		c0.468,0,1.035-0.024,1.703-0.076c0.999,0.099,1.713,0.147,2.147,0.147c0.201,0,0.298-0.071,0.298-0.22v-0.222l-0.22-0.294
		c-0.519,0-1.337-0.048-2.449-0.147c-0.233,0.051-0.553,0.075-0.961,0.075h-0.517c-0.248-5.719-0.372-8.985-0.372-9.785l-0.072-0.89
		c0.853-0.051,1.345-0.075,1.481-0.075l2.152,0.223c0.16,0,0.283-0.124,0.363-0.373v-0.071c0-0.202-0.788-0.373-2.368-0.521
		c0,0.053-0.028,0.076-0.073,0.076l-0.146-0.076c-0.513,0.053-0.905,0.076-1.19,0.076h-0.814l-0.294,0.219
		c0,0.052,0.072,0.444,0.22,1.184c0,1.535,0.122,4.475,0.37,8.824v2.371c0,3.14,0.173,7.065,0.517,11.789
		c0,0.64,0.294,0.961,0.889,0.961c0.393-0.048,1.534-0.096,3.413-0.147c0.199-0.119,0.297-0.219,0.297-0.294v-0.071
		c-0.088-0.185-0.234-0.309-0.444-0.374C389.603,232.661,388.494,232.713,386.626,232.807z"/>
	<path fill="#22211E" d="M401.97,220.728c0-3.055,0.07-6.789,0.205-11.216l-0.018-0.739l-0.188-0.355h-0.219
		c-2.445,7.104-3.671,10.925-3.671,11.454h-0.205c-2.879-7.821-4.466-11.779-4.764-11.882l-0.42,0.224
		c0.426,3.47,0.86,11.67,1.291,24.591c0,0.294,0.141,0.444,0.428,0.444l0.425-0.219l-1.074-21.373v-0.219h0.22
		c2.298,6.45,3.662,9.686,4.098,9.71c0.222-0.171,1.229-3.045,3.019-8.616h0.224v9.061c0.283,8.058,0.562,12.084,0.847,12.084
		l0.448-0.219C402.192,226.145,401.97,221.9,401.97,220.728z"/>
	<path fill="#22211E" d="M134.086,210.002h-3.037c-0.383,0-1.05,0.041-2.004,0.129c-0.048,0-0.247-0.044-0.592-0.129
		c-0.198,0.1-0.297,0.185-0.297,0.26c0,0.219,0.071,0.413,0.219,0.574l2.377-0.205h0.219l0.147,0.075
		c0.099,1.286,0.15,2.709,0.15,4.278c0.444,9.616,0.667,14.954,0.667,16.014c-0.055,0.383-0.075,0.619-0.075,0.705
		c0.146,0.171,0.246,0.26,0.297,0.26h0.294c0.075,0,0.151-0.089,0.223-0.26l-0.075-0.444c0-0.052,0.027-0.113,0.075-0.188
		c0-0.048-0.024-0.116-0.075-0.202c0-3.235-0.219-8.595-0.664-16.068c0-0.037,0.024-0.212,0.072-0.52l-0.146-3.389
		c0.075-0.172,0.146-0.261,0.222-0.261h2.076c1.385,0,2.077-0.103,2.077-0.314v-0.186l-0.219-0.259
		C135.355,209.961,134.719,210.002,134.086,210.002z"/>
	<path fill="#22211E" d="M142.168,208.571c-0.382,0-0.803,0.176-1.258,0.521c-1.727,2.683-2.592,7.497-2.592,14.454l0.219,3.04
		c0.445,4.163,1.556,6.461,3.338,6.896h0.513c0.188,0,0.534-0.1,1.043-0.296c1.43-1.212,2.145-4.424,2.145-9.636
		c0-0.037-0.024-0.186-0.072-0.444c0.048-0.065,0.072-0.236,0.072-0.521v-0.072c0-0.283-0.024-0.455-0.072-0.52
		c0.048-0.27,0.072-0.493,0.072-0.664v-0.293c0-1.003-0.024-1.82-0.072-2.45C144.678,211.91,143.564,208.571,142.168,208.571z
		 M144.836,222.437c0,4.2-0.274,6.943-0.814,8.229c-0.284,1.387-0.93,2.077-1.926,2.077h-0.075c-0.544,0-1.164-0.69-1.854-2.077
		c-0.742-2.103-1.108-4.549-1.108-7.339c0-5.869,0.688-10.268,2.076-13.196c0.11-0.32,0.455-0.591,1.037-0.816
		c0.372,0.26,0.742,0.804,1.111,1.636c1.04,3.765,1.556,7.1,1.556,10.003v1.484H144.836z"/>
	<path fill="#22211E" d="M155.531,216.36c0-0.261,0.024-0.681,0.072-1.262c-0.051,0-0.072-0.024-0.072-0.075l0.072-0.445v-2.375
		c0-0.345-0.028-0.889-0.072-1.627c0.048,0,0.072-0.048,0.072-0.146c-0.089-1.387-0.236-2.076-0.445-2.076h-0.222l-0.297,0.218
		c0.099,0.72,0.174,1.41,0.222,2.077l-0.075,0.146l0.075,0.448v1.779c0,1.333-0.024,2.716-0.075,4.152
		c0.396,7.846,0.598,12.735,0.598,14.679c0,0.664-0.325,1.14-0.964,1.406c-0.903,0-1.57-1.655-2.001-4.967
		c-0.643-4.9-1.187-11.379-1.631-19.42v-0.37c0-0.273-0.123-0.468-0.369-0.592h-0.147l-0.301,0.219
		c0.499,8.281,1.016,14.534,1.56,18.758c0.445,4.741,1.333,7.118,2.668,7.118c1.149,0,1.796-0.719,1.929-2.152
		c0-1.536-0.198-6.598-0.591-15.195v-0.298H155.531z"/>
	<path fill="#22211E" d="M162.057,233.26v-6.45c0-2.111-0.072-3.77-0.222-4.967c0-3.708-0.171-8.25-0.516-13.64l-0.072-0.148
		c0.096,0,0.147-0.121,0.147-0.372c-0.124-0.194-0.223-0.293-0.294-0.293h-0.075c-0.27,0-0.444,0.121-0.516,0.372l0.219,2.442
		c0.202,4.312,0.396,9.724,0.595,16.236v5.409l0.075,0.89c-0.051,0-0.075,0.171-0.075,0.518v0.444
		c0.123,0.198,0.222,0.293,0.294,0.293h3.413c0.838,0,1.258-0.095,1.258-0.293v-0.216c-0.071-0.147-0.146-0.223-0.219-0.223h-4.012
		V233.26z"/>
	<path fill="#22211E" d="M172.732,208.571c-0.379,0-0.8,0.176-1.255,0.521c-1.73,2.683-2.596,7.497-2.596,14.454l0.222,3.04
		c0.444,4.163,1.553,6.461,3.335,6.896h0.516c0.185,0,0.534-0.1,1.04-0.296c1.433-1.212,2.148-4.424,2.148-9.636
		c0-0.037-0.024-0.186-0.075-0.444c0.051-0.065,0.075-0.236,0.075-0.521v-0.072c0-0.283-0.024-0.455-0.075-0.52
		c0.051-0.27,0.075-0.493,0.075-0.664v-0.293c0-1.003-0.024-1.82-0.075-2.45C175.246,211.91,174.13,208.571,172.732,208.571z
		 M175.406,222.437c0,4.2-0.273,6.943-0.818,8.229c-0.284,1.387-0.926,2.077-1.925,2.077h-0.075c-0.54,0-1.16-0.69-1.85-2.077
		c-0.742-2.103-1.112-4.549-1.112-7.339c0-5.869,0.691-10.268,2.076-13.196c0.11-0.32,0.458-0.591,1.041-0.816
		c0.369,0.26,0.742,0.804,1.108,1.636c1.04,3.765,1.56,7.1,1.56,10.003v1.484H175.406z"/>
	<path fill="#22211E" d="M186.098,216.36c0-0.261,0.023-0.681,0.075-1.262c-0.055,0-0.075-0.024-0.075-0.075l0.075-0.445v-2.375
		c0-0.345-0.031-0.889-0.075-1.627c0.047,0,0.075-0.048,0.075-0.146c-0.089-1.387-0.236-2.076-0.448-2.076h-0.219l-0.298,0.218
		c0.1,0.72,0.171,1.41,0.219,2.077l-0.071,0.146l0.071,0.448v1.779c0,1.333-0.023,2.716-0.071,4.152
		c0.396,7.846,0.595,12.735,0.595,14.679c0,0.664-0.321,1.14-0.964,1.406c-0.903,0-1.566-1.655-1.998-4.967
		c-0.646-4.9-1.187-11.379-1.631-19.42v-0.37c0-0.273-0.123-0.468-0.373-0.592h-0.147l-0.298,0.219
		c0.496,8.281,1.016,14.534,1.56,18.758c0.444,4.741,1.334,7.118,2.668,7.118c1.149,0,1.792-0.719,1.926-2.152
		c0-1.536-0.195-6.598-0.592-15.195v-0.298H186.098z"/>
	<path fill="#22211E" d="M191.826,218.751c-0.692-1.831-1.041-3.15-1.041-3.964c0-1.32,0.202-2.521,0.592-3.599
		c0.472-0.975,1.365-1.464,2.675-1.464h0.739c0.246-0.171,0.369-0.29,0.369-0.353v-0.13l-0.218-0.276
		c-1.992,0-3.325,0.484-4.01,1.464c-0.593,1.234-0.89,2.644-0.89,4.227c0.052,0.397,0.075,0.719,0.075,0.965
		c0.446,2.062,0.891,3.335,1.335,3.818c0.657,0.936,1.645,1.908,2.965,2.909c1.679,1.792,2.521,3.619,2.521,5.483
		c0,1.422-0.218,2.578-0.664,3.468c0,0.681-0.814,1.326-2.445,1.945c-0.544,0.053-0.817,0.145-0.817,0.277v0.206
		c0.089,0.185,0.259,0.28,0.52,0.28c0.26,0,0.605-0.12,1.037-0.356c1.21-0.444,1.953-0.979,2.226-1.594
		c0.591-1.31,0.89-2.65,0.89-4.019c0-1.73-0.619-3.485-1.851-5.26C193.409,220.587,192.076,219.243,191.826,218.751z"/>
	<path fill="#22211E" d="M202.631,233.133c0-0.052-0.024-0.075-0.072-0.075c-0.352-4.569-0.52-8.599-0.52-12.084v-0.294
		c0.468,0,1.036-0.024,1.703-0.071c1.001,0.096,1.716,0.146,2.152,0.146c0.197,0,0.296-0.075,0.296-0.222v-0.22l-0.222-0.293
		c-0.517,0-1.337-0.053-2.449-0.148c-0.228,0.049-0.55,0.073-0.957,0.073h-0.52c-0.247-5.719-0.369-8.982-0.369-9.786l-0.075-0.89
		c0.852-0.047,1.344-0.071,1.481-0.071l2.152,0.219c0.161,0,0.283-0.123,0.369-0.374v-0.071c0-0.198-0.793-0.373-2.374-0.519
		c0,0.05-0.027,0.074-0.072,0.074l-0.147-0.074c-0.513,0.05-0.903,0.074-1.187,0.074h-0.817l-0.295,0.22
		c0,0.051,0.076,0.444,0.223,1.188c0,1.531,0.123,4.469,0.365,8.819v2.367c0,3.14,0.175,7.068,0.52,11.789
		c0,0.64,0.294,0.965,0.89,0.965c0.393-0.052,1.532-0.1,3.41-0.146c0.203-0.123,0.297-0.223,0.297-0.295v-0.075
		c-0.085-0.185-0.232-0.308-0.444-0.369C205.613,232.986,204.502,233.034,202.631,233.133z"/>
	<path fill="#22211E" d="M-130.74,195.24c-0.383,0-0.804,0.174-1.258,0.517c-1.731,2.685-2.596,7.5-2.596,14.454l0.222,3.04
		c0.445,4.166,1.557,6.465,3.338,6.898h0.513c0.188,0,0.534-0.099,1.041-0.297c1.433-1.214,2.147-4.427,2.147-9.639
		c0-0.038-0.024-0.185-0.072-0.444c0.048-0.062,0.072-0.232,0.072-0.516v-0.076c0-0.284-0.024-0.455-0.072-0.517
		c0.048-0.271,0.072-0.495,0.072-0.667V207.7c0-1.003-0.024-1.817-0.072-2.449C-128.23,198.578-129.348,195.24-130.74,195.24z
		 M-128.069,209.105c0,4.2-0.273,6.939-0.814,8.227c-0.284,1.388-0.93,2.076-1.929,2.076h-0.072c-0.543,0-1.163-0.688-1.854-2.076
		c-0.742-2.101-1.109-4.546-1.109-7.338c0-5.869,0.688-10.267,2.077-13.194c0.109-0.325,0.456-0.596,1.036-0.817
		c0.37,0.259,0.743,0.8,1.112,1.631c1.04,3.77,1.556,7.104,1.556,10.008v1.484H-128.069z"/>
	<path fill="#22211E" d="M-123.069,205.419c-0.69-1.83-1.04-3.15-1.04-3.968c0-1.32,0.202-2.521,0.592-3.595
		c0.476-0.975,1.364-1.464,2.675-1.464h0.739c0.247-0.171,0.369-0.291,0.369-0.355v-0.13l-0.218-0.274
		c-1.991,0-3.325,0.487-4.009,1.464c-0.592,1.235-0.89,2.644-0.89,4.229c0.055,0.393,0.076,0.715,0.076,0.96
		c0.444,2.063,0.889,3.339,1.334,3.817c0.656,0.94,1.645,1.908,2.965,2.91c1.68,1.796,2.521,3.622,2.521,5.486
		c0,1.424-0.219,2.579-0.663,3.469c0,0.677-0.814,1.327-2.446,1.946c-0.544,0.047-0.814,0.144-0.814,0.277v0.201
		c0.085,0.188,0.256,0.28,0.516,0.28s0.605-0.12,1.036-0.352c1.215-0.445,1.957-0.979,2.227-1.594
		c0.595-1.311,0.893-2.651,0.893-4.023c0-1.73-0.623-3.485-1.854-5.261C-121.488,207.252-122.819,205.911-123.069,205.419z"/>
	<path fill="#22211E" d="M-109.777,196.67h-3.038c-0.383,0-1.05,0.041-2.005,0.13c-0.047,0-0.246-0.048-0.591-0.13
		c-0.199,0.096-0.298,0.184-0.298,0.256c0,0.223,0.072,0.415,0.219,0.574l2.377-0.201h0.219l0.147,0.073
		c0.099,1.284,0.15,2.71,0.15,4.281c0.445,9.614,0.667,14.949,0.667,16.013c-0.054,0.381-0.075,0.619-0.075,0.702
		c0.147,0.174,0.247,0.26,0.297,0.26h0.294c0.076,0,0.151-0.086,0.223-0.26l-0.075-0.445c0-0.047,0.024-0.109,0.075-0.184
		c0-0.049-0.023-0.12-0.075-0.202c0-3.239-0.219-8.596-0.664-16.068c0-0.042,0.024-0.212,0.072-0.521l-0.147-3.389
		c0.075-0.172,0.147-0.261,0.222-0.261h2.077c1.381,0,2.076-0.106,2.076-0.314V196.8l-0.219-0.26
		C-108.509,196.626-109.145,196.67-109.777,196.67z"/>
	<path fill="#22211E" d="M-97.547,214.273c-0.653-6.607-1.669-12.039-3.041-16.287c-0.493-1.419-1.091-2.291-1.796-2.613h-0.071
		c-0.486,0-0.842,0.575-1.078,1.724c-0.567,3.965-0.865,7.729-0.889,11.287c0,0.694,0.024,1.379,0.076,2.055
		c0,1.062-0.195,4.201-0.575,9.417c0,0.541,0.215,0.813,0.65,0.813c0.222-0.136,0.338-0.245,0.338-0.332
		c0-0.146-0.062-0.308-0.171-0.481l0.502-6.878v-2.87c0-0.297,1.334-0.567,4.005-0.816l0.574,0.075
		c0.38,2.89,0.634,4.527,0.739,4.907c0.396,3.551,0.694,5.514,0.889,5.897c0.273,0,0.441-0.083,0.506-0.24
		C-96.893,218.308-97.116,216.425-97.547,214.273z M-99.099,208.476c-1.447,0-2.952,0.215-4.505,0.646v-0.239
		c0-1.198,0.024-1.799,0.072-1.799c0-4.386,0.363-7.963,1.078-10.727c0.232,0.095,0.526,0.533,0.889,1.313
		c1.646,5.633,2.466,9.203,2.466,10.712V208.476z"/>
	<path fill="#22211E" d="M-88.107,208.214c-0.629-1.063-1.447-1.78-2.446-2.151v-0.068c0.26-0.336,0.407-0.512,0.445-0.521
		c1.334-1.977,2.124-3.828,2.374-5.559v-1.409c-0.349-3.211-1.282-4.818-2.818-4.818c-0.8,0-1.618,0.349-2.442,1.037
		c0.195,1.183,0.346,2.444,0.445,3.781c0,4.587,0.294,11.133,0.889,19.646c0,1.68,0.346,2.521,1.036,2.521h0.147
		c0.677-0.161,1.371-0.63,2.076-1.405c1.088-1.783,1.631-3.957,1.631-6.523C-87.006,210.699-87.457,209.187-88.107,208.214z
		 M-90.556,219.927l-0.298-0.299c-0.297-5.238-0.543-9.018-0.742-11.341c0-5.718-0.195-10.116-0.591-13.195
		c0.468-0.444,1.012-0.667,1.631-0.667c1.136,0,1.827,1.481,2.076,4.45v1.187c-0.482,2.21-1.522,4.214-3.116,6.003v0.222
		c0.175,0.298,0.472,0.444,0.889,0.444c1.149,0.667,1.892,1.482,2.227,2.446c0.247,0,0.568,1.189,0.961,3.561
		c0,1.655-0.294,3.307-0.889,4.965C-88.811,218.764-89.53,219.508-90.556,219.927z"/>
	<path fill="#22211E" d="M-78.821,197.986c-0.496-1.419-1.094-2.291-1.799-2.613h-0.071c-0.482,0-0.841,0.575-1.077,1.724
		c-0.565,3.965-0.862,7.729-0.89,11.287c0,0.694,0.027,1.379,0.076,2.055c0,1.062-0.192,4.201-0.575,9.417
		c0,0.541,0.215,0.813,0.65,0.813c0.222-0.136,0.338-0.245,0.338-0.332c0-0.146-0.062-0.308-0.168-0.481l0.5-6.878v-2.87
		c0-0.297,1.333-0.567,4.005-0.816l0.574,0.075c0.38,2.89,0.633,4.527,0.739,4.907c0.396,3.551,0.694,5.514,0.893,5.897
		c0.271,0,0.441-0.083,0.502-0.24c0-1.618-0.216-3.502-0.65-5.653C-76.434,207.666-77.449,202.234-78.821,197.986z M-77.336,208.476
		c-1.447,0-2.949,0.215-4.505,0.646v-0.239c0-1.198,0.024-1.799,0.072-1.799c0-4.386,0.362-7.963,1.077-10.727
		c0.233,0.095,0.527,0.533,0.89,1.313c1.645,5.633,2.466,9.203,2.466,10.712V208.476z"/>
	<path fill="#22211E" d="M-71.036,194.128h-0.075l0.373,14.455c-0.051,1.604-0.072,3.389-0.072,5.339v0.071l0.072,0.147h-0.072
		c0.051,2.079,0.151,3.684,0.298,4.818l-0.076,0.148c0.062,0.792,0.161,1.186,0.298,1.186c0.147,0,0.445-0.074,0.889-0.222
		c3.509-3.064,5.264-7.015,5.264-11.861v-0.37c0-3.396-0.79-6.711-2.373-9.932C-67.565,196.029-69.073,194.775-71.036,194.128z
		 M-64.883,208.434c0,2.214-0.568,4.588-1.7,7.118c-0.978,1.584-2.038,2.867-3.188,3.855c-0.202-2.076-0.298-4.051-0.298-5.929
		v-0.889c0-1.396,0.024-2.756,0.072-4.076c-0.15-3.213-0.25-7.61-0.297-13.199v-0.075c0.974,0.32,2.014,1.31,3.112,2.965
		c1.536,3.226,2.298,6.389,2.298,9.488V208.434L-64.883,208.434z"/>
	<path fill="#22211E" d="M-2.32,303.685c-0.384,0-0.804,0.171-1.26,0.518c-1.73,2.682-2.595,7.5-2.595,14.456l0.223,3.038
		c0.444,4.162,1.556,6.463,3.338,6.895h0.513c0.188,0,0.534-0.1,1.043-0.294c1.429-1.214,2.145-4.43,2.145-9.639
		c0-0.041-0.024-0.188-0.072-0.444c0.048-0.065,0.072-0.236,0.072-0.52v-0.075c0-0.28-0.024-0.455-0.072-0.513
		c0.048-0.273,0.072-0.497,0.072-0.668v-0.301c0-1.001-0.024-1.815-0.072-2.441C0.19,307.02-0.927,303.685-2.32,303.685z
		 M0.351,317.548c0,4.199-0.274,6.943-0.814,8.229c-0.284,1.387-0.93,2.08-1.929,2.08h-0.072c-0.544,0-1.163-0.693-1.854-2.08
		c-0.742-2.099-1.108-4.549-1.108-7.339c0-5.869,0.688-10.269,2.076-13.196c0.109-0.324,0.455-0.594,1.036-0.816
		c0.37,0.26,0.742,0.804,1.111,1.631c1.041,3.77,1.557,7.104,1.557,10.008v1.484H0.351z"/>
	<path fill="#22211E" d="M6.152,328.37v-6.447c0-2.117-0.076-3.769-0.226-4.97c0-3.704-0.171-8.253-0.513-13.645l-0.075-0.146
		c0.099,0,0.147-0.12,0.147-0.367c-0.12-0.197-0.219-0.297-0.294-0.297H5.119c-0.271,0-0.445,0.124-0.521,0.365l0.223,2.449
		c0.198,4.31,0.393,9.725,0.595,16.233v5.41l0.072,0.896c-0.048,0-0.072,0.171-0.072,0.514v0.445c0.124,0.2,0.219,0.297,0.294,0.297
		h3.41c0.841,0,1.262-0.097,1.262-0.297v-0.22c-0.075-0.146-0.147-0.222-0.222-0.222H6.152z"/>
	<path fill="#22211E" d="M16.827,303.685c-0.384,0-0.801,0.171-1.259,0.518c-1.727,2.682-2.592,7.5-2.592,14.456l0.219,3.038
		c0.444,4.162,1.556,6.463,3.337,6.895h0.517c0.185,0,0.53-0.1,1.039-0.294c1.433-1.214,2.145-4.43,2.145-9.639
		c0-0.041-0.024-0.188-0.072-0.444c0.048-0.065,0.072-0.236,0.072-0.52v-0.075c0-0.28-0.024-0.455-0.072-0.513
		c0.048-0.273,0.072-0.497,0.072-0.668v-0.301c0-1.001-0.024-1.815-0.072-2.441C19.333,307.02,18.222,303.685,16.827,303.685z
		 M19.494,317.548c0,4.199-0.274,6.943-0.814,8.229c-0.284,1.387-0.931,2.08-1.926,2.08h-0.075c-0.544,0-1.163-0.693-1.854-2.08
		c-0.743-2.099-1.109-4.549-1.109-7.339c0-5.869,0.691-10.269,2.077-13.196c0.109-0.324,0.455-0.594,1.036-0.816
		c0.373,0.26,0.742,0.804,1.112,1.631c1.04,3.77,1.556,7.104,1.556,10.008v1.484H19.494z"/>
	<path fill="#22211E" d="M29.786,324.292c-0.345-4.617-1.607-7.188-3.783-7.709c1.878-1.457,2.818-3.807,2.818-7.042V308.8
		c0-0.976-0.42-2.483-1.255-4.522c-0.595-1.002-1.365-1.693-2.298-2.076c-0.756-0.122-1.201-0.27-1.334-0.444h-0.151l-0.297,0.219
		c0.393,3.052,0.718,7.97,0.961,14.752c-0.147,0-0.271,0.099-0.366,0.297v0.223c0.082,0.199,0.229,0.299,0.444,0.299v4.445
		c0,0.681,0.048,2.069,0.147,4.155l-0.076,0.517c0.175,0.201,0.294,0.294,0.37,0.294c0.198,0,0.346-0.093,0.444-0.294v-0.15
		c0-0.318-0.047-1.7-0.146-4.148v-2.818c0-0.521-0.027-1.311-0.076-2.377h0.076c0.592,0,1.282,0.373,2.076,1.114
		c1.135,1.95,1.703,3.855,1.703,5.704v2.672c0,0.497,0.024,1.239,0.072,2.228l0.294,0.218h0.222l0.219-0.146
		c-0.048-0.814-0.072-1.434-0.072-1.852v-2.815H29.786z M25.185,316.214c-0.243-5.339-0.516-9.812-0.811-13.418h0.219
		c0.417,0,1.036,0.367,1.85,1.112c1.087,2.011,1.631,3.67,1.631,4.966v1.036C28.079,312.807,27.118,314.905,25.185,316.214z"/>
	<path fill="#22211E" d="M36.346,303.685c-0.383,0-0.804,0.171-1.259,0.518c-1.73,2.682-2.596,7.5-2.596,14.456l0.222,3.038
		c0.445,4.162,1.556,6.463,3.338,6.895h0.513c0.188,0,0.534-0.1,1.04-0.294c1.433-1.214,2.147-4.43,2.147-9.639
		c0-0.041-0.023-0.188-0.072-0.444c0.048-0.065,0.072-0.236,0.072-0.52v-0.075c0-0.28-0.023-0.455-0.072-0.513
		c0.048-0.273,0.072-0.497,0.072-0.668v-0.301c0-1.001-0.023-1.815-0.072-2.441C38.857,307.02,37.738,303.685,36.346,303.685z
		 M39.017,317.548c0,4.199-0.273,6.943-0.814,8.229c-0.284,1.387-0.93,2.08-1.929,2.08h-0.072c-0.543,0-1.162-0.693-1.854-2.08
		c-0.742-2.099-1.108-4.549-1.108-7.339c0-5.869,0.688-10.269,2.076-13.196c0.109-0.324,0.455-0.594,1.036-0.816
		c0.37,0.26,0.743,0.804,1.108,1.631c1.043,3.77,1.56,7.104,1.56,10.008v1.484H39.017z"/>
	<path fill="#22211E" d="M51.022,310.262c0-1.409,0.072-3.513,0.205-6.317l-0.424-0.221c-0.236,0-0.373,0.14-0.407,0.423v5.265
		c0,0.581-0.052,1.36-0.15,2.335c0,0.432,0.006,0.722,0.02,0.869c-0.065,1.285-0.093,2.038-0.093,2.265
		c0,0.738,0.144,4.11,0.428,10.117v0.629h-0.206c-2.114-6.413-3.314-10.414-3.598-12.009c-1.963-6.733-3.082-10.1-3.349-10.1
		c-0.236,0-0.379,0.141-0.428,0.427v12.844c0,3.41,0.141,7.271,0.428,11.581c0,0.273,0.13,0.407,0.404,0.407h0.424
		c-0.418-3.582-0.63-8.141-0.63-13.675c0-1.098,0.052-3.02,0.148-5.763l-0.018-0.634c0-0.591-0.047-1.405-0.13-2.441l0.021-0.407
		l0.147,0.239l1.946,6.688c3.226,10.947,4.983,16.42,5.265,16.42l0.407-0.208c-0.274-6.789-0.407-12.337-0.407-16.64v-2.094H51.022z
		"/>
	<path fill="#22211E" d="M-56.432,427.454c0-6.857-0.072-11.209-0.219-13.049c0.047-0.621,0.072-0.943,0.072-0.964
		c-0.161-0.099-0.311-0.146-0.448-0.146c-0.246,0.185-0.369,0.308-0.369,0.369v0.516c0,0.768,0.051,1.481,0.147,2.149
		c0.055,4.336,0.076,7.873,0.076,10.602v0.89c0,0.517,0.051,2.075,0.146,4.67v0.369c-0.194,2.814-0.715,4.224-1.556,4.224h-0.072
		c-0.235,0-0.482-0.072-0.742-0.219c-0.742,0-1.112-1.161-1.112-3.482c0-0.274-0.123-0.447-0.369-0.52
		c-0.086,0-0.212,0.075-0.37,0.222c0.048,2.187,0.198,3.349,0.445,3.485c0,0.507,0.667,0.923,2.001,1.255h0.297
		c1.297,0,2.039-1.703,2.223-5.117c-0.1-2.678-0.147-4.261-0.147-4.74v-0.513H-56.432z"/>
	<path fill="#22211E" d="M-48.035,415.148c-0.496-1.423-1.094-2.292-1.799-2.613h-0.072c-0.486,0-0.842,0.574-1.078,1.725
		c-0.564,3.963-0.865,7.726-0.889,11.282c0,0.695,0.024,1.38,0.076,2.06c0,1.063-0.192,4.2-0.575,9.415
		c0,0.542,0.215,0.812,0.65,0.812c0.222-0.137,0.338-0.243,0.338-0.336c0-0.146-0.062-0.308-0.167-0.478l0.499-6.88v-2.872
		c0-0.294,1.334-0.567,4.005-0.813l0.575,0.075c0.38,2.89,0.633,4.527,0.739,4.908c0.396,3.546,0.694,5.51,0.892,5.896
		c0.271,0,0.441-0.081,0.503-0.242c0-1.618-0.219-3.503-0.65-5.65C-45.648,424.827-46.664,419.396-48.035,415.148z M-46.551,425.641
		c-1.447,0-2.948,0.216-4.505,0.646v-0.235c0-1.204,0.024-1.803,0.072-1.803c0-4.385,0.363-7.958,1.078-10.727
		c0.232,0.097,0.526,0.534,0.889,1.317c1.645,5.63,2.466,9.204,2.466,10.708V425.641z"/>
	<path fill="#22211E" d="M-32.706,435.458c-0.854,1.087-1.648,1.631-2.377,1.631c-0.567-0.024-1.234-0.366-1.997-1.036
		c-0.633-0.801-1.125-2.336-1.488-4.594c-0.591-3.092-0.889-5.736-0.889-7.934v-1.259c0-3.265,0.499-5.832,1.488-7.711
		c0-0.358,0.615-0.752,1.85-1.187c0.369,0,0.715,0.199,1.036,0.596h0.298c0.199-0.124,0.294-0.223,0.294-0.298
		c0-0.485-0.445-0.803-1.333-0.964h-0.517c-0.212,0-0.677,0.174-1.406,0.52c-1.546,1.174-2.36,4.262-2.449,9.266v0.444
		c0,2.449,0.123,4.204,0.373,5.264c0.653,4.942,1.419,7.761,2.298,8.451c0.801,0.705,1.563,1.102,2.295,1.188h0.075
		c0.379,0,0.8-0.096,1.259-0.299c1.091-0.686,1.635-1.254,1.635-1.698v-0.15c-0.075-0.147-0.15-0.224-0.223-0.224h-0.222V435.458z"
		/>
	<path fill="#22211E" d="M-25.595,415.148c-0.492-1.423-1.091-2.292-1.796-2.613h-0.072c-0.485,0-0.841,0.574-1.077,1.725
		c-0.568,3.963-0.866,7.726-0.89,11.282c0,0.695,0.024,1.38,0.076,2.06c0,1.063-0.196,4.2-0.575,9.415
		c0,0.542,0.216,0.812,0.65,0.812c0.222-0.137,0.335-0.243,0.335-0.336c0-0.146-0.058-0.308-0.168-0.478l0.503-6.88v-2.872
		c0-0.294,1.333-0.567,4.005-0.813l0.575,0.075c0.379,2.89,0.629,4.527,0.738,4.908c0.397,3.546,0.694,5.51,0.889,5.896
		c0.274,0,0.442-0.081,0.506-0.242c0-1.618-0.219-3.503-0.653-5.65C-23.204,424.827-24.22,419.396-25.595,415.148z M-24.107,425.641
		c-1.447,0-2.952,0.216-4.504,0.646v-0.235c0-1.204,0.023-1.803,0.072-1.803c0-4.385,0.362-7.958,1.077-10.727
		c0.233,0.097,0.527,0.534,0.89,1.317c1.645,5.63,2.466,9.204,2.466,10.708V425.641z"/>
	<path fill="#22211E" d="M-251.666,387.413c-0.199,0.123-0.294,0.219-0.294,0.299v0.218c0,0.1,0.052,0.146,0.147,0.146
		l-0.366,13.497c0,0.273,0.047,1.063,0.147,2.374c-0.147,0-0.247,0.1-0.297,0.295c0,0.149,0.096,0.273,0.297,0.372
		c0,0.229,0.024,0.8,0.072,1.7c0,0.249-0.027,0.622-0.072,1.111l0.219,3.115c-0.051,0-0.072,0.024-0.072,0.075
		c0.062,0.801,0.137,1.447,0.219,1.929c-0.048,0-0.072,0.024-0.072,0.075v0.514c0.123,0.198,0.219,0.298,0.294,0.298h0.15
		c0.146-0.062,0.294-0.284,0.444-0.663v-0.224c0-0.369-0.075-0.568-0.222-0.591c0-0.422-0.072-2.028-0.219-4.819
		c0-0.064,0.024-0.311,0.072-0.742c-0.048-0.431-0.072-0.975-0.072-1.631v-0.075c0-0.111,0.294-0.186,0.889-0.22
		c0.927-0.458,1.642-1.121,2.148-2.001c1.088-3.68,1.632-7.069,1.632-10.154c-0.052-0.657-0.147-1.225-0.298-1.703
		C-247.775,388.476-249.355,387.413-251.666,387.413z M-247.439,393.789c-0.53,5.537-1.224,8.574-2.076,9.121
		c-0.568,0.596-1.139,0.89-1.707,0.89l-0.147-0.072c0-0.396-0.024-1.11-0.072-2.15l0.37-13.418c0.554,0.099,1.054,0.218,1.481,0.366
		c1.488,1.043,2.227,2.198,2.227,3.484C-247.367,392.294-247.391,392.888-247.439,393.789z"/>
	<path fill="#22211E" d="M-238.711,413.434c1.149,0,1.792-0.715,1.926-2.151c0-1.528-0.195-6.597-0.592-15.196v-0.297
		c0-0.257,0.023-0.674,0.075-1.256c-0.055,0-0.075-0.027-0.075-0.076l0.075-0.444v-2.368c0-0.35-0.031-0.891-0.075-1.633
		c0.048,0,0.075-0.055,0.075-0.147c-0.089-1.389-0.236-2.079-0.444-2.079h-0.222l-0.298,0.222c0.099,0.716,0.171,1.404,0.223,2.077
		l-0.075,0.147l0.075,0.444v1.777c0,1.335-0.027,2.72-0.075,4.156c0.396,7.846,0.595,12.737,0.595,14.673
		c0,0.671-0.322,1.14-0.961,1.41c-0.906,0-1.569-1.656-2-4.967c-0.647-4.904-1.187-11.38-1.631-19.424v-0.37
		c0-0.27-0.124-0.468-0.373-0.591h-0.147l-0.298,0.222c0.497,8.277,1.016,14.526,1.56,18.751
		C-240.934,411.06-240.044,413.434-238.711,413.434z"/>
	<path fill="#22211E" d="M-229.978,412.563c0-0.049-0.024-0.072-0.076-0.072c-0.349-4.576-0.517-8.603-0.517-12.084v-0.298
		c0.468,0,1.037-0.023,1.7-0.075c1.002,0.1,1.717,0.15,2.151,0.15c0.202,0,0.297-0.071,0.297-0.219v-0.226l-0.219-0.298
		c-0.52,0-1.338-0.048-2.449-0.147c-0.232,0.052-0.554,0.075-0.961,0.075h-0.516c-0.25-5.721-0.374-8.98-0.374-9.785l-0.072-0.889
		c0.852-0.052,1.344-0.076,1.481-0.076l2.151,0.227c0.161,0,0.284-0.127,0.366-0.373v-0.072c0-0.197-0.79-0.369-2.37-0.516
		c0,0.047-0.027,0.071-0.075,0.071l-0.147-0.071c-0.51,0.047-0.903,0.071-1.187,0.071h-0.814l-0.294,0.223
		c0,0.052,0.072,0.445,0.219,1.186c0,1.537,0.124,4.475,0.37,8.825v2.374c0,3.137,0.174,7.066,0.516,11.786
		c0,0.643,0.294,0.962,0.89,0.962c0.393-0.049,1.535-0.097,3.414-0.148c0.198-0.123,0.298-0.219,0.298-0.297v-0.071
		c-0.089-0.188-0.236-0.308-0.445-0.37C-227.003,412.415-228.112,412.464-229.978,412.563z"/>
	<path fill="#22211E" d="M-215.5,394.586c0-1.409,0.071-3.513,0.202-6.317l-0.421-0.224c-0.236,0-0.373,0.143-0.407,0.425v5.265
		c0,0.581-0.055,1.358-0.15,2.336c0,0.432,0.007,0.722,0.021,0.868c-0.068,1.286-0.096,2.04-0.096,2.265
		c0,0.739,0.144,4.111,0.428,10.117v0.629h-0.202c-2.117-6.413-3.314-10.414-3.598-12.008c-1.963-6.734-3.082-10.101-3.352-10.101
		c-0.232,0-0.376,0.141-0.427,0.428v12.843c0,3.411,0.14,7.268,0.427,11.582c0,0.273,0.133,0.407,0.407,0.407h0.424
		c-0.417-3.582-0.63-8.141-0.63-13.675c0-1.099,0.052-3.023,0.147-5.764l-0.02-0.633c0-0.592-0.045-1.405-0.127-2.445l0.021-0.403
		l0.147,0.235l1.946,6.69c3.225,10.948,4.98,16.421,5.264,16.421l0.407-0.208c-0.274-6.79-0.407-12.337-0.407-16.641v-2.093H-215.5z
		"/>
	<path fill="#22211E" d="M-207.199,389.437h-3.038c-0.38,0-1.05,0.046-2.004,0.131c-0.048,0-0.243-0.048-0.592-0.131
		c-0.198,0.096-0.297,0.186-0.297,0.258c0,0.222,0.075,0.413,0.222,0.574l2.374-0.205h0.222l0.147,0.071
		c0.096,1.286,0.15,2.713,0.15,4.285c0.445,9.61,0.664,14.951,0.664,16.008c-0.051,0.383-0.072,0.622-0.072,0.704
		c0.147,0.179,0.243,0.26,0.297,0.26h0.294c0.072,0,0.15-0.081,0.218-0.26l-0.071-0.445c0-0.047,0.024-0.105,0.071-0.184
		c0-0.052-0.023-0.116-0.071-0.205c0-3.239-0.223-8.592-0.667-16.072c0-0.038,0.024-0.209,0.075-0.514l-0.147-3.393
		c0.072-0.177,0.147-0.26,0.219-0.26h2.076c1.385,0,2.079-0.105,2.079-0.314v-0.188l-0.222-0.257
		C-205.927,389.389-206.571,389.437-207.199,389.437z"/>
	<path fill="#22211E" d="M-196.002,412.859v-0.071c-0.089-0.188-0.235-0.308-0.445-0.368c-0.362,0-1.47,0.047-3.337,0.146
		c0-0.048-0.024-0.071-0.076-0.071c-0.348-4.577-0.516-8.604-0.516-12.084v-0.298c0.468,0,1.036-0.024,1.7-0.075
		c1.002,0.1,1.717,0.149,2.151,0.149c0.198,0,0.297-0.07,0.297-0.218v-0.229l-0.219-0.298c-0.519,0-1.34-0.048-2.449-0.147
		c-0.232,0.052-0.554,0.075-0.961,0.075h-0.516c-0.25-5.721-0.373-8.98-0.373-9.785l-0.072-0.889
		c0.848-0.052,1.344-0.076,1.481-0.076l2.151,0.227c0.161,0,0.28-0.127,0.366-0.373v-0.072c0-0.197-0.79-0.369-2.37-0.516
		c0,0.047-0.027,0.071-0.075,0.071l-0.147-0.071c-0.51,0.047-0.903,0.071-1.187,0.071h-0.814l-0.294,0.223
		c0,0.052,0.072,0.445,0.219,1.186c0,1.537,0.123,4.475,0.37,8.825v2.374c0,3.137,0.174,7.066,0.516,11.786
		c0,0.643,0.294,0.962,0.89,0.962c0.393-0.049,1.535-0.097,3.413-0.148C-196.101,413.035-196.002,412.939-196.002,412.859z"/>
	<path fill="#22211E" d="M-251.034,450.647V444.2c0-2.117-0.075-3.769-0.226-4.97c0-3.708-0.171-8.253-0.517-13.645l-0.072-0.146
		c0.099,0,0.147-0.118,0.147-0.366c-0.123-0.201-0.222-0.296-0.294-0.296h-0.075c-0.267,0-0.445,0.122-0.516,0.364l0.219,2.449
		c0.202,4.31,0.396,9.725,0.598,16.233v5.41l0.072,0.896c-0.048,0-0.072,0.171-0.072,0.515v0.444
		c0.12,0.197,0.219,0.297,0.294,0.297h3.41c0.842,0,1.262-0.1,1.262-0.297v-0.22c-0.075-0.146-0.147-0.222-0.222-0.222H-251.034
		L-251.034,450.647z"/>
	<path fill="#22211E" d="M-239.251,428.709c-0.493-1.423-1.091-2.291-1.795-2.612h-0.076c-0.482,0-0.838,0.574-1.074,1.724
		c-0.568,3.964-0.865,7.727-0.889,11.284c0,0.694,0.024,1.378,0.075,2.059c0,1.064-0.195,4.2-0.575,9.416
		c0,0.54,0.216,0.81,0.65,0.81c0.222-0.137,0.335-0.246,0.335-0.334c0-0.148-0.058-0.308-0.167-0.48l0.502-6.881v-2.869
		c0-0.294,1.334-0.567,4.005-0.813l0.575,0.075c0.379,2.887,0.629,4.527,0.739,4.907c0.396,3.548,0.694,5.51,0.889,5.896
		c0.273,0,0.441-0.082,0.506-0.242c0-1.618-0.219-3.503-0.653-5.65C-236.86,438.385-237.876,432.954-239.251,428.709z
		 M-237.767,439.199c-1.443,0-2.948,0.216-4.501,0.646v-0.239c0-1.2,0.024-1.799,0.072-1.799c0-4.385,0.362-7.958,1.078-10.727
		c0.232,0.097,0.526,0.534,0.889,1.317c1.646,5.63,2.462,9.204,2.462,10.709V439.199z"/>
	<path fill="#22211E" d="M-217.341,446.57c-0.345-4.621-1.608-7.189-3.779-7.71c1.874-1.456,2.818-3.806,2.818-7.042v-0.742
		c0-0.975-0.42-2.482-1.259-4.521c-0.595-1.002-1.361-1.693-2.298-2.076c-0.756-0.123-1.201-0.27-1.334-0.444h-0.15l-0.297,0.219
		c0.396,3.051,0.718,7.97,0.964,14.752c-0.147,0-0.271,0.1-0.369,0.297v0.223c0.085,0.199,0.232,0.298,0.444,0.298v4.446
		c0,0.681,0.051,2.069,0.147,4.155l-0.072,0.517c0.17,0.201,0.294,0.294,0.366,0.294c0.202,0,0.349-0.093,0.444-0.294v-0.15
		c0-0.317-0.047-1.7-0.147-4.148v-2.818c0-0.521-0.027-1.311-0.072-2.377h0.072c0.595,0,1.283,0.373,2.08,1.114
		c1.132,1.95,1.7,3.855,1.7,5.705v2.671c0,0.497,0.027,1.238,0.075,2.228l0.294,0.218h0.219l0.222-0.146
		c-0.048-0.813-0.075-1.433-0.075-1.854v-2.811H-217.341z M-221.934,438.492c-0.247-5.34-0.52-9.813-0.813-13.419h0.222
		c0.417,0,1.036,0.366,1.85,1.109c1.087,2.014,1.631,3.673,1.631,4.965v1.04C-219.044,435.082-220.005,437.181-221.934,438.492z"/>
	<path fill="#22211E" d="M-211.444,450.517c0-0.049-0.024-0.072-0.076-0.072c-0.349-4.576-0.516-8.602-0.516-12.084v-0.297
		c0.468,0,1.036-0.024,1.7-0.075c1.002,0.099,1.717,0.15,2.151,0.15c0.202,0,0.297-0.072,0.297-0.219v-0.223l-0.219-0.299
		c-0.52,0-1.337-0.047-2.449-0.146c-0.232,0.052-0.554,0.075-0.961,0.075h-0.516c-0.25-5.718-0.373-8.98-0.373-9.785l-0.072-0.889
		c0.852-0.052,1.344-0.075,1.481-0.075l2.151,0.226c0.161,0,0.284-0.126,0.366-0.374v-0.071c0-0.198-0.79-0.369-2.37-0.517
		c0,0.048-0.027,0.075-0.075,0.075l-0.147-0.075c-0.51,0.048-0.903,0.075-1.187,0.075h-0.814l-0.294,0.22
		c0,0.052,0.072,0.444,0.219,1.188c0,1.535,0.124,4.473,0.37,8.823v2.374c0,3.137,0.174,7.066,0.516,11.787
		c0,0.642,0.294,0.96,0.89,0.96c0.393-0.048,1.535-0.096,3.413-0.146c0.199-0.124,0.297-0.219,0.297-0.298v-0.071
		c-0.089-0.188-0.235-0.309-0.444-0.369C-208.469,450.369-209.577,450.422-211.444,450.517z"/>
	<path fill="#22211E" d="M-203.328,426.185c-0.198,0.124-0.298,0.223-0.298,0.294c0.151,0.931,0.223,1.971,0.223,3.12v2.075
		c-0.294,3.236-0.445,9.143-0.445,17.718c0,1.337,0.1,2.001,0.298,2.001h0.297c0.137,0,0.233-0.176,0.298-0.518
		c-0.1-0.394-0.151-0.646-0.151-0.738v-4.819c0-1.525,0.023-3.574,0.075-6.156c-0.055-0.199-0.075-0.394-0.075-0.595
		c0.297-4.023,0.445-6.52,0.445-7.488v-0.964c0-2.616-0.171-3.926-0.513-3.926h-0.154V426.185z"/>
	<path fill="#22211E" d="M-190.625,432.54c0-1.408,0.068-3.513,0.202-6.317l-0.424-0.221c-0.236,0-0.373,0.14-0.407,0.423v5.264
		c0,0.582-0.052,1.358-0.15,2.336c0,0.432,0.007,0.722,0.021,0.87c-0.064,1.284-0.092,2.038-0.092,2.263
		c0,0.739,0.144,4.111,0.427,10.117v0.63h-0.205c-2.114-6.413-3.311-10.415-3.595-12.009c-1.967-6.733-3.084-10.1-3.352-10.1
		c-0.236,0-0.379,0.14-0.427,0.427v12.844c0,3.41,0.14,7.271,0.427,11.581c0,0.273,0.134,0.407,0.404,0.407h0.424
		c-0.417-3.582-0.629-8.141-0.629-13.675c0-1.098,0.051-3.023,0.147-5.763l-0.018-0.634c0-0.592-0.044-1.405-0.129-2.441
		l0.021-0.407l0.146,0.235l1.946,6.69c3.229,10.948,4.983,16.421,5.267,16.421l0.404-0.208c-0.273-6.789-0.404-12.337-0.404-16.64
		v-2.094H-190.625z"/>
	<path fill="#22211E" d="M-183.029,428.709c-0.496-1.423-1.095-2.291-1.799-2.612h-0.072c-0.486,0-0.842,0.574-1.078,1.724
		c-0.567,3.964-0.865,7.727-0.889,11.284c0,0.694,0.024,1.378,0.075,2.059c0,1.064-0.194,4.2-0.574,9.416
		c0,0.54,0.216,0.81,0.65,0.81c0.223-0.137,0.338-0.246,0.338-0.334c0-0.148-0.061-0.308-0.171-0.48l0.503-6.881v-2.869
		c0-0.294,1.334-0.567,4.005-0.813l0.575,0.075c0.379,2.887,0.632,4.527,0.738,4.907c0.397,3.548,0.694,5.51,0.89,5.896
		c0.273,0,0.441-0.082,0.506-0.242c0-1.618-0.219-3.503-0.654-5.65C-180.642,438.385-181.657,432.954-183.029,428.709z
		 M-181.545,439.199c-1.447,0-2.948,0.216-4.504,0.646v-0.239c0-1.2,0.023-1.799,0.071-1.799c0-4.385,0.363-7.958,1.078-10.727
		c0.232,0.097,0.527,0.534,0.889,1.317c1.645,5.63,2.466,9.204,2.466,10.709V439.199z"/>
	<path fill="#22211E" d="M-156.97,332.477c-0.199,0.123-0.294,0.223-0.294,0.298v0.222c0,0.1,0.048,0.147,0.146,0.147l-0.366,13.493
		c0,0.273,0.048,1.066,0.147,2.377c-0.147,0-0.247,0.095-0.298,0.293c0,0.151,0.096,0.274,0.298,0.37
		c0,0.232,0.024,0.805,0.072,1.703c0,0.25-0.028,0.619-0.072,1.108l0.218,3.119c-0.051,0-0.072,0.024-0.072,0.072
		c0.062,0.804,0.137,1.447,0.219,1.932c-0.048,0-0.072,0.024-0.072,0.072v0.516c0.12,0.199,0.219,0.299,0.294,0.299h0.15
		c0.147-0.065,0.294-0.283,0.445-0.668v-0.219c0-0.369-0.075-0.567-0.223-0.596c0-0.416-0.072-2.023-0.219-4.818
		c0-0.062,0.024-0.312,0.072-0.742c-0.047-0.43-0.072-0.971-0.072-1.63v-0.073c0-0.109,0.294-0.188,0.89-0.222
		c0.927-0.456,1.641-1.122,2.147-2.001c1.088-3.68,1.632-7.065,1.632-10.152c-0.052-0.66-0.147-1.228-0.298-1.705
		C-153.078,333.545-154.658,332.477-156.97,332.477z M-152.743,338.852c-0.533,5.537-1.224,8.575-2.076,9.118
		c-0.567,0.6-1.139,0.893-1.707,0.893l-0.146-0.075c0-0.396-0.024-1.111-0.072-2.15l0.369-13.418c0.554,0.1,1.05,0.222,1.481,0.369
		c1.488,1.04,2.227,2.199,2.227,3.485C-152.671,337.357-152.698,337.953-152.743,338.852z"/>
	<path fill="#22211E" d="M-144.924,335.816c-0.496-1.424-1.094-2.293-1.799-2.613h-0.072c-0.482,0-0.842,0.574-1.078,1.724
		c-0.564,3.963-0.862,7.726-0.889,11.283c0,0.694,0.027,1.382,0.075,2.062c0,1.063-0.191,4.195-0.575,9.412
		c0,0.544,0.216,0.814,0.65,0.814c0.222-0.138,0.338-0.246,0.338-0.339c0-0.147-0.062-0.308-0.167-0.479l0.499-6.878v-2.872
		c0-0.295,1.334-0.568,4.005-0.812l0.575,0.072c0.379,2.891,0.633,4.528,0.739,4.912c0.397,3.543,0.694,5.509,0.893,5.893
		c0.271,0,0.442-0.079,0.503-0.24c0-1.621-0.215-3.501-0.649-5.649C-142.537,345.498-143.552,340.064-144.924,335.816z
		 M-143.44,346.305c-1.447,0-2.948,0.219-4.504,0.646v-0.236c0-1.2,0.024-1.799,0.072-1.799c0-4.388,0.362-7.963,1.078-10.729
		c0.232,0.1,0.527,0.537,0.889,1.317c1.646,5.633,2.466,9.204,2.466,10.708V346.305z"/>
	<path fill="#22211E" d="M-128.11,334.331l-0.018-0.742l-0.191-0.355h-0.219c-2.445,7.107-3.667,10.925-3.667,11.457h-0.208
		c-2.877-7.821-4.464-11.778-4.761-11.878l-0.424,0.22c0.431,3.472,0.865,11.67,1.297,24.591c0,0.298,0.14,0.444,0.427,0.444
		l0.424-0.222l-1.077-21.366v-0.223h0.222c2.298,6.448,3.663,9.689,4.097,9.71c0.219-0.174,1.228-3.044,3.021-8.618h0.219v9.062
		c0.284,8.056,0.567,12.084,0.851,12.084l0.445-0.223c-0.431-7.315-0.653-11.557-0.653-12.733
		C-128.319,342.493-128.247,338.753-128.11,334.331z"/>
	<path fill="#22211E" d="M-124.112,332.477c-0.199,0.123-0.294,0.223-0.294,0.298v0.222c0,0.1,0.051,0.147,0.146,0.147
		l-0.366,13.493c0,0.273,0.048,1.066,0.147,2.377c-0.147,0-0.246,0.095-0.297,0.293c0,0.151,0.096,0.274,0.297,0.37
		c0,0.232,0.024,0.805,0.072,1.703c0,0.25-0.028,0.619-0.072,1.108l0.219,3.119c-0.051,0-0.072,0.024-0.072,0.072
		c0.062,0.804,0.137,1.447,0.219,1.932c-0.048,0-0.072,0.024-0.072,0.072v0.516c0.123,0.199,0.219,0.299,0.294,0.299h0.15
		c0.147-0.065,0.294-0.283,0.444-0.668v-0.219c0-0.369-0.075-0.567-0.222-0.596c0-0.416-0.072-2.023-0.219-4.818
		c0-0.062,0.024-0.312,0.072-0.742c-0.047-0.43-0.072-0.971-0.072-1.63v-0.073c0-0.109,0.294-0.188,0.889-0.222
		c0.927-0.456,1.642-1.122,2.148-2.001c1.088-3.68,1.632-7.065,1.632-10.152c-0.048-0.66-0.147-1.228-0.297-1.705
		C-120.217,333.545-121.797,332.477-124.112,332.477z M-119.885,338.852c-0.53,5.537-1.224,8.575-2.076,9.118
		c-0.568,0.6-1.139,0.893-1.707,0.893l-0.147-0.075c0-0.396-0.024-1.111-0.072-2.15l0.37-13.418c0.554,0.1,1.054,0.222,1.485,0.369
		c1.484,1.04,2.223,2.199,2.223,3.485C-119.809,337.357-119.833,337.953-119.885,338.852z"/>
	<path fill="#22211E" d="M-113.838,357.629c0-0.05-0.023-0.074-0.075-0.074c-0.349-4.572-0.517-8.602-0.517-12.084v-0.297
		c0.469,0,1.036-0.024,1.7-0.072c1.002,0.096,1.717,0.15,2.151,0.15c0.199,0,0.297-0.074,0.297-0.223v-0.219l-0.219-0.297
		c-0.52,0-1.34-0.051-2.449-0.147c-0.233,0.048-0.554,0.072-0.961,0.072h-0.516c-0.25-5.719-0.373-8.979-0.373-9.785l-0.072-0.89
		c0.848-0.048,1.345-0.072,1.481-0.072l2.151,0.223c0.161,0,0.281-0.126,0.366-0.369v-0.075c0-0.195-0.79-0.366-2.371-0.513
		c0,0.047-0.027,0.071-0.075,0.071l-0.147-0.071c-0.51,0.047-0.903,0.071-1.187,0.071h-0.814l-0.294,0.222
		c0,0.052,0.072,0.445,0.219,1.187c0,1.532,0.123,4.472,0.369,8.821v2.374c0,3.14,0.174,7.069,0.516,11.786
		c0,0.646,0.295,0.965,0.89,0.965c0.394-0.052,1.536-0.099,3.413-0.147c0.199-0.123,0.297-0.223,0.297-0.298v-0.075
		c-0.088-0.185-0.236-0.308-0.444-0.365C-110.859,357.483-111.973,357.527-113.838,357.629z"/>
	<path fill="#22211E" d="M-105.571,357.76v-6.45c0-2.114-0.072-3.767-0.222-4.97c0-3.704-0.171-8.25-0.516-13.64l-0.072-0.147
		c0.095,0,0.146-0.124,0.146-0.369c-0.123-0.199-0.222-0.298-0.294-0.298h-0.075c-0.271,0-0.445,0.123-0.517,0.37l0.219,2.448
		c0.202,4.306,0.396,9.722,0.595,16.231v5.412l0.076,0.893c-0.052,0-0.076,0.171-0.076,0.516v0.444
		c0.123,0.199,0.222,0.299,0.294,0.299h3.414c0.838,0,1.259-0.1,1.259-0.299v-0.221c-0.072-0.148-0.147-0.22-0.219-0.22H-105.571z"
		/>
	<path fill="#22211E" d="M-91.537,340.856c0-0.256,0.024-0.677,0.071-1.259c-0.051,0-0.071-0.023-0.071-0.071l0.071-0.444v-2.374
		c0-0.345-0.026-0.889-0.071-1.631c0.048,0,0.071-0.052,0.071-0.147c-0.088-1.385-0.236-2.076-0.444-2.076h-0.222l-0.297,0.219
		c0.099,0.716,0.174,1.405,0.222,2.08l-0.075,0.147l0.075,0.444v1.777c0,1.335-0.024,2.716-0.075,4.152
		c0.397,7.847,0.599,12.741,0.599,14.678c0,0.665-0.325,1.138-0.965,1.408c-0.904,0-1.57-1.659-2.001-4.966
		c-0.643-4.904-1.187-11.379-1.631-19.427v-0.366c0-0.27-0.124-0.469-0.373-0.593h-0.147l-0.297,0.22
		c0.499,8.277,1.016,14.529,1.559,18.753c0.445,4.74,1.334,7.118,2.668,7.118c1.148,0,1.795-0.715,1.929-2.151
		c0-1.532-0.198-6.598-0.592-15.197v-0.294H-91.537z"/>
	<path fill="#22211E" d="M-78.804,339.649c0-1.405,0.069-3.513,0.202-6.316l-0.424-0.22c-0.232,0-0.369,0.14-0.407,0.425v5.264
		c0,0.581-0.052,1.357-0.15,2.336c0,0.431,0.01,0.722,0.024,0.868c-0.069,1.283-0.096,2.039-0.096,2.261
		c0,0.74,0.144,4.111,0.427,10.117v0.634h-0.205c-2.114-6.413-3.311-10.419-3.594-12.012c-1.967-6.736-3.082-10.102-3.353-10.102
		c-0.236,0-0.379,0.141-0.428,0.429v12.842c0,3.415,0.14,7.272,0.428,11.585c0,0.271,0.134,0.403,0.407,0.403h0.425
		c-0.418-3.576-0.633-8.136-0.633-13.669c0-1.104,0.055-3.025,0.147-5.768l-0.018-0.63c0-0.591-0.044-1.408-0.13-2.445l0.021-0.407
		l0.147,0.24l1.949,6.689c3.225,10.949,4.98,16.418,5.264,16.418l0.407-0.206c-0.274-6.792-0.407-12.34-0.407-16.639v-2.098H-78.804
		z"/>
	<path fill="#22211E" d="M-72.986,357.629c0-0.05-0.027-0.074-0.075-0.074c-0.349-4.572-0.517-8.602-0.517-12.084v-0.297
		c0.469,0,1.037-0.024,1.7-0.072c1.002,0.096,1.717,0.15,2.151,0.15c0.199,0,0.298-0.074,0.298-0.223v-0.219l-0.219-0.297
		c-0.521,0-1.341-0.051-2.449-0.147c-0.233,0.048-0.554,0.072-0.961,0.072h-0.517c-0.25-5.719-0.373-8.979-0.373-9.785l-0.072-0.89
		c0.848-0.048,1.344-0.072,1.481-0.072l2.147,0.223c0.165,0,0.284-0.126,0.369-0.369v-0.075c0-0.195-0.79-0.366-2.37-0.513
		c0,0.047-0.027,0.071-0.075,0.071l-0.147-0.071c-0.51,0.047-0.903,0.071-1.187,0.071h-0.814l-0.294,0.222
		c0,0.052,0.072,0.445,0.219,1.187c0,1.532,0.123,4.472,0.37,8.821v2.374c0,3.14,0.174,7.069,0.516,11.786
		c0,0.646,0.294,0.965,0.889,0.965c0.394-0.052,1.536-0.099,3.413-0.147c0.199-0.123,0.298-0.223,0.298-0.298v-0.075
		c-0.089-0.185-0.236-0.308-0.444-0.365C-70.007,357.483-71.122,357.527-72.986,357.629z"/>
	<path fill="#22211E" d="M-353.837,331.407v-6.447c0-2.117-0.071-3.77-0.219-4.97c0-3.708-0.174-8.253-0.52-13.643l-0.072-0.148
		c0.096,0,0.146-0.122,0.146-0.365c-0.123-0.201-0.222-0.298-0.297-0.298h-0.076c-0.273,0-0.444,0.124-0.52,0.366l0.222,2.449
		c0.195,4.306,0.397,9.723,0.592,16.231v5.411l0.075,0.894c-0.051,0-0.075,0.174-0.075,0.516v0.445
		c0.124,0.198,0.222,0.297,0.294,0.297h3.41c0.841,0,1.262-0.099,1.262-0.297v-0.224c-0.072-0.146-0.147-0.218-0.219-0.218H-353.837
		L-353.837,331.407z"/>
	<path fill="#22211E" d="M-343.161,306.723c-0.383,0-0.8,0.17-1.259,0.513c-1.73,2.685-2.596,7.504-2.596,14.458l0.219,3.04
		c0.445,4.162,1.56,6.465,3.339,6.891h0.52c0.185,0,0.526-0.095,1.036-0.293c1.433-1.211,2.151-4.426,2.151-9.638
		c0-0.038-0.027-0.187-0.075-0.445c0.048-0.062,0.075-0.233,0.075-0.517v-0.075c0-0.283-0.027-0.455-0.075-0.514
		c0.048-0.273,0.075-0.499,0.075-0.666v-0.298c0-1.002-0.027-1.816-0.075-2.445C-340.655,310.06-341.762,306.723-343.161,306.723z
		 M-340.49,320.585c0,4.201-0.273,6.94-0.818,8.23c-0.283,1.384-0.926,2.075-1.925,2.075h-0.075c-0.541,0-1.163-0.691-1.851-2.075
		c-0.742-2.101-1.112-4.549-1.112-7.341c0-5.868,0.691-10.268,2.076-13.198c0.113-0.322,0.456-0.596,1.037-0.814
		c0.369,0.26,0.739,0.8,1.111,1.632c1.036,3.769,1.556,7.104,1.556,10.007V320.585z"/>
	<path fill="#22211E" d="M-332.337,320.807h-0.219c-0.147,0.075-0.222,0.147-0.222,0.223v0.071l0.075,0.369
		c0,0.148,0.989,0.298,2.966,0.444c0-0.048,0.024-0.075,0.076-0.075l0.071,0.374v3.632c-0.321,2.966-0.568,4.446-0.739,4.446
		c0,0.568-0.445,0.944-1.334,1.111h-0.294c-0.852-0.345-1.422-0.814-1.706-1.409c-0.89-2.008-1.334-4.926-1.334-8.745
		c0-8.093,0.739-12.319,2.223-12.673h0.298c0.37,0,0.718,0.073,1.04,0.22c0.541,0.345,0.866,0.517,0.962,0.517
		c0.201-0.124,0.294-0.223,0.294-0.295v-0.149c-0.544-0.691-1.287-1.04-2.224-1.04h-0.147l-0.739,0.076
		c-1.631,0.703-2.449,5.129-2.449,13.27c0,4.309,0.544,7.5,1.631,9.559c0.633,0.761,1.347,1.229,2.151,1.41h0.294
		c0.742-0.147,1.115-0.271,1.115-0.366c0.8,0,1.371-1.957,1.703-5.862c0-0.048-0.024-0.119-0.072-0.219
		c0.048-0.509,0.072-0.9,0.072-1.184v-1.854c0-0.743-0.096-1.211-0.298-1.409C-331.113,321.078-332.173,320.93-332.337,320.807z"/>
	<path fill="#22211E" d="M-318.156,327.33c-0.35-4.62-1.608-7.189-3.784-7.709c1.878-1.458,2.818-3.807,2.818-7.043v-0.742
		c0-0.975-0.42-2.483-1.258-4.521c-0.595-1.002-1.361-1.693-2.295-2.075c-0.759-0.124-1.204-0.271-1.337-0.445h-0.15l-0.298,0.219
		c0.397,3.051,0.718,7.969,0.964,14.751c-0.147,0-0.27,0.1-0.369,0.299v0.221c0.085,0.199,0.232,0.299,0.448,0.299v4.446
		c0,0.68,0.048,2.066,0.146,4.156l-0.075,0.516c0.171,0.202,0.294,0.294,0.369,0.294c0.198,0,0.346-0.092,0.445-0.294v-0.147
		c0-0.317-0.051-1.7-0.147-4.148v-2.818c0-0.52-0.031-1.31-0.075-2.377h0.075c0.592,0,1.28,0.373,2.076,1.115
		c1.136,1.949,1.7,3.855,1.7,5.704v2.672c0,0.496,0.027,1.238,0.075,2.227l0.294,0.219h0.223l0.219-0.146
		c-0.048-0.818-0.072-1.434-0.072-1.854v-2.814H-318.156z M-322.753,319.255c-0.246-5.338-0.517-9.816-0.811-13.418h0.219
		c0.417,0,1.036,0.367,1.851,1.107c1.087,2.016,1.631,3.672,1.631,4.968v1.036C-319.863,315.841-320.827,317.944-322.753,319.255z"
		/>
	<path fill="#22211E" d="M-311.596,306.723c-0.383,0-0.803,0.17-1.258,0.513c-1.73,2.685-2.596,7.504-2.596,14.458l0.223,3.04
		c0.444,4.162,1.553,6.465,3.338,6.891h0.513c0.186,0,0.534-0.095,1.04-0.293c1.434-1.211,2.148-4.426,2.148-9.638
		c0-0.038-0.024-0.187-0.076-0.445c0.051-0.062,0.076-0.233,0.076-0.517v-0.075c0-0.283-0.024-0.455-0.076-0.514
		c0.051-0.273,0.076-0.499,0.076-0.666v-0.298c0-1.002-0.024-1.816-0.076-2.445C-309.086,310.06-310.2,306.723-311.596,306.723z
		 M-308.926,320.585c0,4.201-0.273,6.94-0.817,8.23c-0.284,1.384-0.927,2.075-1.925,2.075h-0.072c-0.544,0-1.163-0.691-1.854-2.075
		c-0.742-2.101-1.111-4.549-1.111-7.341c0-5.868,0.691-10.268,2.076-13.198c0.109-0.322,0.458-0.596,1.04-0.814
		c0.369,0.26,0.742,0.8,1.108,1.632c1.039,3.769,1.56,7.104,1.56,10.007v1.484H-308.926z"/>
	<path fill="#22211E" d="M-296.913,313.301c0-1.41,0.071-3.513,0.205-6.318l-0.424-0.222c-0.236,0-0.373,0.14-0.407,0.424v5.265
		c0,0.581-0.051,1.357-0.151,2.335c0,0.431,0.007,0.723,0.021,0.869c-0.065,1.286-0.096,2.038-0.096,2.265
		c0,0.737,0.144,4.11,0.427,10.117v0.629h-0.202c-2.117-6.413-3.314-10.415-3.598-12.01c-1.963-6.733-3.082-10.099-3.352-10.099
		c-0.232,0-0.376,0.141-0.427,0.427v12.844c0,3.409,0.14,7.269,0.427,11.581c0,0.273,0.134,0.406,0.407,0.406h0.424
		c-0.417-3.581-0.629-8.14-0.629-13.674c0-1.098,0.051-3.023,0.147-5.763l-0.018-0.633c0-0.592-0.047-1.406-0.129-2.445l0.021-0.404
		l0.146,0.236l1.946,6.69c3.226,10.947,4.98,16.42,5.264,16.42l0.407-0.209c-0.273-6.789-0.407-12.337-0.407-16.639v-2.093H-296.913
		z"/>
	<path fill="#22211E" d="M-290.428,306.723c-0.383,0-0.803,0.17-1.259,0.513c-1.73,2.685-2.596,7.504-2.596,14.458l0.223,3.04
		c0.444,4.162,1.553,6.465,3.338,6.891h0.513c0.185,0,0.534-0.095,1.04-0.293c1.433-1.211,2.148-4.426,2.148-9.638
		c0-0.038-0.024-0.187-0.075-0.445c0.051-0.062,0.075-0.233,0.075-0.517v-0.075c0-0.283-0.024-0.455-0.075-0.514
		c0.051-0.273,0.075-0.499,0.075-0.666v-0.298c0-1.002-0.024-1.816-0.075-2.445C-287.918,310.06-289.033,306.723-290.428,306.723z
		 M-287.757,320.585c0,4.201-0.274,6.94-0.818,8.23c-0.284,1.384-0.927,2.075-1.925,2.075h-0.072c-0.544,0-1.164-0.691-1.854-2.075
		c-0.742-2.101-1.112-4.549-1.112-7.341c0-5.868,0.691-10.268,2.08-13.198c0.106-0.322,0.455-0.596,1.037-0.814
		c0.369,0.26,0.742,0.8,1.108,1.632c1.04,3.769,1.56,7.104,1.56,10.007v1.484H-287.757z"/>
	<path fill="#22211E" d="M-485.027,389.757v-0.075c0.26-0.332,0.408-0.506,0.445-0.513c1.334-1.978,2.123-3.831,2.37-5.562v-1.41
		c-0.346-3.211-1.283-4.815-2.815-4.815c-0.8,0-1.617,0.346-2.448,1.037c0.202,1.186,0.348,2.444,0.444,3.778
		c0,4.587,0.298,11.133,0.889,19.646c0,1.675,0.349,2.52,1.04,2.52h0.146c0.678-0.16,1.372-0.628,2.077-1.408
		c1.084-1.778,1.628-3.954,1.628-6.519c-0.236-2.038-0.681-3.551-1.334-4.522C-483.207,390.844-484.025,390.129-485.027,389.757z
		 M-482.875,401.399c-0.41,1.063-1.125,1.803-2.152,2.223l-0.297-0.294c-0.294-5.24-0.544-9.02-0.739-11.346
		c0-5.718-0.198-10.116-0.591-13.194c0.469-0.444,1.013-0.668,1.631-0.668c1.136,0,1.83,1.484,2.073,4.454v1.186
		c-0.479,2.21-1.518,4.211-3.112,6.004v0.219c0.171,0.297,0.469,0.444,0.889,0.444c1.149,0.666,1.892,1.487,2.223,2.446
		c0.25,0,0.572,1.186,0.964,3.563C-481.987,398.085-482.283,399.74-482.875,401.399z"/>
	<path fill="#22211E" d="M-471.052,386.716c0-0.256,0.024-0.677,0.073-1.259c-0.048,0-0.073-0.023-0.073-0.072l0.073-0.444v-2.37
		c0-0.349-0.024-0.892-0.073-1.635c0.048,0,0.073-0.051,0.073-0.147c-0.083-1.385-0.233-2.075-0.445-2.075h-0.219l-0.294,0.222
		c0.096,0.715,0.171,1.401,0.219,2.076l-0.071,0.148l0.071,0.444v1.777c0,1.334-0.023,2.719-0.071,4.155
		c0.396,7.842,0.592,12.738,0.592,14.674c0,0.669-0.321,1.138-0.965,1.408c-0.902,0-1.566-1.659-2-4.965
		c-0.643-4.905-1.187-11.38-1.632-19.425v-0.369c0-0.27-0.123-0.469-0.369-0.592h-0.147l-0.294,0.223
		c0.492,8.273,1.013,14.526,1.553,18.75c0.448,4.743,1.337,7.117,2.671,7.117c1.149,0,1.789-0.715,1.925-2.15
		c0-1.529-0.198-6.599-0.591-15.197v-0.294H-471.052z"/>
	<path fill="#22211E" d="M-460.042,399.542c-0.346-4.621-1.608-7.189-3.783-7.709c1.878-1.457,2.818-3.808,2.818-7.042v-0.743
		c0-0.975-0.42-2.482-1.262-4.521c-0.592-1.003-1.358-1.693-2.299-2.081c-0.752-0.119-1.197-0.267-1.333-0.444h-0.147l-0.294,0.223
		c0.397,3.051,0.718,7.969,0.965,14.752c-0.147,0-0.273,0.099-0.373,0.297v0.224c0.085,0.196,0.236,0.296,0.444,0.296v4.447
		c0,0.681,0.052,2.065,0.147,4.155l-0.072,0.517c0.171,0.198,0.298,0.295,0.37,0.295c0.199,0,0.349-0.097,0.445-0.295v-0.15
		c0-0.318-0.048-1.704-0.147-4.149v-2.822c0-0.516-0.024-1.309-0.071-2.373h0.071c0.592,0,1.286,0.373,2.079,1.115
		c1.136,1.95,1.704,3.854,1.704,5.705v2.672c0,0.492,0.023,1.237,0.075,2.222l0.297,0.224h0.219l0.223-0.147
		c-0.051-0.816-0.076-1.434-0.076-1.854V399.542z M-464.639,391.466c-0.249-5.338-0.52-9.815-0.817-13.417h0.222
		c0.421,0,1.037,0.366,1.851,1.108c1.091,2.015,1.635,3.67,1.635,4.966v1.036C-461.745,388.053-462.71,390.157-464.639,391.466z"/>
	<path fill="#22211E" d="M-452.664,393.019h-0.222c-0.147,0.074-0.219,0.146-0.219,0.223v0.071l0.072,0.369
		c0,0.147,0.988,0.298,2.969,0.445c0-0.052,0.024-0.076,0.072-0.076l0.075,0.373v3.632c-0.325,2.966-0.568,4.446-0.739,4.446
		c0,0.568-0.444,0.944-1.338,1.112h-0.294c-0.848-0.349-1.419-0.813-1.703-1.408c-0.89-2.013-1.334-4.93-1.334-8.746
		c0-8.093,0.738-12.32,2.223-12.676h0.298c0.366,0,0.718,0.075,1.036,0.222c0.544,0.346,0.865,0.513,0.964,0.513
		c0.199-0.119,0.294-0.218,0.294-0.293v-0.151c-0.543-0.687-1.286-1.035-2.227-1.035h-0.147l-0.739,0.075
		c-1.631,0.704-2.445,5.13-2.445,13.271c0,4.31,0.541,7.501,1.632,9.56c0.629,0.756,1.343,1.228,2.147,1.409h0.294
		c0.746-0.147,1.116-0.271,1.116-0.37c0.804,0,1.371-1.953,1.706-5.859c0-0.047-0.023-0.122-0.075-0.219
		c0.052-0.509,0.075-0.899,0.075-1.184v-1.854c0-0.741-0.099-1.211-0.297-1.408C-451.44,393.289-452.504,393.142-452.664,393.019z"
		/>
	<path fill="#22211E" d="M-441.428,378.938c-0.387,0-0.805,0.171-1.263,0.513c-1.73,2.685-2.596,7.504-2.596,14.457l0.223,3.041
		c0.444,4.162,1.559,6.461,3.337,6.893h0.517c0.188,0,0.53-0.096,1.037-0.295c1.433-1.212,2.15-4.426,2.15-9.639
		c0-0.038-0.023-0.184-0.072-0.444c0.048-0.062,0.072-0.232,0.072-0.516v-0.075c0-0.285-0.023-0.456-0.072-0.513
		c0.048-0.275,0.072-0.5,0.072-0.668v-0.298c0-1.002-0.023-1.816-0.072-2.445C-438.922,382.272-440.037,378.938-441.428,378.938z
		 M-438.761,392.801c0,4.196-0.273,6.939-0.814,8.229c-0.284,1.385-0.93,2.075-1.929,2.075h-0.072c-0.543,0-1.163-0.69-1.854-2.075
		c-0.739-2.101-1.108-4.55-1.108-7.341c0-5.869,0.687-10.271,2.076-13.198c0.112-0.321,0.455-0.596,1.036-0.814
		c0.366,0.26,0.739,0.801,1.108,1.632c1.04,3.769,1.556,7.104,1.556,10.005V392.801z"/>
	<path fill="#22211E" d="M-433.757,389.106c-0.691-1.822-1.037-3.146-1.037-3.964c0-1.323,0.202-2.521,0.592-3.592
		c0.472-0.979,1.362-1.464,2.671-1.464h0.743c0.242-0.177,0.369-0.291,0.369-0.354v-0.13l-0.218-0.281
		c-1.991,0-3.325,0.493-4.006,1.467c-0.591,1.238-0.889,2.645-0.889,4.225c0.052,0.396,0.076,0.718,0.076,0.965
		c0.444,2.062,0.889,3.335,1.333,3.816c0.654,0.944,1.642,1.908,2.966,2.911c1.682,1.792,2.524,3.617,2.524,5.485
		c0,1.416-0.223,2.572-0.667,3.461c0,0.682-0.817,1.327-2.448,1.951c-0.544,0.047-0.811,0.14-0.811,0.276v0.205
		c0.083,0.184,0.256,0.277,0.517,0.277c0.26,0,0.605-0.117,1.037-0.355c1.214-0.445,1.953-0.972,2.226-1.591
		c0.592-1.31,0.89-2.653,0.89-4.022c0-1.728-0.622-3.481-1.854-5.264C-432.177,390.943-433.511,389.601-433.757,389.106z"/>
	<path fill="#22211E" d="M-614.223,271.983v-6.447c0-2.117-0.075-3.769-0.223-4.97c0-3.708-0.17-8.253-0.516-13.644l-0.076-0.146
		c0.099,0,0.147-0.124,0.147-0.366c-0.123-0.202-0.219-0.302-0.298-0.302h-0.071c-0.273,0-0.445,0.124-0.52,0.37l0.222,2.449
		c0.195,4.306,0.393,9.721,0.591,16.231v5.412l0.072,0.893c-0.048,0-0.072,0.171-0.072,0.516v0.444
		c0.124,0.199,0.219,0.299,0.294,0.299h3.41c0.841,0,1.262-0.1,1.262-0.299v-0.221c-0.075-0.147-0.147-0.22-0.222-0.22H-614.223z"/>
	<path fill="#22211E" d="M-604.216,271.853c0-0.048-0.023-0.075-0.071-0.075c-0.35-4.572-0.52-8.602-0.52-12.08v-0.294
		c0.472,0,1.036-0.027,1.707-0.075c1.002,0.1,1.717,0.149,2.151,0.149c0.195,0,0.295-0.071,0.295-0.218v-0.223l-0.222-0.298
		c-0.518,0-1.334-0.048-2.446-0.146c-0.232,0.047-0.554,0.075-0.96,0.075h-0.521c-0.245-5.723-0.369-8.981-0.369-9.789l-0.075-0.889
		c0.855-0.049,1.352-0.071,1.481-0.071l2.152,0.221c0.157,0,0.284-0.124,0.37-0.369v-0.075c0-0.195-0.794-0.366-2.374-0.513
		c0,0.048-0.024,0.071-0.072,0.071l-0.147-0.071c-0.51,0.048-0.9,0.071-1.184,0.071h-0.817l-0.297,0.223
		c0,0.051,0.075,0.445,0.222,1.188c0,1.532,0.123,4.473,0.369,8.819v2.377c0,3.138,0.172,7.067,0.521,11.783
		c0,0.647,0.294,0.965,0.89,0.965c0.396-0.049,1.528-0.099,3.41-0.146c0.198-0.123,0.294-0.22,0.294-0.298v-0.075
		c-0.082-0.186-0.233-0.308-0.444-0.366C-601.237,271.706-602.348,271.755-604.216,271.853z"/>
	<path fill="#22211E" d="M-594.406,247.302c-0.387,0-0.804,0.171-1.262,0.514c-1.73,2.685-2.596,7.504-2.596,14.457l0.223,3.041
		c0.444,4.162,1.556,6.46,3.338,6.892h0.517c0.185,0,0.53-0.096,1.036-0.295c1.433-1.21,2.151-4.425,2.151-9.638
		c0-0.038-0.024-0.185-0.075-0.444c0.051-0.062,0.075-0.231,0.075-0.517v-0.075c0-0.283-0.024-0.456-0.075-0.513
		c0.051-0.274,0.075-0.5,0.075-0.667v-0.305c0-1.002-0.024-1.819-0.075-2.446C-591.899,250.635-593.011,247.302-594.406,247.302z
		 M-591.739,261.166c0,4.195-0.273,6.938-0.817,8.229c-0.284,1.382-0.928,2.076-1.926,2.076h-0.072
		c-0.544,0-1.163-0.691-1.854-2.076c-0.739-2.101-1.111-4.549-1.111-7.34c0-5.873,0.691-10.271,2.077-13.199
		c0.112-0.32,0.458-0.595,1.039-0.814c0.366,0.258,0.738,0.801,1.108,1.632c1.036,3.769,1.556,7.104,1.556,10.005V261.166z"/>
	<path fill="#22211E" d="M-579.73,253.88c0-1.408,0.072-3.512,0.209-6.32l-0.427-0.219c-0.236,0-0.37,0.141-0.407,0.424v5.264
		c0,0.581-0.048,1.357-0.147,2.337c0,0.431,0.006,0.721,0.018,0.867c-0.062,1.286-0.092,2.04-0.092,2.262
		c0,0.739,0.144,4.114,0.427,10.12v0.63h-0.202c-2.113-6.413-3.311-10.415-3.595-12.009c-1.963-6.734-3.082-10.104-3.355-10.104
		c-0.232,0-0.373,0.141-0.428,0.428v12.843c0,3.413,0.144,7.272,0.428,11.585c0,0.273,0.137,0.407,0.407,0.407h0.428
		c-0.421-3.582-0.63-8.141-0.63-13.674c0-1.103,0.048-3.023,0.148-5.768l-0.017-0.629c0-0.592-0.045-1.409-0.131-2.445l0.018-0.404
		l0.147,0.236l1.946,6.689c3.222,10.949,4.977,16.418,5.26,16.418l0.411-0.206c-0.273-6.789-0.411-12.335-0.411-16.639v-2.094
		H-579.73z"/>
	<path fill="#22211E" d="M-739.288,324.85c-0.496-1.423-1.094-2.292-1.798-2.612h-0.072c-0.482,0-0.841,0.573-1.074,1.723
		c-0.57,3.964-0.865,7.727-0.892,11.283c0,0.695,0.027,1.382,0.075,2.06c0,1.066-0.191,4.199-0.575,9.415
		c0,0.544,0.219,0.812,0.646,0.812c0.222-0.133,0.335-0.243,0.335-0.336c0-0.146-0.058-0.308-0.164-0.479l0.499-6.878v-2.873
		c0-0.295,1.334-0.567,4.005-0.814l0.571,0.075c0.383,2.891,0.633,4.528,0.746,4.912c0.394,3.544,0.688,5.506,0.89,5.893
		c0.271,0,0.438-0.081,0.499-0.243c0-1.617-0.215-3.501-0.646-5.646C-736.904,334.529-737.916,329.098-739.288,324.85z
		 M-737.804,335.341c-1.446,0-2.944,0.215-4.504,0.646v-0.236c0-1.203,0.024-1.802,0.075-1.802c0-4.385,0.356-7.96,1.074-10.726
		c0.236,0.1,0.533,0.537,0.889,1.316c1.642,5.63,2.466,9.204,2.466,10.709V335.341z"/>
	<path fill="#22211E" d="M-730.556,332.279c-0.695-1.826-1.04-3.15-1.04-3.964c0-1.324,0.202-2.524,0.595-3.596
		c0.468-0.978,1.358-1.464,2.667-1.464h0.743c0.246-0.173,0.369-0.29,0.369-0.352v-0.13l-0.219-0.28
		c-1.99,0-3.325,0.489-4.002,1.467c-0.595,1.234-0.893,2.645-0.893,4.224c0.052,0.397,0.075,0.719,0.075,0.962
		c0.444,2.065,0.889,3.335,1.334,3.82c0.657,0.941,1.642,1.908,2.965,2.911c1.683,1.791,2.524,3.614,2.524,5.482
		c0,1.419-0.222,2.574-0.667,3.465c0,0.68-0.814,1.326-2.449,1.946c-0.541,0.051-0.811,0.14-0.811,0.276v0.208
		c0.082,0.186,0.26,0.274,0.516,0.274c0.26,0,0.606-0.112,1.037-0.352c1.215-0.444,1.953-0.976,2.227-1.595
		c0.592-1.31,0.89-2.65,0.89-4.019c0-1.728-0.619-3.481-1.854-5.268C-728.976,334.12-730.313,332.775-730.556,332.279z"/>
	<path fill="#22211E" d="M-717.265,323.534h-3.041c-0.383,0-1.05,0.044-2,0.129c-0.048,0-0.25-0.044-0.592-0.129
		c-0.198,0.099-0.294,0.185-0.294,0.26c0,0.218,0.075,0.413,0.222,0.574l2.37-0.208h0.219l0.147,0.075
		c0.099,1.285,0.147,2.709,0.147,4.281c0.444,9.611,0.667,14.953,0.667,16.01c-0.048,0.381-0.075,0.62-0.075,0.705
		c0.147,0.174,0.25,0.257,0.294,0.257h0.297c0.076,0,0.147-0.083,0.223-0.257l-0.076-0.444c0-0.052,0.027-0.109,0.076-0.188
		c0-0.052-0.024-0.113-0.076-0.204c0-3.236-0.218-8.594-0.667-16.069c0-0.037,0.024-0.212,0.072-0.517l-0.146-3.393
		c0.075-0.174,0.146-0.261,0.222-0.261h2.076c1.385,0,2.076-0.102,2.076-0.313v-0.186l-0.219-0.26
		C-715.996,323.492-716.636,323.534-717.265,323.534z"/>
	<path fill="#22211E" d="M-709.187,322.107c-0.386,0-0.8,0.171-1.262,0.516c-1.728,2.682-2.593,7.501-2.593,14.458l0.219,3.041
		c0.445,4.159,1.56,6.46,3.339,6.892h0.52c0.185,0,0.526-0.099,1.037-0.295c1.43-1.21,2.148-4.425,2.148-9.638
		c0-0.037-0.024-0.185-0.072-0.444c0.048-0.065,0.072-0.236,0.072-0.52v-0.072c0-0.284-0.024-0.455-0.072-0.517
		c0.048-0.273,0.072-0.496,0.072-0.663v-0.301c0-1.004-0.024-1.82-0.072-2.446C-706.679,325.442-707.787,322.107-709.187,322.107z
		 M-706.518,335.969c0,4.201-0.274,6.944-0.814,8.233c-0.284,1.382-0.93,2.076-1.925,2.076h-0.075c-0.543,0-1.163-0.694-1.854-2.076
		c-0.739-2.104-1.108-4.553-1.108-7.344c0-5.869,0.687-10.268,2.075-13.195c0.113-0.321,0.456-0.596,1.037-0.816
		c0.37,0.259,0.739,0.803,1.112,1.632c1.036,3.769,1.553,7.103,1.553,10.007V335.969z"/>
	<path fill="#22211E" d="M-696.23,342.714c-0.349-4.617-1.608-7.189-3.783-7.705c1.877-1.457,2.814-3.808,2.814-7.045v-0.743
		c0-0.972-0.42-2.482-1.259-4.522c-0.595-1.001-1.361-1.688-2.298-2.076c-0.753-0.122-1.198-0.27-1.334-0.444h-0.147l-0.294,0.223
		c0.394,3.048,0.719,7.966,0.961,14.752c-0.147,0-0.273,0.096-0.37,0.297v0.22c0.083,0.2,0.233,0.297,0.444,0.297v4.45
		c0,0.677,0.048,2.065,0.147,4.152l-0.075,0.52c0.171,0.198,0.298,0.295,0.373,0.295c0.195,0,0.345-0.097,0.445-0.295v-0.149
		c0-0.323-0.048-1.705-0.147-4.153v-2.818c0-0.52-0.024-1.31-0.075-2.374h0.075c0.592,0,1.286,0.369,2.076,1.112
		c1.14,1.953,1.707,3.857,1.707,5.705v2.675c0,0.492,0.024,1.233,0.072,2.222l0.298,0.22h0.222l0.219-0.146
		c-0.048-0.813-0.072-1.431-0.072-1.851V342.714z M-700.827,334.635c-0.247-5.336-0.516-9.812-0.814-13.417h0.219
		c0.421,0,1.037,0.369,1.854,1.111c1.087,2.014,1.631,3.67,1.631,4.966v1.036C-697.934,331.229-698.899,333.326-700.827,334.635z"/>
	<path fill="#22211E" d="M-688.853,336.192h-0.219c-0.146,0.071-0.222,0.146-0.222,0.218v0.076l0.076,0.365
		c0,0.147,0.988,0.298,2.965,0.444c0-0.047,0.024-0.071,0.076-0.071l0.072,0.369v3.632c-0.322,2.97-0.568,4.45-0.738,4.45
		c0,0.567-0.445,0.941-1.334,1.108h-0.294c-0.852-0.345-1.423-0.811-1.708-1.405c-0.889-2.012-1.333-4.93-1.333-8.746
		c0-8.097,0.738-12.322,2.223-12.675h0.297c0.37,0,0.718,0.072,1.04,0.218c0.54,0.35,0.862,0.517,0.961,0.517
		c0.202-0.122,0.294-0.222,0.294-0.293v-0.151c-0.544-0.69-1.286-1.036-2.223-1.036h-0.147l-0.738,0.072
		c-1.631,0.703-2.449,5.131-2.449,13.271c0,4.312,0.543,7.504,1.631,9.562c0.632,0.757,1.344,1.225,2.152,1.406h0.294
		c0.742-0.148,1.115-0.268,1.115-0.366c0.8,0,1.371-1.953,1.703-5.859c0-0.051-0.023-0.123-0.071-0.222
		c0.048-0.506,0.071-0.899,0.071-1.184v-1.854c0-0.742-0.096-1.21-0.298-1.405C-687.629,336.466-688.692,336.318-688.853,336.192z"
		/>
	<path fill="#22211E" d="M-676.506,324.85c-0.493-1.423-1.092-2.292-1.796-2.612h-0.075c-0.482,0-0.841,0.573-1.074,1.723
		c-0.571,3.964-0.865,7.727-0.889,11.283c0,0.695,0.024,1.382,0.072,2.06c0,1.066-0.191,4.199-0.574,9.415
		c0,0.544,0.219,0.812,0.649,0.812c0.219-0.133,0.332-0.243,0.332-0.336c0-0.146-0.054-0.308-0.164-0.479l0.5-6.878v-2.873
		c0-0.295,1.333-0.567,4.005-0.814l0.575,0.075c0.379,2.891,0.629,4.528,0.742,4.912c0.393,3.544,0.688,5.506,0.89,5.893
		c0.273,0,0.438-0.081,0.499-0.243c0-1.617-0.215-3.501-0.646-5.646C-674.125,334.529-675.138,329.098-676.506,324.85z
		 M-675.025,335.341c-1.446,0-2.944,0.215-4.504,0.646v-0.236c0-1.203,0.024-1.802,0.075-1.802c0-4.385,0.355-7.96,1.074-10.726
		c0.236,0.1,0.533,0.537,0.889,1.316c1.642,5.63,2.466,9.204,2.466,10.709V335.341z"/>
	<path fill="#22211E" d="M-785.095,202.049c-0.202,0.121-0.298,0.22-0.298,0.296v0.217c0,0.1,0.048,0.148,0.147,0.148l-0.373,13.492
		c0,0.271,0.051,1.065,0.147,2.37c-0.147,0-0.247,0.097-0.298,0.299c0,0.146,0.099,0.273,0.298,0.365
		c0,0.236,0.024,0.804,0.075,1.707c0,0.246-0.023,0.616-0.075,1.112l0.222,3.111c-0.051,0-0.076,0.024-0.076,0.072
		c0.065,0.803,0.137,1.446,0.223,1.929c-0.051,0-0.075,0.024-0.075,0.072v0.521c0.123,0.193,0.222,0.293,0.297,0.293h0.147
		c0.147-0.065,0.298-0.284,0.444-0.667v-0.219c0-0.373-0.072-0.567-0.218-0.592c0-0.421-0.076-2.028-0.222-4.819
		c0-0.064,0.027-0.311,0.075-0.738c-0.048-0.435-0.075-0.979-0.075-1.635v-0.072c0-0.112,0.297-0.185,0.889-0.223
		c0.931-0.454,1.645-1.121,2.151-2.001c1.088-3.684,1.628-7.069,1.628-10.154c-0.048-0.652-0.148-1.225-0.294-1.707
		C-781.203,203.11-782.783,202.049-785.095,202.049z M-780.871,208.425c-0.53,5.534-1.225,8.575-2.073,9.119
		c-0.571,0.591-1.139,0.889-1.707,0.889l-0.146-0.075c0-0.394-0.024-1.108-0.076-2.148l0.369-13.417
		c0.558,0.096,1.051,0.219,1.481,0.369c1.48,1.037,2.223,2.2,2.223,3.485C-780.797,206.927-780.82,207.522-780.871,208.425z"/>
	<path fill="#22211E" d="M-774.158,202.641c-0.386,0-0.803,0.175-1.262,0.517c-1.73,2.685-2.596,7.5-2.596,14.454l0.222,3.04
		c0.445,4.165,1.56,6.461,3.339,6.896h0.516c0.188,0,0.53-0.096,1.037-0.298c1.433-1.21,2.151-4.423,2.151-9.635
		c0-0.038-0.024-0.185-0.072-0.444c0.048-0.062,0.072-0.232,0.072-0.516v-0.076c0-0.284-0.024-0.455-0.072-0.517
		c0.048-0.271,0.072-0.495,0.072-0.666v-0.295c0-1.003-0.024-1.816-0.072-2.449C-771.651,205.976-772.765,202.641-774.158,202.641z
		 M-771.49,216.507c0,4.197-0.274,6.94-0.814,8.227c-0.284,1.384-0.93,2.076-1.93,2.076h-0.075c-0.543,0-1.163-0.692-1.854-2.076
		c-0.738-2.101-1.112-4.546-1.112-7.338c0-5.872,0.691-10.27,2.08-13.197c0.109-0.322,0.455-0.593,1.036-0.814
		c0.367,0.257,0.739,0.801,1.109,1.631c1.04,3.77,1.556,7.104,1.556,10.004v1.488H-771.49z"/>
	<path fill="#22211E" d="M-759.481,209.222c0-1.409,0.072-3.517,0.208-6.325l-0.427-0.219c-0.236,0-0.369,0.144-0.407,0.427v5.266
		c0,0.581-0.048,1.357-0.146,2.335c0,0.435,0.006,0.722,0.017,0.872c-0.062,1.286-0.089,2.038-0.089,2.262
		c0,0.742,0.144,4.117,0.427,10.12v0.629h-0.205c-2.11-6.413-3.311-10.414-3.591-12.008c-1.967-6.731-3.085-10.104-3.356-10.104
		c-0.236,0-0.376,0.144-0.427,0.428v12.843c0,3.412,0.144,7.271,0.427,11.588c0,0.273,0.134,0.406,0.404,0.406h0.427
		c-0.42-3.584-0.629-8.144-0.629-13.678c0-1.101,0.048-3.02,0.147-5.767l-0.018-0.628c0-0.593-0.041-1.41-0.13-2.446l0.017-0.41
		l0.147,0.243l1.946,6.689c3.222,10.947,4.977,16.421,5.26,16.421l0.411-0.205c-0.274-6.793-0.411-12.341-0.411-16.644v-2.096
		H-759.481z"/>
	<path fill="#22211E" d="M-750.749,213.815h-1.926c-0.718,0-1.461,0.051-2.224,0.146l-0.075-0.889v-0.071l-0.37-9.27
		c1.542,0,2.952,0.024,4.228,0.075c0.293,0,0.444-0.174,0.444-0.52l-0.147-0.22c-0.94,0-2.421-0.051-4.45-0.146
		c-0.345,0-0.619,0.071-0.814,0.219c0,1.803,0.096,4.648,0.294,8.523l0.072,0.147h-0.072c0.109,0,0.256,5.188,0.445,15.569
		c0.123,0.197,0.219,0.293,0.298,0.293h0.218c0.147-0.072,0.222-0.146,0.222-0.218v-0.814l-0.075-0.742
		c0.051,0,0.075-0.024,0.075-0.075l-0.075-0.444v-0.814c-0.096-5.217-0.147-8.178-0.147-8.896v-0.817
		c0-0.195,0.62-0.293,1.854-0.293h2.076l0.373-0.299C-750.578,213.966-750.65,213.815-750.749,213.815z"/>
	<path fill="#22211E" d="M-740.998,227.493v-0.075c-0.085-0.186-0.236-0.308-0.444-0.369c-0.359,0-1.471,0.048-3.338,0.146
		c0-0.047-0.024-0.075-0.072-0.075c-0.349-4.569-0.52-8.599-0.52-12.08v-0.294c0.469,0,1.037-0.027,1.707-0.075
		c1.002,0.099,1.717,0.146,2.148,0.146c0.199,0,0.298-0.071,0.298-0.219v-0.223l-0.222-0.293c-0.52,0-1.334-0.049-2.446-0.148
		c-0.232,0.049-0.557,0.073-0.961,0.073h-0.52c-0.25-5.72-0.37-8.982-0.37-9.786l-0.076-0.89c0.855-0.047,1.348-0.071,1.481-0.071
		l2.151,0.218c0.157,0,0.284-0.122,0.366-0.368v-0.076c0-0.197-0.791-0.369-2.371-0.517c0,0.049-0.024,0.072-0.072,0.072
		l-0.147-0.072c-0.509,0.049-0.903,0.072-1.183,0.072h-0.817l-0.298,0.223c0,0.048,0.072,0.444,0.219,1.185
		c0,1.531,0.124,4.473,0.374,8.818v2.375c0,3.137,0.17,7.066,0.52,11.786c0,0.644,0.294,0.965,0.89,0.965
		c0.393-0.048,1.529-0.1,3.41-0.147C-741.101,227.668-740.998,227.564-740.998,227.493z"/>
	<path fill="#22211E" d="M-731.955,227.92c-0.048-0.817-0.071-1.433-0.071-1.854v-2.817c-0.349-4.621-1.611-7.189-3.783-7.71
		c1.875-1.456,2.815-3.803,2.815-7.042v-0.743c0-0.974-0.42-2.483-1.262-4.521c-0.591-1.003-1.357-1.693-2.295-2.08
		c-0.755-0.12-1.2-0.267-1.337-0.444h-0.147l-0.294,0.222c0.397,3.055,0.718,7.967,0.964,14.752c-0.147,0-0.273,0.1-0.373,0.294
		v0.219c0.085,0.203,0.236,0.302,0.444,0.302v4.446c0,0.681,0.051,2.062,0.147,4.148l-0.072,0.52
		c0.171,0.198,0.297,0.298,0.369,0.298c0.198,0,0.349-0.1,0.448-0.298v-0.146c0-0.321-0.051-1.707-0.147-4.152v-2.817
		c0-0.517-0.027-1.312-0.075-2.371h0.075c0.592,0,1.283,0.373,2.076,1.112c1.139,1.952,1.703,3.854,1.703,5.708v2.667
		c0,0.497,0.027,1.235,0.075,2.224l0.298,0.222h0.222L-731.955,227.92z M-736.624,215.167c-0.25-5.336-0.52-9.81-0.817-13.419h0.223
		c0.42,0,1.036,0.373,1.854,1.112c1.087,2.015,1.631,3.67,1.631,4.967v1.035C-733.734,211.759-734.698,213.859-736.624,215.167z"/>
	<path fill="#22211E" d="M-723.185,227.844l0.297,0.224h0.222l0.219-0.148c-0.048-0.817-0.072-1.433-0.072-1.854v-2.817
		c-0.349-4.621-1.608-7.189-3.783-7.71c1.878-1.456,2.815-3.803,2.815-7.042v-0.743c0-0.974-0.421-2.483-1.263-4.521
		c-0.592-1.003-1.358-1.693-2.295-2.08c-0.752-0.12-1.2-0.267-1.333-0.444h-0.147l-0.294,0.222c0.394,3.055,0.715,7.967,0.96,14.752
		c-0.146,0-0.273,0.1-0.369,0.294v0.219c0.082,0.203,0.233,0.302,0.445,0.302v4.446c0,0.681,0.048,2.062,0.147,4.148l-0.075,0.52
		c0.171,0.198,0.298,0.298,0.373,0.298c0.195,0,0.346-0.1,0.445-0.298v-0.146c0-0.321-0.052-1.707-0.147-4.152v-2.817
		c0-0.517-0.024-1.312-0.075-2.371h0.075c0.592,0,1.283,0.373,2.076,1.112c1.139,1.952,1.707,3.854,1.707,5.708v2.667
		C-723.258,226.114-723.234,226.86-723.185,227.844z M-727.115,215.167c-0.25-5.336-0.517-9.81-0.814-13.419h0.219
		c0.421,0,1.037,0.373,1.854,1.112c1.087,2.015,1.631,3.67,1.631,4.967v1.035C-724.222,211.759-725.19,213.859-727.115,215.167z"/>
	<path fill="#22211E" d="M-711.656,227.564c0.274,0,0.438-0.078,0.503-0.235c0-1.618-0.219-3.503-0.65-5.654
		c-0.653-6.607-1.666-12.039-3.041-16.29c-0.492-1.416-1.091-2.288-1.796-2.613h-0.075c-0.482,0-0.838,0.575-1.073,1.723
		c-0.572,3.965-0.866,7.731-0.89,11.291c0,0.69,0.023,1.379,0.075,2.056c0,1.061-0.195,4.2-0.575,9.413
		c0,0.544,0.215,0.816,0.647,0.816c0.222-0.137,0.331-0.245,0.331-0.331c0-0.146-0.055-0.311-0.164-0.485l0.502-6.875v-2.872
		c0-0.299,1.334-0.565,4.002-0.814l0.575,0.071c0.383,2.894,0.629,4.528,0.743,4.911
		C-712.148,225.218-711.854,227.185-711.656,227.564z M-713.363,215.87c-1.443,0-2.945,0.22-4.501,0.65v-0.239
		c0-1.197,0.024-1.798,0.072-1.798c0-4.386,0.359-7.964,1.074-10.729c0.235,0.099,0.533,0.536,0.892,1.312
		c1.642,5.637,2.463,9.204,2.463,10.716V215.87z"/>
	<path fill="#22211E" d="M-700.164,215.244c0-3.396-0.793-6.71-2.37-9.932c-1.054-1.878-2.559-3.14-4.525-3.783h-0.076l0.373,14.455
		c-0.052,1.604-0.075,3.386-0.075,5.339v0.071l0.075,0.147h-0.075c0.047,2.076,0.146,3.68,0.297,4.819l-0.072,0.147
		c0.062,0.792,0.161,1.184,0.298,1.184c0.146,0,0.444-0.072,0.889-0.22c3.509-3.064,5.264-7.015,5.264-11.865v-0.363H-700.164z
		 M-700.906,215.836c0,2.214-0.568,4.585-1.707,7.118c-0.979,1.584-2.039,2.862-3.188,3.855c-0.195-2.076-0.294-4.054-0.294-5.929
		v-0.892c0-1.393,0.023-2.753,0.075-4.073c-0.147-3.213-0.247-7.613-0.294-13.199v-0.071c0.972,0.32,2.014,1.309,3.112,2.965
		c1.536,3.225,2.298,6.389,2.298,9.488v0.737H-700.906z"/>
	<path fill="#22211E" d="M-691.285,216.76c0.379,2.893,0.629,4.527,0.742,4.911c0.397,3.546,0.691,5.514,0.889,5.893
		c0.274,0,0.438-0.078,0.5-0.235c0-1.618-0.215-3.503-0.646-5.654c-0.657-6.607-1.669-12.039-3.041-16.29
		c-0.492-1.416-1.09-2.288-1.795-2.613h-0.076c-0.482,0-0.841,0.575-1.074,1.723c-0.571,3.965-0.865,7.731-0.889,11.291
		c0,0.69,0.024,1.379,0.071,2.056c0,1.061-0.191,4.2-0.575,9.413c0,0.544,0.219,0.816,0.65,0.816
		c0.219-0.137,0.332-0.245,0.332-0.331c0-0.146-0.056-0.311-0.165-0.485l0.499-6.875v-2.872c0-0.299,1.338-0.565,4.005-0.814
		L-691.285,216.76z M-695.868,216.281c0-1.197,0.024-1.798,0.075-1.798c0-4.386,0.355-7.964,1.074-10.729
		c0.236,0.099,0.534,0.536,0.89,1.312c1.645,5.637,2.466,9.204,2.466,10.716v0.088c-1.447,0-2.945,0.22-4.504,0.65V216.281z"/>
	<path fill="#22211E" d="M-1041.99,192.128c1.683,1.792,2.524,3.618,2.524,5.482c0,1.423-0.223,2.579-0.667,3.468
		c0,0.681-0.818,1.328-2.449,1.947c-0.544,0.051-0.811,0.143-0.811,0.277v0.204c0.082,0.185,0.257,0.28,0.517,0.28
		c0.26,0,0.605-0.119,1.036-0.355c1.214-0.445,1.953-0.979,2.227-1.594c0.592-1.31,0.889-2.65,0.889-4.019
		c0-1.731-0.623-3.485-1.854-5.261c-2.421-2.188-3.759-3.529-4.005-4.021c-0.691-1.827-1.037-3.146-1.037-3.965
		c0-1.32,0.202-2.521,0.592-3.598c0.469-0.979,1.358-1.471,2.668-1.471h0.742c0.243-0.171,0.369-0.291,0.369-0.353v-0.13
		l-0.223-0.277c-1.99,0-3.324,0.486-4.005,1.464c-0.592,1.235-0.889,2.644-0.889,4.228c0.051,0.396,0.076,0.719,0.076,0.965
		c0.444,2.062,0.889,3.334,1.333,3.816C-1044.302,190.154-1043.313,191.125-1041.99,192.128z"/>
	<path fill="#22211E" d="M-1031.996,181.097c-0.5-1.42-1.098-2.292-1.803-2.613h-0.071c-0.482,0-0.842,0.574-1.074,1.724
		c-0.567,3.968-0.865,7.73-0.893,11.286c0,0.695,0.028,1.383,0.076,2.057c0,1.063-0.191,4.199-0.575,9.416
		c0,0.543,0.215,0.817,0.646,0.817c0.222-0.138,0.335-0.246,0.335-0.335c0-0.146-0.059-0.309-0.164-0.482l0.5-6.875v-2.873
		c0-0.298,1.334-0.568,4.002-0.814l0.574,0.072c0.383,2.894,0.632,4.529,0.742,4.912c0.396,3.546,0.69,5.51,0.893,5.893
		c0.27,0,0.438-0.078,0.5-0.239c0-1.618-0.216-3.503-0.646-5.65C-1029.615,190.777-1030.628,185.348-1031.996,181.097z
		 M-1030.515,191.588c-1.447,0-2.945,0.215-4.504,0.646v-0.236c0-1.197,0.024-1.803,0.075-1.803c0-4.385,0.355-7.959,1.074-10.727
		c0.232,0.1,0.533,0.537,0.889,1.314c1.642,5.637,2.466,9.203,2.466,10.711V191.588z"/>
	<path fill="#22211E" d="M-1022.621,178.576c-0.195,0.127-0.294,0.219-0.294,0.299c0.146,0.926,0.219,1.963,0.219,3.111v2.076
		c-0.294,3.239-0.445,9.146-0.445,17.721c0,1.334,0.1,2.001,0.295,2.001h0.297c0.137,0,0.236-0.175,0.294-0.521
		c-0.095-0.396-0.146-0.643-0.146-0.742v-4.818c0-1.522,0.026-3.571,0.075-6.153c-0.048-0.198-0.075-0.397-0.075-0.591
		c0.3-4.03,0.447-6.527,0.447-7.491v-0.961c0-2.62-0.174-3.931-0.52-3.931H-1022.621z"/>
	<path fill="#22211E" d="M-1009.925,184.935c0-1.406,0.068-3.516,0.205-6.321l-0.427-0.219c-0.233,0-0.366,0.144-0.403,0.425v5.266
		c0,0.582-0.052,1.358-0.147,2.336c0,0.436,0.007,0.723,0.017,0.873c-0.064,1.283-0.092,2.039-0.092,2.262
		c0,0.742,0.143,4.114,0.427,10.116v0.633h-0.202c-2.113-6.413-3.311-10.418-3.595-12.012c-1.963-6.731-3.082-10.101-3.355-10.101
		c-0.236,0-0.373,0.145-0.428,0.428v12.844c0,3.413,0.144,7.271,0.428,11.588c0,0.27,0.137,0.402,0.407,0.402h0.428
		c-0.42-3.58-0.632-8.14-0.632-13.674c0-1.102,0.051-3.02,0.146-5.766l-0.017-0.63c0-0.592-0.041-1.409-0.129-2.446l0.02-0.41
		l0.146,0.244l1.946,6.689c3.222,10.947,4.977,16.417,5.261,16.417l0.41-0.202c-0.274-6.796-0.41-12.344-0.41-16.643v-2.1H-1009.925
		z"/>
	<path fill="#22211E" d="M-1001.617,179.783h-3.041c-0.382,0-1.049,0.042-2,0.131c-0.048,0-0.246-0.045-0.592-0.131
		c-0.198,0.1-0.293,0.186-0.293,0.261c0,0.22,0.075,0.413,0.222,0.575l2.37-0.206h0.222l0.147,0.075
		c0.096,1.287,0.147,2.709,0.147,4.279c0.445,9.613,0.663,14.953,0.663,16.014c-0.047,0.383-0.071,0.619-0.071,0.705
		c0.147,0.17,0.247,0.26,0.294,0.26h0.297c0.072,0,0.147-0.09,0.219-0.26l-0.065-0.445c0-0.051,0.024-0.113,0.072-0.188
		c0-0.049-0.024-0.117-0.072-0.203c0-3.234-0.222-8.595-0.67-16.068c0-0.037,0.023-0.208,0.075-0.52l-0.147-3.389
		c0.072-0.172,0.147-0.261,0.219-0.261h2.076c1.385,0,2.08-0.103,2.08-0.313v-0.186l-0.222-0.26
		C-1000.345,179.74-1000.988,179.783-1001.617,179.783z"/>
	<path fill="#22211E" d="M-985.436,193.924v-0.52c0-6.857-0.075-11.205-0.223-13.045c0.049-0.619,0.073-0.938,0.073-0.969
		c-0.161-0.096-0.308-0.147-0.446-0.147c-0.249,0.188-0.372,0.312-0.372,0.37v0.517c0,0.77,0.048,1.483,0.147,2.151
		c0.048,4.337,0.075,7.869,0.075,10.602v0.891c0,0.52,0.048,2.076,0.147,4.668v0.369c-0.201,2.818-0.718,4.228-1.556,4.228h-0.072
		c-0.236,0-0.485-0.071-0.742-0.222c-0.743,0-1.109-1.163-1.109-3.486c0-0.272-0.126-0.443-0.372-0.52
		c-0.086,0-0.209,0.076-0.37,0.223c0.047,2.186,0.199,3.349,0.444,3.485c0,0.507,0.664,0.927,2.004,1.263h0.294
		c1.296,0,2.039-1.707,2.224-5.117C-985.388,195.986-985.436,194.402-985.436,193.924z"/>
	<path fill="#22211E" d="M-975.483,192.476c0.383,2.894,0.629,4.529,0.742,4.912c0.396,3.546,0.69,5.51,0.89,5.893
		c0.273,0,0.437-0.078,0.502-0.239c0-1.618-0.219-3.503-0.65-5.65c-0.653-6.611-1.666-12.043-3.041-16.29
		c-0.493-1.42-1.091-2.292-1.795-2.613h-0.072c-0.485,0-0.841,0.574-1.077,1.724c-0.571,3.964-0.865,7.729-0.89,11.287
		c0,0.694,0.024,1.382,0.076,2.056c0,1.062-0.195,4.199-0.575,9.415c0,0.544,0.216,0.817,0.646,0.817
		c0.223-0.137,0.332-0.246,0.332-0.334c0-0.148-0.054-0.309-0.164-0.483l0.503-6.874v-2.873c0-0.297,1.334-0.568,4.001-0.814
		L-975.483,192.476z M-980.059,191.998c0-1.197,0.024-1.803,0.072-1.803c0-4.385,0.359-7.959,1.074-10.727
		c0.236,0.1,0.534,0.537,0.893,1.314c1.642,5.637,2.462,9.203,2.462,10.711v0.094c-1.443,0-2.945,0.215-4.501,0.646V191.998z"/>
	<path fill="#22211E" d="M-961.713,201.41c-0.848,1.092-1.642,1.632-2.37,1.632c-0.568-0.024-1.235-0.37-2.004-1.036
		c-0.63-0.801-1.122-2.336-1.481-4.594c-0.591-3.088-0.889-5.732-0.889-7.932v-1.262c0-3.264,0.496-5.832,1.48-7.713
		c0-0.355,0.62-0.752,1.854-1.184c0.372,0,0.718,0.199,1.036,0.592h0.294c0.198-0.123,0.297-0.223,0.297-0.297
		c0-0.48-0.444-0.805-1.333-0.965h-0.517c-0.208,0-0.678,0.174-1.406,0.52c-1.546,1.173-2.359,4.262-2.445,9.266v0.444
		c0,2.445,0.124,4.2,0.373,5.268c0.653,4.938,1.416,7.757,2.295,8.447c0.804,0.706,1.57,1.102,2.298,1.19h0.076
		c0.379,0,0.8-0.099,1.254-0.294c1.092-0.694,1.632-1.263,1.632-1.706v-0.147c-0.072-0.147-0.147-0.223-0.219-0.223h-0.226V201.41z"
		/>
	<path fill="#22211E" d="M-951.87,196.738v-3.783c0-4.658-0.421-8.338-1.262-11.043c-0.506-2.72-1.221-4.077-2.152-4.077
		c-0.307,0-0.875,0.218-1.703,0.663c-1.037,0.828-1.56,3.424-1.56,7.787c0,3.422,0.127,6.287,0.373,8.6
		c0.565,4.74,1.926,7.113,4.077,7.113c0.605,0,1.074-0.345,1.406-1.035h0.147c0.827,1.617,1.419,2.558,1.778,2.818h0.223
		c0.147-0.076,0.219-0.148,0.219-0.223v-0.072c0-0.212-0.664-1.352-1.997-3.414C-952.017,198.654-951.87,197.546-951.87,196.738z
		 M-952.608,197.036c0,0.298-0.076,0.964-0.223,2.004h-0.15c-1.002-1.618-1.618-2.507-1.854-2.667h-0.147
		c-0.195,0.123-0.294,0.219-0.294,0.297v0.072c0,0.123,0.718,1.262,2.151,3.413c-0.26,0.739-0.581,1.108-0.96,1.108
		c-0.74,0-1.263-0.295-1.557-0.89c-1.433-1.234-2.151-5.927-2.151-14.081c0-3.67,0.349-5.969,1.037-6.898
		c0.113-0.232,0.605-0.482,1.481-0.739h0.075c0.322,0.294,0.493,0.444,0.52,0.444c1.382,3.94,2.073,8.414,2.073,13.418V197.036z"/>
	<path fill="#22211E" d="M-941.045,186.142c0-0.26,0.024-0.681,0.072-1.262c-0.048,0-0.072-0.025-0.072-0.072l0.072-0.448v-2.374
		c0-0.345-0.024-0.889-0.072-1.627c0.048,0,0.072-0.049,0.072-0.147c-0.083-1.382-0.232-2.077-0.445-2.077h-0.219l-0.294,0.22
		c0.099,0.718,0.171,1.409,0.219,2.079l-0.072,0.147l0.072,0.444v1.778c0,1.335-0.024,2.716-0.072,4.153
		c0.397,7.846,0.592,12.74,0.592,14.68c0,0.663-0.321,1.139-0.964,1.405c-0.903,0-1.567-1.655-2.001-4.966
		c-0.643-4.902-1.184-11.379-1.631-19.421v-0.372c0-0.273-0.124-0.469-0.37-0.592h-0.147l-0.301,0.219
		c0.492,8.28,1.012,14.532,1.556,18.756c0.444,4.74,1.334,7.118,2.668,7.118c1.149,0,1.789-0.718,1.926-2.151
		c0-1.536-0.199-6.598-0.592-15.196v-0.294H-941.045z"/>
	<path fill="#22211E" d="M-929.867,203.209v-0.074c-0.085-0.186-0.236-0.309-0.445-0.37c-0.362,0-1.474,0.048-3.338,0.147
		c0-0.051-0.027-0.075-0.075-0.075c-0.346-4.569-0.517-8.599-0.517-12.084v-0.294c0.469,0,1.037-0.023,1.703-0.072
		c1.002,0.096,1.717,0.147,2.152,0.147c0.195,0,0.293-0.075,0.293-0.223v-0.219l-0.219-0.294c-0.52,0-1.336-0.052-2.446-0.147
		c-0.235,0.048-0.557,0.071-0.964,0.071h-0.516c-0.25-5.719-0.373-8.98-0.373-9.785l-0.072-0.889
		c0.852-0.048,1.348-0.072,1.48-0.072l2.148,0.219c0.16,0,0.284-0.123,0.37-0.369v-0.082c0-0.199-0.791-0.373-2.371-0.52
		c0,0.051-0.024,0.075-0.076,0.075l-0.146-0.075c-0.506,0.051-0.899,0.075-1.184,0.075h-0.817l-0.298,0.22
		c0,0.051,0.075,0.443,0.222,1.186c0,1.533,0.123,4.471,0.373,8.821v2.37c0,3.14,0.171,7.07,0.517,11.79
		c0,0.64,0.294,0.964,0.889,0.964c0.396-0.051,1.532-0.1,3.413-0.146C-929.967,203.381-929.867,203.281-929.867,203.209z"/>
	<path fill="#22211E" d="M-926.18,188.53c-0.695-1.83-1.037-3.15-1.037-3.964c0-1.32,0.198-2.521,0.592-3.6
		c0.468-0.971,1.357-1.463,2.667-1.463h0.743c0.246-0.171,0.373-0.291,0.373-0.353v-0.13l-0.223-0.277
		c-1.987,0-3.325,0.486-4.001,1.464c-0.592,1.235-0.89,2.644-0.89,4.228c0.048,0.396,0.072,0.719,0.072,0.965
		c0.445,2.062,0.89,3.334,1.334,3.816c0.657,0.938,1.646,1.908,2.969,2.911c1.679,1.792,2.521,3.618,2.521,5.482
		c0,1.423-0.223,2.579-0.667,3.468c0,0.681-0.814,1.328-2.446,1.947c-0.543,0.051-0.813,0.143-0.813,0.277v0.204
		c0.085,0.185,0.26,0.28,0.52,0.28c0.257,0,0.606-0.119,1.037-0.355c1.21-0.445,1.949-0.979,2.223-1.594
		c0.592-1.31,0.889-2.65,0.889-4.019c0-1.731-0.619-3.485-1.854-5.261C-924.597,190.367-925.93,189.022-926.18,188.53z"/>
	<path fill="#22211E" d="M-1045.531,222.79h-0.075l0.373,14.454c-0.048,1.604-0.072,3.385-0.072,5.334v0.076l0.072,0.149h-0.079
		c0.052,2.076,0.151,3.681,0.302,4.819l-0.076,0.147c0.062,0.79,0.161,1.183,0.298,1.183c0.147,0,0.444-0.071,0.889-0.218
		c3.509-3.064,5.264-7.016,5.264-11.864v-0.365c0-3.4-0.79-6.711-2.37-9.933C-1042.058,224.695-1043.567,223.433-1045.531,222.79z
		 M-1039.377,237.097c0,2.212-0.568,4.581-1.707,7.116c-0.975,1.58-2.039,2.862-3.184,3.854c-0.202-2.076-0.298-4.052-0.298-5.931
		v-0.889c0-1.391,0.023-2.756,0.072-4.076c-0.147-3.211-0.247-7.609-0.294-13.195v-0.074c0.975,0.324,2.014,1.31,3.112,2.969
		c1.536,3.225,2.299,6.389,2.299,9.486V237.097z"/>
	<path fill="#22211E" d="M-1033.094,248.461c0-0.051-0.024-0.074-0.072-0.074c-0.35-4.57-0.52-8.599-0.52-12.083v-0.294
		c0.468,0,1.036-0.024,1.706-0.072c1.002,0.1,1.717,0.147,2.151,0.147c0.195,0,0.295-0.075,0.295-0.222v-0.22l-0.223-0.293
		c-0.517,0-1.334-0.049-2.445-0.147c-0.232,0.047-0.554,0.07-0.961,0.07h-0.523c-0.25-5.717-0.37-8.98-0.37-9.785l-0.075-0.898
		c0.855-0.049,1.347-0.072,1.481-0.072l2.152,0.219c0.157,0,0.284-0.123,0.369-0.369v-0.075c0-0.198-0.793-0.37-2.374-0.517
		c0,0.048-0.024,0.072-0.072,0.072l-0.147-0.072c-0.51,0.048-0.899,0.072-1.183,0.072h-0.817l-0.298,0.222
		c0,0.048,0.075,0.444,0.222,1.184c0,1.532,0.12,4.47,0.37,8.82v2.371c0,3.139,0.17,7.067,0.52,11.787
		c0,0.644,0.294,0.965,0.889,0.965c0.394-0.052,1.529-0.099,3.41-0.147c0.195-0.123,0.294-0.221,0.294-0.294v-0.075
		c-0.082-0.184-0.236-0.308-0.445-0.369C-1030.115,248.31-1031.226,248.359-1033.094,248.461z"/>
	<path fill="#22211E" d="M-1011.126,246.956c-0.852,1.092-1.645,1.636-2.374,1.636c-0.564-0.027-1.234-0.373-2-1.04
		c-0.633-0.801-1.125-2.337-1.481-4.593c-0.592-3.088-0.889-5.731-0.889-7.931v-1.263c0-3.263,0.493-5.832,1.481-7.713
		c0-0.355,0.615-0.752,1.85-1.183c0.373,0,0.718,0.198,1.036,0.592h0.294c0.202-0.124,0.301-0.22,0.301-0.298
		c0-0.479-0.448-0.801-1.337-0.965h-0.517c-0.212,0-0.681,0.174-1.409,0.521c-1.543,1.173-2.36,4.261-2.445,9.269v0.445
		c0,2.44,0.123,4.196,0.373,5.263c0.653,4.941,1.419,7.756,2.298,8.451c0.8,0.7,1.566,1.097,2.294,1.186h0.076
		c0.383,0,0.8-0.098,1.259-0.293c1.087-0.695,1.631-1.263,1.631-1.707v-0.148c-0.075-0.146-0.147-0.221-0.222-0.221h-0.219V246.956z
		"/>
	<path fill="#22211E" d="M-1005.123,223.902c-0.387,0-0.804,0.178-1.263,0.52c-1.73,2.682-2.596,7.497-2.596,14.453l0.223,3.04
		c0.445,4.162,1.56,6.46,3.338,6.896h0.517c0.188,0,0.53-0.1,1.036-0.299c1.433-1.209,2.151-4.421,2.151-9.632
		c0-0.039-0.024-0.186-0.072-0.445c0.048-0.062,0.072-0.237,0.072-0.521v-0.07c0-0.284-0.024-0.456-0.072-0.521
		c0.048-0.268,0.072-0.493,0.072-0.664v-0.294c0-1.002-0.024-1.819-0.072-2.449
		C-1002.616,227.236-1003.727,223.902-1005.123,223.902z M-1002.455,237.763c0,4.199-0.274,6.942-0.814,8.228
		c-0.284,1.386-0.93,2.076-1.929,2.076h-0.071c-0.544,0-1.164-0.69-1.854-2.076c-0.739-2.104-1.108-4.545-1.108-7.334
		c0-5.873,0.688-10.271,2.076-13.199c0.113-0.321,0.455-0.592,1.037-0.817c0.366,0.26,0.739,0.803,1.112,1.635
		c1.035,3.766,1.553,7.101,1.553,10.004V237.763z"/>
	<path fill="#22211E" d="M-989.369,225.164l-0.017-0.738l-0.188-0.353h-0.219c-2.449,7.101-3.67,10.921-3.67,11.45h-0.205
		c-2.877-7.821-4.464-11.779-4.762-11.878l-0.427,0.218c0.434,3.473,0.865,11.671,1.299,24.596c0,0.293,0.144,0.444,0.428,0.444
		l0.427-0.224l-1.078-21.367v-0.223h0.223c2.295,6.45,3.663,9.69,4.094,9.713c0.219-0.171,1.228-3.047,3.016-8.615h0.226v9.06
		c0.284,8.054,0.568,12.083,0.852,12.083l0.444-0.223c-0.434-7.312-0.649-11.556-0.649-12.728
		C-989.574,233.324-989.506,229.586-989.369,225.164z"/>
	<path fill="#22211E" d="M-985.364,223.31c-0.199,0.123-0.298,0.222-0.298,0.293v0.223c0,0.1,0.052,0.147,0.147,0.147l-0.37,13.49
		c0,0.273,0.048,1.065,0.147,2.373c-0.147,0-0.25,0.096-0.298,0.296c0,0.148,0.096,0.275,0.298,0.367
		c0,0.235,0.024,0.803,0.071,1.706c0,0.246-0.023,0.616-0.071,1.107l0.219,3.116c-0.048,0-0.072,0.024-0.072,0.071
		c0.062,0.804,0.137,1.447,0.22,1.927c-0.048,0-0.072,0.027-0.072,0.075v0.52c0.123,0.194,0.218,0.294,0.297,0.294h0.148
		c0.146-0.065,0.297-0.284,0.444-0.668v-0.221c0-0.37-0.076-0.565-0.223-0.593c0-0.417-0.072-2.023-0.218-4.819
		c0-0.061,0.023-0.308,0.072-0.737c-0.048-0.436-0.072-0.976-0.072-1.631v-0.072c0-0.113,0.297-0.188,0.889-0.223
		c0.927-0.454,1.642-1.125,2.152-2.004c1.084-3.681,1.628-7.065,1.628-10.15c-0.051-0.657-0.147-1.229-0.294-1.707
		C-981.472,224.373-983.052,223.31-985.364,223.31z M-981.137,229.685c-0.526,5.534-1.221,8.574-2.073,9.118
		c-0.571,0.592-1.139,0.891-1.707,0.891l-0.147-0.076c0-0.396-0.024-1.108-0.071-2.151l0.366-13.418
		c0.557,0.1,1.053,0.223,1.484,0.373c1.481,1.036,2.223,2.199,2.223,3.485C-981.062,228.19-981.086,228.783-981.137,229.685z"/>
	<path fill="#22211E" d="M-976.762,234.077c-0.694-1.826-1.036-3.146-1.036-3.964c0-1.32,0.198-2.521,0.592-3.598
		c0.468-0.973,1.357-1.465,2.668-1.465h0.745c0.243-0.171,0.369-0.291,0.369-0.352v-0.13l-0.219-0.277
		c-1.991,0-3.324,0.485-4.005,1.464c-0.591,1.238-0.889,2.645-0.889,4.227c0.048,0.397,0.075,0.719,0.075,0.965
		c0.445,2.063,0.89,3.339,1.334,3.817c0.653,0.938,1.642,1.909,2.965,2.91c1.683,1.792,2.521,3.622,2.521,5.481
		c0,1.423-0.219,2.578-0.664,3.469c0,0.68-0.817,1.327-2.449,1.946c-0.544,0.052-0.814,0.144-0.814,0.276v0.205
		c0.085,0.185,0.26,0.28,0.52,0.28c0.26,0,0.605-0.12,1.036-0.355c1.211-0.444,1.95-0.975,2.224-1.594
		c0.591-1.31,0.889-2.651,0.889-4.019c0-1.73-0.619-3.483-1.85-5.259C-975.182,235.913-976.516,234.573-976.762,234.077z"/>
	<path fill="#22211E" d="M-963.474,225.332h-3.041c-0.38,0-1.05,0.044-1.998,0.13c-0.051,0-0.25-0.044-0.591-0.13
		c-0.202,0.099-0.294,0.184-0.294,0.26c0,0.223,0.072,0.414,0.219,0.574l2.37-0.201h0.222l0.147,0.071
		c0.099,1.286,0.147,2.712,0.147,4.278c0.444,9.614,0.667,14.953,0.667,16.013c-0.051,0.383-0.076,0.619-0.076,0.705
		c0.147,0.171,0.25,0.259,0.294,0.259h0.297c0.076,0,0.147-0.088,0.222-0.259l-0.075-0.444c0-0.049,0.024-0.113,0.075-0.186
		c0-0.051-0.027-0.119-0.075-0.206c0-3.234-0.219-8.593-0.67-16.065c0-0.039,0.027-0.209,0.076-0.518l-0.147-3.393
		c0.072-0.171,0.147-0.256,0.219-0.256h2.08c1.381,0,2.076-0.106,2.076-0.318v-0.185l-0.222-0.261
		C-962.199,225.287-962.842,225.332-963.474,225.332z"/>
	<path fill="#22211E" d="M-956.059,248.461c0-0.051-0.024-0.074-0.072-0.074c-0.349-4.57-0.52-8.599-0.52-12.083v-0.294
		c0.468,0,1.037-0.024,1.707-0.072c1.002,0.1,1.713,0.147,2.148,0.147c0.198,0,0.293-0.075,0.293-0.222v-0.22l-0.219-0.293
		c-0.52,0-1.334-0.049-2.446-0.147c-0.232,0.047-0.557,0.07-0.961,0.07h-0.52c-0.25-5.717-0.37-8.98-0.37-9.785l-0.075-0.889
		c0.854-0.048,1.347-0.072,1.48-0.072l2.152,0.219c0.157,0,0.284-0.123,0.366-0.369v-0.075c0-0.198-0.79-0.369-2.371-0.517
		c0,0.049-0.024,0.072-0.072,0.072l-0.147-0.072c-0.509,0.049-0.902,0.072-1.183,0.072h-0.818l-0.298,0.223
		c0,0.048,0.072,0.443,0.219,1.184c0,1.531,0.123,4.469,0.373,8.819v2.371c0,3.141,0.171,7.068,0.521,11.788
		c0,0.643,0.294,0.965,0.889,0.965c0.393-0.052,1.529-0.1,3.41-0.147c0.195-0.123,0.294-0.223,0.294-0.294v-0.074
		c-0.085-0.187-0.236-0.309-0.444-0.37C-953.084,248.31-954.192,248.359-956.059,248.461z"/>
	<path fill="#22211E" d="M-947.789,248.592v-6.455c0-2.109-0.076-3.764-0.223-4.965c0-3.707-0.17-8.25-0.516-13.64l-0.075-0.147
		c0.099,0,0.146-0.123,0.146-0.372c-0.123-0.194-0.219-0.294-0.297-0.294h-0.071c-0.274,0-0.445,0.123-0.52,0.373l0.222,2.445
		c0.195,4.31,0.393,9.721,0.592,16.23v5.411l0.072,0.889c-0.048,0-0.072,0.172-0.072,0.521v0.444
		c0.123,0.195,0.219,0.294,0.294,0.294h3.41c0.842,0,1.263-0.099,1.263-0.294v-0.222c-0.076-0.147-0.147-0.219-0.223-0.219H-947.789
		z"/>
	<path fill="#22211E" d="M-938.654,248.592v-6.455c0-2.109-0.072-3.764-0.219-4.965c0-3.707-0.171-8.25-0.521-13.64l-0.071-0.147
		c0.096,0,0.147-0.123,0.147-0.372c-0.123-0.194-0.223-0.294-0.298-0.294h-0.075c-0.273,0-0.445,0.123-0.517,0.373l0.219,2.445
		c0.199,4.31,0.397,9.721,0.592,16.23v5.411l0.075,0.889c-0.051,0-0.075,0.172-0.075,0.521v0.444
		c0.123,0.195,0.222,0.294,0.294,0.294h3.414c0.837,0,1.258-0.099,1.258-0.294v-0.222c-0.071-0.147-0.147-0.219-0.219-0.219
		H-938.654z"/>
	<path fill="#22211E" d="M-928.642,248.461c0-0.051-0.024-0.074-0.076-0.074c-0.346-4.57-0.517-8.599-0.517-12.083v-0.294
		c0.468,0,1.037-0.024,1.707-0.072c0.999,0.1,1.714,0.147,2.148,0.147c0.198,0,0.294-0.075,0.294-0.222v-0.22l-0.219-0.293
		c-0.521,0-1.334-0.049-2.446-0.147c-0.236,0.047-0.557,0.07-0.964,0.07h-0.52c-0.25-5.717-0.373-8.98-0.373-9.785l-0.071-0.889
		c0.855-0.048,1.347-0.072,1.481-0.072l2.151,0.209c0.157,0,0.283-0.123,0.365-0.369v-0.075c0-0.198-0.79-0.37-2.37-0.517
		c0,0.048-0.024,0.072-0.072,0.072l-0.147-0.072c-0.51,0.048-0.904,0.072-1.187,0.072h-0.814l-0.298,0.222
		c0,0.048,0.072,0.444,0.219,1.184c0,1.532,0.124,4.47,0.373,8.82v2.371c0,3.139,0.171,7.067,0.517,11.787
		c0,0.644,0.294,0.965,0.889,0.965c0.396-0.052,1.532-0.099,3.414-0.147c0.195-0.123,0.294-0.221,0.294-0.294v-0.075
		c-0.086-0.184-0.236-0.308-0.445-0.369C-925.667,248.31-926.776,248.359-928.642,248.461z"/>
</g>
<path fill="#EA4647" d="M339.617,247.398c-6.556,0-11.895,5.335-11.895,11.896c0,0.339,0.074,0.656,0.099,0.988l-38.06,9.733
	l-52.149-1.183l-23.147,12.73l-19.212-11.305l-16.779-2.753c-0.698-5.896-5.671-10.505-11.759-10.505
	c-4.676,0-8.684,2.737-10.63,6.671l-68.784-12.505l-0.253-0.048l-60.983,7.179l-49.149,44.135c-2.162-2.223-5.179-3.614-8.52-3.614
	c-6.56,0-11.892,5.332-11.892,11.891c0,5.624,3.936,10.323,9.19,11.555l-8.329,55.801c-0.468-0.058-0.92-0.14-1.395-0.14
	c-6.557,0-11.893,5.332-11.893,11.893c0,0.137,0.035,0.263,0.042,0.396l-32.783,2.521l-37.465-10.539l-0.335-0.093l-38.43,4.659
	l-33.659-34.777l11.479-12.158c2.165,2.261,5.195,3.687,8.571,3.687c6.553,0,11.893-5.337,11.893-11.896
	c0-1.693-0.366-3.297-1.009-4.758l33.953-14.803l33.218-55.041c0.167,0.006,0.321,0.051,0.486,0.051
	c6.556,0,11.892-5.336,11.892-11.896c0-6.557-5.332-11.893-11.892-11.893s-11.896,5.336-11.896,11.893
	c0,5.119,3.273,9.452,7.815,11.128l-32.014,53.042l-33.46,14.585c-2.183-2.549-5.38-4.194-8.985-4.194
	c-6.56,0-11.895,5.335-11.895,11.892c0,1.957,0.516,3.77,1.354,5.397l-12.833,13.469l-15.207,4.624
	c-1.962-3.871-5.941-6.565-10.575-6.565c-4.641,0-8.625,2.697-10.585,6.583l-47.911-15.647l-27.058,17.755
	c-1.983-3.804-5.92-6.434-10.503-6.434c-6.557,0-11.896,5.333-11.896,11.893c0,0.085,0.023,0.171,0.023,0.253l-83.416-10.296
	l-27.974-4.086c-0.585-6.024-5.616-10.757-11.783-10.757c-5.75,0-10.559,4.104-11.656,9.538l-52.416,2.911l-46.587-17.471
	l-55.22-46.18c1.248-1.878,1.984-4.128,1.984-6.547c0-6.561-5.339-11.892-11.899-11.892c-5.4,0-9.922,3.638-11.369,8.574
	l-14.447-2.065l-31.606,19.904l-5.435-2.496c0.458-1.265,0.752-2.609,0.752-4.032c0-6.557-5.338-11.895-11.898-11.895
	c-4.433,0-8.264,2.468-10.309,6.074l-41.074-18.854c0.756-1.562,1.214-3.294,1.214-5.144c0-6.558-5.335-11.896-11.892-11.896
	c-3.075,0-5.859,1.204-7.976,3.134l-37.12-29.698l-34.374-41.491l-65.282-28.491l-63.771-1.104
	c-0.608-5.993-5.623-10.706-11.776-10.706c-6.556,0-11.892,5.336-11.892,11.894c0,6.556,5.339,11.895,11.892,11.895
	c5.794,0,10.617-4.17,11.67-9.659l62.819,0.981l64.212,28.02l33.963,40.987l37.486,30.02c-1.084,1.789-1.741,3.861-1.741,6.1
	c0,6.562,5.335,11.898,11.892,11.898c3.471,0,6.57-1.519,8.749-3.899l41.734,19.19c-0.191,0.846-0.314,1.719-0.314,2.624
	c0,6.561,5.336,11.893,11.893,11.893c3.902,0,7.343-1.912,9.511-4.822l7.326,3.368l32.117-20.214l13.161,1.882
	c0.051,6.509,5.359,11.796,11.885,11.796c2.894,0,5.514-1.084,7.58-2.804l55.569,46.474l47.705,17.994l0.339,0.131l52.822-2.967
	c0.554,6.048,5.599,10.815,11.787,10.815c5.77,0,10.586-4.136,11.663-9.587l27.632,4.062l84.538,10.434
	c1.601,4.688,5.996,8.088,11.214,8.088c6.554,0,11.893-5.335,11.893-11.896c0-0.721-0.089-1.419-0.212-2.107l26.38-17.312
	l46.303,15.118c-0.116,0.666-0.208,1.344-0.208,2.045c0,6.557,5.335,11.892,11.896,11.892c6.557,0,11.892-5.331,11.892-11.892
	c0-0.704-0.085-1.389-0.208-2.06l14.526-4.425l35.266,36.438l39.45-4.781l37.431,10.528l0.298,0.081l33.764-2.6
	c1.597,4.69,5.992,8.093,11.211,8.093c6.561,0,11.896-5.335,11.896-11.896c0-4.863-2.949-9.047-7.142-10.883l8.417-56.403
	c6.208-0.394,11.153-5.517,11.153-11.817c0-1.967-0.527-3.8-1.382-5.435l48.646-43.677l59.379-6.987l68.08,12.37
	c-0.103,0.635-0.195,1.26-0.195,1.919c0,6.558,5.332,11.894,11.892,11.894c5.865,0,10.723-4.269,11.694-9.852l15.376,2.459
	l20.632,12.136l24.051-13.229l51.456,1.169l0.235,0.009l38.418-9.831c1.743,4.406,6.023,7.535,11.04,7.535
	c6.561,0,11.894-5.332,11.894-11.893C351.515,252.731,346.18,247.398,339.617,247.398z M-108.416,245.164
	c0-4.654,3.79-8.442,8.448-8.442c4.655,0,8.444,3.788,8.444,8.442c0,4.66-3.789,8.449-8.444,8.449
	C-104.627,253.613-108.416,249.824-108.416,245.164z M-178.508,323.174c4.651,0,8.442,3.79,8.442,8.441
	c0,4.658-3.791,8.449-8.442,8.449c-4.658,0-8.448-3.791-8.448-8.449C-186.956,326.964-183.166,323.174-178.508,323.174z
	 M-990.923,158.328c-4.655,0-8.441-3.789-8.441-8.443c0-4.656,3.79-8.445,8.441-8.445c4.654,0,8.445,3.789,8.445,8.445
	C-982.478,154.539-986.264,158.328-990.923,158.328z M-770.621,266.681c-4.659,0-8.445-3.792-8.445-8.448
	c0-4.654,3.79-8.443,8.445-8.443c4.655,0,8.444,3.789,8.444,8.443C-762.177,262.889-765.963,266.681-770.621,266.681z
	 M-708.56,296.496c-4.658,0-8.445-3.789-8.445-8.447c0-4.655,3.79-8.444,8.445-8.444c4.655,0,8.448,3.789,8.448,8.444
	C-700.113,292.703-703.902,296.496-708.56,296.496z M-634.557,288.5c-4.655,0-8.441-3.79-8.441-8.444
	c0-4.659,3.79-8.448,8.441-8.448c4.656,0,8.448,3.789,8.448,8.448C-626.109,284.71-629.898,288.5-634.557,288.5z M-458.762,358.143
	c-4.655,0-8.445-3.791-8.445-8.444c0-4.659,3.79-8.449,8.445-8.449c4.658,0,8.444,3.79,8.444,8.449
	C-450.318,354.352-454.104,358.143-458.762,358.143z M-323.72,371.139c-4.656,0-8.445-3.789-8.445-8.447
	c0-4.659,3.789-8.448,8.445-8.448c4.655,0,8.444,3.789,8.444,8.448C-315.277,367.35-319.066,371.139-323.72,371.139z
	 M-227.663,368.879c-4.658,0-8.448-3.79-8.448-8.444c0-4.658,3.791-8.448,8.448-8.448c4.655,0,8.445,3.79,8.445,8.448
	C-219.219,365.089-223.008,368.879-227.663,368.879z M-35.585,389.814c0,4.659-3.79,8.447-8.448,8.447
	c-4.655,0-8.445-3.788-8.445-8.447c0-4.655,3.79-8.444,8.445-8.444C-39.375,381.37-35.585,385.159-35.585,389.814z M-31.604,319.155
	c-4.658,0-8.448-3.79-8.448-8.445c0-4.654,3.79-8.442,8.448-8.442c4.659,0,8.448,3.788,8.448,8.442
	C-23.156,315.365-26.946,319.155-31.604,319.155z M166.716,277.349c-4.655,0-8.445-3.789-8.445-8.443
	c0-4.659,3.79-8.449,8.445-8.449c4.658,0,8.451,3.79,8.451,8.449C175.166,273.56,171.374,277.349,166.716,277.349z M339.617,267.746
	c-4.655,0-8.444-3.79-8.444-8.448c0-4.657,3.789-8.448,8.444-8.448c4.659,0,8.45,3.791,8.45,8.448
	C348.068,263.956,344.277,267.746,339.617,267.746z"/>
</svg>
